<?xml version="1.0" encoding="UTF-8"?>
<svg version="1.1" xmlns="http://www.w3.org/2000/svg" width="325" height="316">
<path d="M0 0 C107.25 0 214.5 0 325 0 C325 104.28 325 208.56 325 316 C217.75 316 110.5 316 0 316 C0 211.72 0 107.44 0 0 Z " fill="#010101" transform="translate(0,0)"/>
<path d="M0 0 C0.33 0 0.66 0 1 0 C1.99894554 13.84649515 -2.39674314 25.83937124 -11.0703125 36.55859375 C-13.30825261 39.12013843 -15.61709011 41.57311023 -18 44 C-18.99773437 45.03447266 -18.99773437 45.03447266 -20.015625 46.08984375 C-26.72784295 52.55867976 -34.82887738 56.66880372 -43 61 C-25.94992781 55.42554526 -9.14578061 48.86104081 2 34 C3.49205646 38.47616939 1.48909803 40.97646712 -0.48828125 45.09375 C-9.30102899 62.03608675 -23.08037186 72.08820624 -41.00390625 78.08984375 C-43.32841539 78.79598538 -45.63467639 79.45059721 -48 80 C-31.60402823 78.82306143 -18.15830988 74.45899022 -4 66 C-7.98233601 77.99029428 -20.31440971 86.28814721 -31.125 91.75 C-38.0992145 94.79055682 -45.52839575 95.84691678 -53 97 C-49.66674246 97.05874776 -46.33362062 97.09384467 -43 97.125 C-41.59814453 97.15013672 -41.59814453 97.15013672 -40.16796875 97.17578125 C-35.77627341 97.20649241 -31.81174547 97.10236888 -27.5625 95.9296875 C-24.13276629 95.03464734 -23.18225308 95.00073756 -20 96 C-28.57256857 104.3684598 -39.63328812 110.16238883 -51.73828125 110.09765625 C-53.33833008 110.09282227 -53.33833008 110.09282227 -54.97070312 110.08789062 C-56.62489258 110.07532227 -56.62489258 110.07532227 -58.3125 110.0625 C-59.43462891 110.05798828 -60.55675781 110.05347656 -61.71289062 110.04882812 C-64.4753151 110.03707313 -67.23762998 110.02064077 -70 110 C-68.55888537 110.64388226 -67.11740956 111.28695617 -65.67578125 111.9296875 C-64.87309814 112.28788574 -64.07041504 112.64608398 -63.2434082 113.01513672 C-56.68043421 115.89630301 -50.04684875 116.92814922 -43 118 C-44 120 -44 120 -46.484375 121.0703125 C-58.31299734 124.89056134 -67.85694944 125.38498467 -79.5390625 120.875 C-82.03579652 119.83249517 -82.03579652 119.83249517 -85 120 C-79.49574635 125.13730341 -73.69489607 128.5859662 -67 132 C-67 132.33 -67 132.66 -67 133 C-85.3014862 133.95541401 -85.3014862 133.95541401 -94 128 C-94.99 127.34 -95.98 126.68 -97 126 C-93.7872314 131.16692682 -90.96234952 135.35121359 -86 139 C-86 139.66 -86 140.32 -86 141 C-95.12837786 139.07823624 -100.64658312 135.81830104 -107 129 C-105.45941767 134.01508715 -103.97068161 138.6147081 -101 143 C-108.00104793 141.4631846 -112.14797837 136.77803245 -116 131 C-116 133.97 -116 136.94 -116 140 C-121.51056176 136.11755876 -123.67501323 132.27746427 -126 126 C-127.33880968 128.95325666 -128.43385187 131.79888209 -129 135 C-127.47648077 138.07956297 -127.47648077 138.07956297 -125 141 C-123.52126497 144.27893419 -122.25250849 147.62888673 -121 151 C-121.66 151 -122.32 151 -123 151 C-118.68096732 156.0701688 -112.95428586 159.69956415 -106.3125 160.375 C-103.17990717 160.02036685 -100.09446242 159.60379754 -97 159 C-93 164.5 -93 164.5 -93 169 C-93.66 169 -94.32 169 -95 169 C-95 168.34 -95 167.68 -95 167 C-97.63904371 165.58622659 -100.07120629 164.62759865 -103 164 C-103 164.66 -103 165.32 -103 166 C-102.195625 166.20625 -101.39125 166.4125 -100.5625 166.625 C-99.716875 167.07875 -98.87125 167.5325 -98 168 C-97.1875 171.125 -97.1875 171.125 -97 174 C-97.66 174.33 -98.32 174.66 -99 175 C-99 174.01 -99 173.02 -99 172 C-99.99 171.67 -100.98 171.34 -102 171 C-102.433125 170.505 -102.86625 170.01 -103.3125 169.5 C-105.68067968 167.39495139 -107.91481553 167.34279827 -111 167 C-111.99 169.97 -111.99 169.97 -113 173 C-113.66 173 -114.32 173 -115 173 C-116.25 166.375 -116.25 166.375 -114 163 C-117.63 161.02 -121.26 159.04 -125 157 C-125 157.66 -125 158.32 -125 159 C-125.66 159 -126.32 159 -127 159 C-127 158.34 -127 157.68 -127 157 C-127.61875 156.690625 -128.2375 156.38125 -128.875 156.0625 C-130.25 155.375 -131.625 154.6875 -133 154 C-128.38515677 162.17530174 -123.22032419 168.04520994 -116 174 C-104.35649098 183.72622452 -104.35649098 183.72622452 -103.765625 189.15234375 C-103.75191157 191.1030793 -103.865782 193.05383896 -104 195 C-104.44730469 194.59007812 -104.89460937 194.18015625 -105.35546875 193.7578125 C-108.73744485 190.74359926 -111.579668 188.33949455 -116 187 C-115.67386719 187.53496094 -115.34773437 188.06992188 -115.01171875 188.62109375 C-113.75451437 191.57722297 -113.76883491 193.85907006 -113.8125 197.0625 C-113.82216797 198.62677734 -113.82216797 198.62677734 -113.83203125 200.22265625 C-114 203 -114 203 -115 206 C-115.66 206 -116.32 206 -117 206 C-117.226875 204.96875 -117.45375 203.9375 -117.6875 202.875 C-118.65711779 199.44036797 -120.23396692 197.49540724 -122.64453125 194.8515625 C-125.03182162 191.59053762 -126.25962851 187.79873035 -127.73046875 184.05859375 C-129.48291145 179.83655488 -131.67009255 175.92614192 -134 172 C-132.62530818 175.52582996 -131.10921873 178.95050404 -129.5 182.375 C-125.70462594 190.76064946 -123.15973605 198.71532501 -125.828125 207.828125 C-128.47305654 214.73652827 -128.47305654 214.73652827 -131 216 C-131.10957031 215.34773437 -131.21914062 214.69546875 -131.33203125 214.0234375 C-131.49058594 213.14945313 -131.64914063 212.27546875 -131.8125 211.375 C-131.96332031 210.51648438 -132.11414063 209.65796875 -132.26953125 208.7734375 C-132.91028442 205.9234997 -132.91028442 205.9234997 -134.4375 203.25 C-136.41561296 199.13552505 -137.2750261 195.07730457 -138.1875 190.625 C-138.36474609 189.79355469 -138.54199219 188.96210938 -138.72460938 188.10546875 C-139.15704507 186.07185226 -139.57954198 184.03612664 -140 182 C-136.85702899 194.32986374 -135.87121155 207.94829895 -142.3125 219.31640625 C-143.49518398 221.24834741 -144.71456454 223.13535647 -146 225 C-149 224 -149 224 -150.5703125 221.3828125 C-151.08335937 220.30773437 -151.59640625 219.23265625 -152.125 218.125 C-152.64320313 217.05507813 -153.16140625 215.98515625 -153.6953125 214.8828125 C-157.7420336 205.94125509 -156.78757096 195.23382881 -154 186 C-154 184.68 -154 183.36 -154 182 C-156.25538028 189.5834149 -156.25538028 189.5834149 -157.5 197.375 C-158 201 -158 201 -159.4375 203.375 C-161.77584467 207.30341904 -162.26220371 211.52982247 -163 216 C-167.03615659 212.69769006 -167.8300933 208.57744961 -168.37109375 203.5546875 C-168.53447475 194.50145823 -167.02015188 188.0666654 -163 180 C-162.67 179.01 -162.34 178.02 -162 177 C-162.88751953 178.7015625 -162.88751953 178.7015625 -163.79296875 180.4375 C-164.59098197 181.95841932 -165.38916835 183.4792478 -166.1875 185 C-166.57486328 185.74378906 -166.96222656 186.48757812 -167.36132812 187.25390625 C-169.71776209 191.73307824 -172.21827446 196.04139933 -174.99609375 200.2734375 C-176.26396343 202.45397602 -176.76540975 204.49770405 -177 207 C-180.56998178 202.9766872 -180.42980783 199.899525 -180.3046875 194.70703125 C-179.92398593 191.32464419 -178.8457377 188.84551228 -177 186 C-178.41764994 186.93601246 -179.83407568 187.8738792 -181.25 188.8125 C-182.03890625 189.33457031 -182.8278125 189.85664063 -183.640625 190.39453125 C-185.81092481 191.87134122 -187.91413768 193.40689873 -190 195 C-190.72756993 189.30070224 -189.49515835 186.10012615 -186.16796875 181.453125 C-183.06078692 177.93725079 -179.53236472 175.05641394 -175.90405273 172.09570312 C-168.94922761 166.4016709 -162.9481044 160.66005667 -160 152 C-162.31 154.31 -164.62 156.62 -167 159 C-167.33 158.34 -167.66 157.68 -168 157 C-168.69867188 157.3609375 -169.39734375 157.721875 -170.1171875 158.09375 C-171.02726562 158.5578125 -171.93734375 159.021875 -172.875 159.5 C-173.77992188 159.9640625 -174.68484375 160.428125 -175.6171875 160.90625 C-178 162 -178 162 -180 162 C-179.484375 162.721875 -178.96875 163.44375 -178.4375 164.1875 C-177 167 -177 167 -177.125 169.6875 C-178 172 -178 172 -181 174 C-181.99 170.535 -181.99 170.535 -183 167 C-187.39642348 167.5024484 -189.7948982 168.97295941 -193 172 C-193.33 172.99 -193.66 173.98 -194 175 C-194.66 175 -195.32 175 -196 175 C-196.36666667 169.5 -196.36666667 169.5 -194.625 167.125 C-193 166 -193 166 -191 166 C-191 165.34 -191 164.68 -191 164 C-194.0831351 165.19899698 -197.06279492 166.47700477 -200 168 C-199.33333333 165.33333333 -198.66666667 162.66666667 -198 160 C-193.25 158.875 -193.25 158.875 -191 160 C-184.76647165 160.92839784 -180.73084352 158.68642567 -175.2578125 155.80078125 C-172.45484127 153.56519347 -172.43811453 152.47914483 -172 149 C-171.235541 147.14612034 -170.42039855 145.31253343 -169.5625 143.5 C-168.70142764 141.66989995 -167.84706441 139.83662563 -167 138 C-166.58878906 137.14019531 -166.17757812 136.28039062 -165.75390625 135.39453125 C-164.87683 132.60879164 -165.07313102 131.74116609 -166.375 129.1875 C-167.179375 127.6096875 -167.179375 127.6096875 -168 126 C-168.24234375 126.67546875 -168.4846875 127.3509375 -168.734375 128.046875 C-172.17021277 137.19148936 -172.17021277 137.19148936 -176 140 C-176.66 140 -177.32 140 -178 140 C-177.67 136.7 -177.34 133.4 -177 130 C-177.825 131.216875 -178.65 132.43375 -179.5 133.6875 C-182.61719073 137.85859807 -186.14019886 140.99697385 -191 143 C-191.66 142.67 -192.32 142.34 -193 142 C-192.6390625 141.54109375 -192.278125 141.0821875 -191.90625 140.609375 C-191.4421875 139.99578125 -190.978125 139.3821875 -190.5 138.75 C-190.0359375 138.14671875 -189.571875 137.5434375 -189.09375 136.921875 C-187.67025581 134.78914405 -187.67025581 134.78914405 -188 131 C-188.42410156 131.39832031 -188.84820312 131.79664063 -189.28515625 132.20703125 C-194.03350979 136.49620335 -198.32519104 139.76543773 -204.9375 140.1875 C-205.618125 140.125625 -206.29875 140.06375 -207 140 C-206.34 139.01 -205.68 138.02 -205 137 C-204.34 137 -203.68 137 -203 137 C-202.62875 136.195625 -202.62875 136.195625 -202.25 135.375 C-200.70303025 132.43575748 -198.86985631 129.74245592 -197 127 C-198.97272716 127.96890582 -200.90795032 128.94517041 -202.796875 130.0703125 C-210.21838483 134.07792781 -217.81854345 133.36138949 -226 133 C-223.64742192 130.40908885 -221.15330936 128.79756479 -218.125 127.0625 C-211.60535468 123.52861276 -211.60535468 123.52861276 -207 118 C-207.59941406 118.3609375 -208.19882813 118.721875 -208.81640625 119.09375 C-216.14125996 122.84474194 -222.53751596 123.52084207 -230.6875 123.5625 C-231.66082275 123.57667969 -232.63414551 123.59085937 -233.63696289 123.60546875 C-240.24564807 123.51566921 -245.1976012 122.15863294 -251 119 C-251 118.67 -251 118.34 -251 118 C-250.00742188 117.85304688 -249.01484375 117.70609375 -247.9921875 117.5546875 C-238.22219333 115.98399165 -229.92236754 113.30783058 -221 109 C-221.77859375 109.15984375 -222.5571875 109.3196875 -223.359375 109.484375 C-228.00813291 110.14278277 -232.56049887 110.22331721 -237.25 110.25 C-238.14074219 110.270625 -239.03148437 110.29125 -239.94921875 110.3125 C-248.9673148 110.36485469 -256.593517 108.23547652 -264.375 103.625 C-265.84066406 102.77808594 -265.84066406 102.77808594 -267.3359375 101.9140625 C-270.14595013 99.89513847 -271.97696705 97.79005966 -274 95 C-273.35160156 95.144375 -272.70320313 95.28875 -272.03515625 95.4375 C-260.11334735 97.69340076 -248.08336595 97.18361631 -236 97 C-237.03898437 96.89042969 -238.07796875 96.78085938 -239.1484375 96.66796875 C-257.93593297 94.58272601 -271.81599686 88.94800926 -285 75 C-286.43652759 73.04600439 -287.71732163 71.06198886 -289 69 C-288.505 68.01 -288.505 68.01 -288 67 C-287.09121094 67.53109375 -286.18242187 68.0621875 -285.24609375 68.609375 C-273.0761536 75.52649171 -261.14250748 79.41195395 -247 80 C-247.81082031 79.78085938 -248.62164062 79.56171875 -249.45703125 79.3359375 C-266.86848421 74.34965411 -282.53977999 64.59074356 -291.640625 48.56640625 C-296.02439024 40.2901598 -296.02439024 40.2901598 -297 37 C-296.67 36.01 -296.34 35.02 -296 34 C-295.13375 35.2065625 -295.13375 35.2065625 -294.25 36.4375 C-284.01911157 48.549276 -267.01043373 56.62914573 -252 61 C-251.34 61 -250.68 61 -250 61 C-250.73863281 60.6596875 -251.47726563 60.319375 -252.23828125 59.96875 C-271.07266537 50.97036572 -286.03833215 37.8227636 -293.4375 17.9375 C-295.20775958 12.23500424 -295.41999426 6.92658561 -295 1 C-293 2 -293 2 -291.375 5.4375 C-284.56877403 19.29655434 -272.27204645 28.15743638 -259.125 35.5 C-252.12826116 39.43883885 -248.2717163 44.18208827 -244 51 C-242.39130329 53.06039972 -240.71027872 55.02249023 -239 57 C-243.30764815 55.43358249 -247.06171464 53.31663844 -251 51 C-247.13712015 60.13900842 -242.34132153 66.37168452 -235 73 C-234.01 73.99 -234.01 73.99 -233 75 C-236.9492568 74.44894091 -240.34920174 73.61064629 -244 72 C-242.68699296 74.01640368 -241.35186175 76.01002169 -240 78 C-239.46375 78.825 -238.9275 79.65 -238.375 80.5 C-235.32422498 83.71134213 -231.89206508 85.60965137 -228.046875 87.765625 C-227.37140625 88.17296875 -226.6959375 88.5803125 -226 89 C-226 89.33 -226 89.66 -226 90 C-228.97 89.67 -231.94 89.34 -235 89 C-230.58787088 95.43435497 -224.44489028 98.95265517 -217 101 C-219 102 -221 103 -223 104 C-216.35216058 107.96313504 -210.68654573 108.74378181 -203 109 C-203 109.66 -203 110.32 -203 111 C-201.865625 110.38125 -200.73125 109.7625 -199.5625 109.125 C-198.92441406 108.77695313 -198.28632813 108.42890625 -197.62890625 108.0703125 C-195.83381685 107.08589976 -195.83381685 107.08589976 -195 105 C-195.67933594 105.32355469 -196.35867187 105.64710938 -197.05859375 105.98046875 C-200.52993206 107.18368163 -203.39324418 107.30072699 -207.0625 107.3125 C-208.27035156 107.32925781 -209.47820312 107.34601563 -210.72265625 107.36328125 C-214 107 -214 107 -218 104 C-213.71 102.68 -209.42 101.36 -205 100 C-206.93875 99.938125 -208.8775 99.87625 -210.875 99.8125 C-217.53047682 99.33138119 -222.35073011 97.45587391 -228 94 C-228 93.34 -228 92.68 -228 92 C-222.06 91.67 -216.12 91.34 -210 91 C-212.475 90.46375 -214.95 89.9275 -217.5 89.375 C-226.09962275 87.34187343 -231.77187112 84.28484025 -237 77 C-235.99839844 77.2165625 -234.99679688 77.433125 -233.96484375 77.65625 C-232.62247263 77.93786632 -231.28002029 78.21909566 -229.9375 78.5 C-229.28072266 78.64308594 -228.62394531 78.78617187 -227.94726562 78.93359375 C-223.56860012 79.83952455 -219.49581296 80.14031146 -215 80 C-215.83402344 79.72027344 -216.66804688 79.44054687 -217.52734375 79.15234375 C-229.0205286 75.05797893 -236.37927006 69.43402259 -244 60 C-243.505 59.01 -243.505 59.01 -243 58 C-241.67548828 58.68835938 -241.67548828 58.68835938 -240.32421875 59.390625 C-228.67563443 66.04042726 -228.67563443 66.04042726 -216 69 C-216.94359375 68.47792969 -217.8871875 67.95585938 -218.859375 67.41796875 C-231.71410473 60.12576997 -243.39716279 51.71851615 -250 38 C-250.67578125 35.1796875 -250.67578125 35.1796875 -251 33 C-250.53851563 33.36351562 -250.07703125 33.72703125 -249.6015625 34.1015625 C-241.03591875 40.70354089 -232.28714471 45.46493997 -222.296875 49.609375 C-218.42961147 51.24059042 -214.72224021 53.06443509 -211 55 C-211.495 51.04 -211.495 51.04 -212 47 C-211.29875 47.73347656 -210.5975 48.46695313 -209.875 49.22265625 C-206.17862636 52.79347372 -202.11488377 55.64257649 -197.9375 58.62109375 C-191.98877902 63.43860848 -189.22706748 67.98911673 -187.25 75.1875 C-187.04246094 75.89841797 -186.83492188 76.60933594 -186.62109375 77.34179688 C-186.07181597 79.2252881 -185.53518176 81.1124551 -185 83 C-184.34261079 86.05017986 -184.34261079 86.05017986 -182.25 87.0625 C-181.5075 87.371875 -180.765 87.68125 -180 88 C-179.2575 88.391875 -178.515 88.78375 -177.75 89.1875 C-173.96694613 90.30522046 -170.77890335 90.11469743 -167 89 C-164.61687297 87.10571954 -163.3499441 85.69988821 -162 83 C-163.32 82.67 -164.64 82.34 -166 82 C-165.38125 81.443125 -164.7625 80.88625 -164.125 80.3125 C-161.93893621 77.93354822 -161.01214301 76.03642904 -160 73 C-160.99 72.67 -161.98 72.34 -163 72 C-159.535 67.05 -159.535 67.05 -156 62 C-157.65 62 -159.3 62 -161 62 C-159.36587557 60.29159719 -158.13093906 59.06546953 -156 58 C-156.69867188 57.67386719 -157.39734375 57.34773438 -158.1171875 57.01171875 C-159.02726563 56.57472656 -159.93734375 56.13773438 -160.875 55.6875 C-161.77992188 55.25824219 -162.68484375 54.82898438 -163.6171875 54.38671875 C-166 53 -166 53 -168 50 C-167.39671875 50.144375 -166.7934375 50.28875 -166.171875 50.4375 C-164.97304688 50.7159375 -164.97304688 50.7159375 -163.75 51 C-162.56664062 51.2784375 -162.56664062 51.2784375 -161.359375 51.5625 C-158.74443998 52.12154828 -158.74443998 52.12154828 -155 52 C-155.72316406 51.41992188 -155.72316406 51.41992188 -156.4609375 50.828125 C-157.09257812 50.30734375 -157.72421875 49.7865625 -158.375 49.25 C-159.00148437 48.73953125 -159.62796875 48.2290625 -160.2734375 47.703125 C-162.12622366 45.87548978 -163.12320552 44.44731646 -164 42 C-163.67 41.01 -163.34 40.02 -163 39 C-162.29875 39.763125 -161.5975 40.52625 -160.875 41.3125 C-157.75783034 44.22637599 -154.45031218 47 -150 47 C-150.66 46.01 -151.32 45.02 -152 44 C-151.625 41.8125 -151.625 41.8125 -151 40 C-150.17628906 40.78375 -149.35257813 41.5675 -148.50390625 42.375 C-144.35758662 45.83128052 -140.02025957 46.43897783 -134.83398438 47.3828125 C-129.75690896 48.44355 -127.4069268 50.16418702 -124 54 C-122.02379014 55.04622875 -120.0262871 56.05439935 -118 57 C-116 59 -116 59 -115.875 62.125 C-115.91625 63.07375 -115.9575 64.0225 -116 65 C-116.66 64.67 -117.32 64.34 -118 64 C-124.10465114 63.49127907 -127.11952826 63.93294022 -132 68 C-134.48386059 71.72579089 -134.3804212 73.58711402 -134 78 C-132.71815438 80.74832154 -132.71815438 80.74832154 -131 83 C-129 86 -129 86 -129 88 C-124.50744672 90.6223501 -120.94390346 90.16934064 -116 89 C-110.90994962 86.50299415 -108.05258479 83.23409121 -106 78 C-105.24269643 74.9989832 -104.57551945 72.00678531 -104.00390625 68.96484375 C-101.79716367 62.44765457 -96.92403027 58.90416685 -91.375 55.3125 C-86.35981962 52.06073174 -86.35981962 52.06073174 -82 48 C-82.33 50.31 -82.66 52.62 -83 55 C-77.75181602 52.70246168 -72.51455355 50.38285088 -67.29101562 48.02978516 C-65.35912253 47.16142144 -63.42229165 46.30405532 -61.484375 45.44921875 C-54.18735847 42.05858934 -48.69277149 37.66758224 -43 32 C-42.67 32.66 -42.34 33.32 -42 34 C-44.69985504 42.06853231 -50.09926565 48.07919512 -56 54 C-56.59296875 54.61617187 -57.1859375 55.23234375 -57.796875 55.8671875 C-64.18195987 61.99799908 -72.25786292 65.85645333 -80 70 C-76.47523664 68.76089936 -72.95599945 67.50676611 -69.4375 66.25 C-68.44685547 65.90195313 -67.45621094 65.55390625 -66.43554688 65.1953125 C-60.9353294 63.22181254 -55.96331462 61.09075973 -51 58 C-51 57.34 -51 56.68 -51 56 C-51.66 55.67 -52.32 55.34 -53 55 C-52.39671875 54.26394531 -51.7934375 53.52789062 -51.171875 52.76953125 C-49.97304688 51.30580078 -49.97304688 51.30580078 -48.75 49.8125 C-47.96109375 48.84957031 -47.1721875 47.88664062 -46.359375 46.89453125 C-44.89903824 45.10295917 -43.48122684 43.27458763 -42.13671875 41.39453125 C-39.49718323 38.43651429 -36.49318287 36.75042245 -33.0625 34.875 C-18.29123105 26.35943661 -7.13519567 15.75689044 0 0 Z " fill="#F7F7F7" transform="translate(313,43)"/>
<path d="M0 0 C0.33 0 0.66 0 1 0 C1.99894554 13.84649515 -2.39674314 25.83937124 -11.0703125 36.55859375 C-13.30825261 39.12013843 -15.61709011 41.57311023 -18 44 C-18.66515625 44.68964844 -19.3303125 45.37929687 -20.015625 46.08984375 C-26.72784295 52.55867976 -34.82887738 56.66880372 -43 61 C-25.94992781 55.42554526 -9.14578061 48.86104081 2 34 C3.49205646 38.47616939 1.48909803 40.97646712 -0.48828125 45.09375 C-9.30102899 62.03608675 -23.08037186 72.08820624 -41.00390625 78.08984375 C-43.32841539 78.79598538 -45.63467639 79.45059721 -48 80 C-31.60402823 78.82306143 -18.15830988 74.45899022 -4 66 C-7.98233601 77.99029428 -20.31440971 86.28814721 -31.125 91.75 C-38.0992145 94.79055682 -45.52839575 95.84691678 -53 97 C-49.66674246 97.05874776 -46.33362062 97.09384467 -43 97.125 C-41.59814453 97.15013672 -41.59814453 97.15013672 -40.16796875 97.17578125 C-35.77627341 97.20649241 -31.81174547 97.10236888 -27.5625 95.9296875 C-24.13276629 95.03464734 -23.18225308 95.00073756 -20 96 C-28.57256857 104.3684598 -39.63328812 110.16238883 -51.73828125 110.09765625 C-53.33833008 110.09282227 -53.33833008 110.09282227 -54.97070312 110.08789062 C-56.62489258 110.07532227 -56.62489258 110.07532227 -58.3125 110.0625 C-59.43462891 110.05798828 -60.55675781 110.05347656 -61.71289062 110.04882812 C-64.4753151 110.03707313 -67.23762998 110.02064077 -70 110 C-68.55888537 110.64388226 -67.11740956 111.28695617 -65.67578125 111.9296875 C-64.87309814 112.28788574 -64.07041504 112.64608398 -63.2434082 113.01513672 C-56.68043421 115.89630301 -50.04684875 116.92814922 -43 118 C-44 120 -44 120 -46.484375 121.0703125 C-58.31299734 124.89056134 -67.85694944 125.38498467 -79.5390625 120.875 C-82.03579652 119.83249517 -82.03579652 119.83249517 -85 120 C-79.49574635 125.13730341 -73.69489607 128.5859662 -67 132 C-67 132.33 -67 132.66 -67 133 C-85.3014862 133.95541401 -85.3014862 133.95541401 -94 128 C-95.485 127.01 -95.485 127.01 -97 126 C-93.7872314 131.16692682 -90.96234952 135.35121359 -86 139 C-86 139.66 -86 140.32 -86 141 C-95.12837786 139.07823624 -100.64658312 135.81830104 -107 129 C-105.45941767 134.01508715 -103.97068161 138.6147081 -101 143 C-108.00104793 141.4631846 -112.14797837 136.77803245 -116 131 C-116.66 131.33 -117.32 131.66 -118 132 C-118.2475 131.0925 -118.495 130.185 -118.75 129.25 C-120.03981342 125.89648511 -121.31971042 124.32291764 -124 122 C-123.67 121.01 -123.34 120.02 -123 119 C-122.34 119.66 -121.68 120.32 -121 121 C-120.67 119.02 -120.34 117.04 -120 115 C-119.34 115 -118.68 115 -118 115 C-116.64721885 116.98689731 -115.31431695 118.98745218 -114 121 C-113.34 121.33 -112.68 121.66 -112 122 C-112.66 119.03 -113.32 116.06 -114 113 C-113.07767578 113.63228516 -113.07767578 113.63228516 -112.13671875 114.27734375 C-111.32847656 114.82519531 -110.52023438 115.37304688 -109.6875 115.9375 C-108.88699219 116.48277344 -108.08648437 117.02804688 -107.26171875 117.58984375 C-104.9741857 119.13837326 -104.9741857 119.13837326 -102 120 C-102.44472656 119.30132812 -102.88945312 118.60265625 -103.34765625 117.8828125 C-103.91355469 116.97273438 -104.47945312 116.06265625 -105.0625 115.125 C-105.91521484 113.76761719 -105.91521484 113.76761719 -106.78515625 112.3828125 C-107.18605469 111.59648437 -107.58695313 110.81015625 -108 110 C-107.67 109.34 -107.34 108.68 -107 108 C-106.52691406 108.3609375 -106.05382812 108.721875 -105.56640625 109.09375 C-100.25720497 112.81950529 -96.42675047 113.66945317 -90 113 C-90.56589844 112.59007812 -91.13179687 112.18015625 -91.71484375 111.7578125 C-92.44832031 111.21898437 -93.18179688 110.68015625 -93.9375 110.125 C-94.66839844 109.59132813 -95.39929688 109.05765625 -96.15234375 108.5078125 C-98 107 -98 107 -99 105 C-98.49726563 105.16242188 -97.99453125 105.32484375 -97.4765625 105.4921875 C-94.11011817 106.18246788 -90.7948949 106.14465457 -87.375 106.125 C-86.3540625 106.13080078 -86.3540625 106.13080078 -85.3125 106.13671875 C-81.53042368 106.18405111 -81.53042368 106.18405111 -78 105 C-78.56847656 104.81824219 -79.13695312 104.63648438 -79.72265625 104.44921875 C-84.60701003 102.85915366 -89.31029027 101.09540222 -94 99 C-90.52838948 97.90149522 -87.49334482 98.02620029 -83.875 98.1875 C-77.49813083 98.25947369 -72.61525475 96.98760349 -67 94 C-66.67 93.67 -66.34 93.34 -66 93 C-67.77117187 92.92652344 -67.77117187 92.92652344 -69.578125 92.8515625 C-71.13543937 92.77651121 -72.69272991 92.70096439 -74.25 92.625 C-75.02730469 92.5940625 -75.80460937 92.563125 -76.60546875 92.53125 C-83.72431144 92.16618114 -83.72431144 92.16618114 -87 90 C-85.96101563 89.84144531 -84.92203125 89.68289062 -83.8515625 89.51953125 C-73.20107221 87.78364961 -63.77212975 86.1210216 -57 77 C-58.03898437 77.28875 -59.07796875 77.5775 -60.1484375 77.875 C-67.85577616 79.94976823 -74.94173273 81.69735005 -83 81 C-80.04718919 79.43110516 -77.11344032 78.34620075 -73.9375 77.3125 C-64.24809802 73.79378526 -54.91338948 68.46010809 -50 59 C-50.33 58.01 -50.66 57.02 -51 56 C-51.66 55.67 -52.32 55.34 -53 55 C-52.39671875 54.26394531 -51.7934375 53.52789062 -51.171875 52.76953125 C-50.37265625 51.79371094 -49.5734375 50.81789062 -48.75 49.8125 C-47.96109375 48.84957031 -47.1721875 47.88664062 -46.359375 46.89453125 C-44.89903824 45.10295917 -43.48122684 43.27458763 -42.13671875 41.39453125 C-39.49718323 38.43651429 -36.49318287 36.75042245 -33.0625 34.875 C-18.29123105 26.35943661 -7.13519567 15.75689044 0 0 Z " fill="#F5F5F5" transform="translate(313,43)"/>
<path d="M0 0 C2 1 2 1 3.625 4.4375 C10.43122597 18.29655434 22.72795355 27.15743638 35.875 34.5 C42.87173884 38.43883885 46.7282837 43.18208827 51 50 C52.60869671 52.06039972 54.28972128 54.02249023 56 56 C51.69235185 54.43358249 47.93828536 52.31663844 44 50 C47.86287985 59.13900842 52.65867847 65.37168452 60 72 C60.99 72.99 60.99 72.99 62 74 C58.0507432 73.44894091 54.65079826 72.61064629 51 71 C52.31300704 73.01640368 53.64813825 75.01002169 55 77 C55.53625 77.825 56.0725 78.65 56.625 79.5 C59.67577502 82.71134213 63.10793492 84.60965137 66.953125 86.765625 C67.62859375 87.17296875 68.3040625 87.5803125 69 88 C69 88.33 69 88.66 69 89 C66.03 88.67 63.06 88.34 60 88 C64.41212912 94.43435497 70.55510972 97.95265517 78 100 C76 101 74 102 72 103 C78.64783942 106.96313504 84.31345427 107.74378181 92 108 C92.33 108.99 92.66 109.98 93 111 C92.67 111.33 92.34 111.66 92 112 C98.18757163 112.55246175 101.28491228 111.71599916 106.3359375 108.09375 C108 107 108 107 110 107 C108.54955729 111.10958767 106.48889248 114.43258745 104 118 C109.19822672 116.63855967 112.09543873 114.53269829 116 111 C115.34 114.3 114.68 117.6 114 121 C114.78375 120.21625 115.5675 119.4325 116.375 118.625 C117.91666667 117.08333333 119.45833333 115.54166667 121 114 C121.495 117.465 121.495 117.465 122 121 C122.99 119.02 122.99 119.02 124 117 C124.66 117 125.32 117 126 117 C125.42676569 120.86933162 123.61046448 123.15222057 121 126 C120.34 126 119.68 126 119 126 C118.67 124.35 118.34 122.7 118 121 C116.87043002 121.76412087 115.74651022 122.53659803 114.625 123.3125 C113.99851562 123.74175781 113.37203125 124.17101562 112.7265625 124.61328125 C110.73621155 126.06920339 110.73621155 126.06920339 109 129 C103.70932149 133.65728742 97.19620256 138.65031645 90 139.25 C89.34 139.1675 88.68 139.085 88 139 C88.66 138.01 89.32 137.02 90 136 C90.66 136 91.32 136 92 136 C92.37125 135.195625 92.37125 135.195625 92.75 134.375 C94.29696975 131.43575748 96.13014369 128.74245592 98 126 C96.02727284 126.96890582 94.09204968 127.94517041 92.203125 129.0703125 C84.78161517 133.07792781 77.18145655 132.36138949 69 132 C71.35257808 129.40908885 73.84669064 127.79756479 76.875 126.0625 C83.39464532 122.52861276 83.39464532 122.52861276 88 117 C87.40058594 117.3609375 86.80117187 117.721875 86.18359375 118.09375 C78.85874004 121.84474194 72.46248404 122.52084207 64.3125 122.5625 C63.33917725 122.57667969 62.36585449 122.59085937 61.36303711 122.60546875 C54.75435193 122.51566921 49.8023988 121.15863294 44 118 C44 117.67 44 117.34 44 117 C44.99257813 116.85304688 45.98515625 116.70609375 47.0078125 116.5546875 C56.77780667 114.98399165 65.07763246 112.30783058 74 108 C73.22140625 108.15984375 72.4428125 108.3196875 71.640625 108.484375 C66.99186709 109.14278277 62.43950113 109.22331721 57.75 109.25 C56.85925781 109.270625 55.96851563 109.29125 55.05078125 109.3125 C46.0326852 109.36485469 38.406483 107.23547652 30.625 102.625 C29.15933594 101.77808594 29.15933594 101.77808594 27.6640625 100.9140625 C24.85404987 98.89513847 23.02303295 96.79005966 21 94 C21.64839844 94.144375 22.29679687 94.28875 22.96484375 94.4375 C34.88665265 96.69340076 46.91663405 96.18361631 59 96 C57.96101563 95.89042969 56.92203125 95.78085938 55.8515625 95.66796875 C37.06406703 93.58272601 23.18400314 87.94800926 10 74 C8.56347241 72.04600439 7.28267837 70.06198886 6 68 C6.495 67.01 6.495 67.01 7 66 C7.90878906 66.53109375 8.81757813 67.0621875 9.75390625 67.609375 C21.9238464 74.52649171 33.85749252 78.41195395 48 79 C47.18917969 78.78085938 46.37835938 78.56171875 45.54296875 78.3359375 C28.13151579 73.34965411 12.46022001 63.59074356 3.359375 47.56640625 C-1.02439024 39.2901598 -1.02439024 39.2901598 -2 36 C-1.67 35.01 -1.34 34.02 -1 33 C-0.13375 34.2065625 -0.13375 34.2065625 0.75 35.4375 C10.98088843 47.549276 27.98956627 55.62914573 43 60 C43.66 60 44.32 60 45 60 C44.26136719 59.6596875 43.52273437 59.319375 42.76171875 58.96875 C23.92733463 49.97036572 8.96166785 36.8227636 1.5625 16.9375 C-0.20775958 11.23500424 -0.41999426 5.92658561 0 0 Z " fill="#F5F5F5" transform="translate(18,44)"/>
<path d="M0 0 C2.31 0 4.62 0 7 0 C7.52787109 1.8871875 7.52787109 1.8871875 8.06640625 3.8125 C20.21042076 46.28735843 44.45884221 77.14004228 83.0625 98.6875 C83.97273926 99.21452515 83.97273926 99.21452515 84.90136719 99.75219727 C87.75320158 101.28776995 89.75157375 102.00709789 93.0078125 101.9140625 C96.49277185 100.84946656 99.62635863 99.42703041 102.8125 97.6875 C103.77929688 97.1618042 103.77929688 97.1618042 104.765625 96.62548828 C139.7169976 77.09531871 162.78957986 47.18934335 174 9 C174.97333141 5.99009966 175.98360841 2.99568048 177 0 C179.31 0 181.62 0 184 0 C183.33307192 14.77245702 177.23944419 27.84277204 171 41 C170.52820313 42.0003125 170.05640625 43.000625 169.5703125 44.03125 C160.64343257 61.5680792 146.44079775 77.06530821 131 89 C130.29746094 89.58007812 129.59492188 90.16015625 128.87109375 90.7578125 C102.23825125 112.4885948 102.23825125 112.4885948 91.62890625 111.859375 C59.06188776 101.2133957 28.5918025 71.44448479 13.09399414 41.58032227 C7.09708475 29.46620579 -0.41177961 13.70983889 0 0 Z " fill="#F2F2F2" transform="translate(74,170)"/>
<path d="M0 0 C3.14257052 1.3290068 6.15458539 2.87715526 9.1875 4.4375 C34.62382334 16.96939818 62.2325686 24.61075731 90 30 C90.52311757 35.23117569 90.52311757 35.23117569 90 38 C86.88216275 40.77141089 85.20153496 42 81 42 C80.67 40.68 80.34 39.36 80 38 C79.30366455 37.84031738 78.6073291 37.68063477 77.88989258 37.51611328 C51.13024629 31.30004091 23.85608798 23.75524959 -0.22265625 10.18359375 C-3.51501648 8.7805204 -4.65861022 8.82432582 -8 10 C-10.19259144 11.02985355 -12.35743486 12.11974775 -14.5 13.25 C-21.15782628 16.68755106 -27.95757279 19.43592426 -35 22 C-36.30522052 22.48685464 -37.60987755 22.97522177 -38.9140625 23.46484375 C-39.59355957 23.71959473 -40.27305664 23.9743457 -40.97314453 24.23681641 C-42.86947931 24.95085429 -44.7629759 25.67241709 -46.65625 26.39453125 C-55.22739153 29.59028517 -63.87854742 32.14172572 -72.75 34.375 C-73.78576172 34.63772705 -74.82152344 34.9004541 -75.88867188 35.17114258 C-80.37833539 36.27031316 -84.35476112 37.14679038 -89 37 C-89 38.65 -89 40.3 -89 42 C-92.52593616 41.34704886 -95.22945596 40.3087867 -98 38 C-98.3125 34.3125 -98.3125 34.3125 -98 31 C-94.02652873 29.8200327 -90.05100006 28.756618 -86.015625 27.80859375 C-60.89762434 21.87740532 -32.08447843 14.77787547 -10.203125 0.61328125 C-6.10251444 -1.45202626 -4.39546911 -1.24168461 0 0 Z " fill="#F2F2F2" transform="translate(170,42)"/>
<path d="M0 0 C1 3 1 3 0.28515625 4.9453125 C-3.57554145 11.82796207 -8.43518029 17.43518029 -14 23 C-11.03 22.34 -8.06 21.68 -5 21 C-9.48218878 28.38822327 -14.05327642 34.26955116 -22 38 C-19.36 38 -16.72 38 -14 38 C-18.55608682 44.1147481 -23.02172089 47.0073388 -30 50 C-28.35 50.66 -26.7 51.32 -25 52 C-26.98 54.475 -26.98 54.475 -29 57 C-28.01 57.495 -28.01 57.495 -27 58 C-26.28328125 58.36996094 -25.5665625 58.73992187 -24.828125 59.12109375 C-16.25412926 63.49902794 -8.50529395 65.55421095 1 67 C0 69 0 69 -2.484375 70.0703125 C-14.31299734 73.89056134 -23.85694944 74.38498467 -35.5390625 69.875 C-38.03579652 68.83249517 -38.03579652 68.83249517 -41 69 C-35.49574635 74.13730341 -29.69489607 77.5859662 -23 81 C-23 81.33 -23 81.66 -23 82 C-41.3014862 82.95541401 -41.3014862 82.95541401 -50 77 C-51.485 76.01 -51.485 76.01 -53 75 C-49.7872314 80.16692682 -46.96234952 84.35121359 -42 88 C-42 88.66 -42 89.32 -42 90 C-51.12837786 88.07823624 -56.64658312 84.81830104 -63 78 C-61.45941767 83.01508715 -59.97068161 87.6147081 -57 92 C-64.00104793 90.4631846 -68.14797837 85.77803245 -72 80 C-72.99 80.495 -72.99 80.495 -74 81 C-74.2475 80.0925 -74.495 79.185 -74.75 78.25 C-76.03981342 74.89648511 -77.31971042 73.32291764 -80 71 C-79.67 70.01 -79.34 69.02 -79 68 C-78.34 68.66 -77.68 69.32 -77 70 C-76.67 68.02 -76.34 66.04 -76 64 C-75.34 64 -74.68 64 -74 64 C-72.64721885 65.98689731 -71.31431695 67.98745218 -70 70 C-69.34 70.33 -68.68 70.66 -68 71 C-68.66 68.03 -69.32 65.06 -70 62 C-69.07767578 62.63228516 -69.07767578 62.63228516 -68.13671875 63.27734375 C-67.32847656 63.82519531 -66.52023438 64.37304688 -65.6875 64.9375 C-64.88699219 65.48277344 -64.08648437 66.02804688 -63.26171875 66.58984375 C-60.9741857 68.13837326 -60.9741857 68.13837326 -58 69 C-58.44472656 68.30132812 -58.88945312 67.60265625 -59.34765625 66.8828125 C-59.91355469 65.97273438 -60.47945312 65.06265625 -61.0625 64.125 C-61.91521484 62.76761719 -61.91521484 62.76761719 -62.78515625 61.3828125 C-63.18605469 60.59648437 -63.58695313 59.81015625 -64 59 C-63.67 58.34 -63.34 57.68 -63 57 C-62.29037109 57.54140625 -62.29037109 57.54140625 -61.56640625 58.09375 C-56.25720497 61.81950529 -52.42675047 62.66945317 -46 62 C-46.84884766 61.38511719 -46.84884766 61.38511719 -47.71484375 60.7578125 C-48.44832031 60.21898437 -49.18179688 59.68015625 -49.9375 59.125 C-50.66839844 58.59132812 -51.39929688 58.05765625 -52.15234375 57.5078125 C-54 56 -54 56 -55 54 C-54.49726563 54.16242188 -53.99453125 54.32484375 -53.4765625 54.4921875 C-50.11011817 55.18246788 -46.7948949 55.14465457 -43.375 55.125 C-42.3540625 55.13080078 -42.3540625 55.13080078 -41.3125 55.13671875 C-37.53042368 55.18405111 -37.53042368 55.18405111 -34 54 C-34.56847656 53.81824219 -35.13695312 53.63648438 -35.72265625 53.44921875 C-40.60701003 51.85915366 -45.31029027 50.09540222 -50 48 C-46.52838948 46.90149522 -43.49334482 47.02620029 -39.875 47.1875 C-33.49813083 47.25947369 -28.61525475 45.98760349 -23 43 C-22.67 42.67 -22.34 42.34 -22 42 C-23.18078125 41.95101562 -24.3615625 41.90203125 -25.578125 41.8515625 C-27.13543937 41.77651121 -28.69272991 41.70096439 -30.25 41.625 C-31.02730469 41.5940625 -31.80460937 41.563125 -32.60546875 41.53125 C-39.72431144 41.16618114 -39.72431144 41.16618114 -43 39 C-41.96101563 38.84144531 -40.92203125 38.68289062 -39.8515625 38.51953125 C-29.20107221 36.78364961 -19.77212975 35.1210216 -13 26 C-14.03898437 26.28875 -15.07796875 26.5775 -16.1484375 26.875 C-23.85577616 28.94976823 -30.94173273 30.69735005 -39 30 C-36.04718919 28.43110516 -33.11344032 27.34620075 -29.9375 26.3125 C-19.8984687 22.66681707 -11.50760292 17.36985276 -6 8 C-5.63858225 6.67400373 -5.29965306 5.34130419 -5 4 C-3.40485219 2.12743518 -2.2039483 1.10197415 0 0 Z " fill="#0F0F0F" transform="translate(269,94)"/>
<path d="M0 0 C0.97259766 0.2165625 0.97259766 0.2165625 1.96484375 0.4375 C10.01648434 1.96106931 17.88165146 2.22182054 26.0625 2.25 C27.16907959 2.25902344 28.27565918 2.26804688 29.41577148 2.27734375 C30.99080444 2.27154297 30.99080444 2.27154297 32.59765625 2.265625 C33.54133057 2.26336914 34.48500488 2.26111328 35.45727539 2.25878906 C38.10652148 1.98915864 39.68501677 1.25331674 42 0 C44.96921432 0.37768871 47.41268348 1.58451083 50.0625 2.9375 C50.73410156 3.27652344 51.40570313 3.61554688 52.09765625 3.96484375 C54 5 54 5 57 7 C55.02 7.66 53.04 8.32 51 9 C57.64783942 12.96313504 63.31345427 13.74378181 71 14 C71.495 15.485 71.495 15.485 72 17 C71.505 17.495 71.505 17.495 71 18 C77.18757163 18.55246175 80.28491228 17.71599916 85.3359375 14.09375 C87 13 87 13 89 13 C87.54955729 17.10958767 85.48889248 20.43258745 83 24 C88.19822672 22.63855967 91.09543873 20.53269829 95 17 C94.34 20.3 93.68 23.6 93 27 C93.78375 26.21625 94.5675 25.4325 95.375 24.625 C96.91666667 23.08333333 98.45833333 21.54166667 100 20 C100.495 23.465 100.495 23.465 101 27 C101.66 25.68 102.32 24.36 103 23 C103.66 23 104.32 23 105 23 C104.42676569 26.86933162 102.61046448 29.15222057 100 32 C99.34 32 98.68 32 98 32 C97.67 30.35 97.34 28.7 97 27 C95.87043002 27.76412087 94.74651022 28.53659803 93.625 29.3125 C92.99851562 29.74175781 92.37203125 30.17101562 91.7265625 30.61328125 C89.73621155 32.06920339 89.73621155 32.06920339 88 35 C82.70932149 39.65728742 76.19620256 44.65031645 69 45.25 C68.34 45.1675 67.68 45.085 67 45 C67.66 44.01 68.32 43.02 69 42 C69.66 42 70.32 42 71 42 C71.37125 41.195625 71.37125 41.195625 71.75 40.375 C73.29696975 37.43575748 75.13014369 34.74245592 77 32 C75.02727284 32.96890582 73.09204968 33.94517041 71.203125 35.0703125 C63.78161517 39.07792781 56.18145655 38.36138949 48 38 C50.35257808 35.40908885 52.84669064 33.79756479 55.875 32.0625 C62.39464532 28.52861276 62.39464532 28.52861276 67 23 C66.40058594 23.3609375 65.80117187 23.721875 65.18359375 24.09375 C57.85874004 27.84474194 51.46248404 28.52084207 43.3125 28.5625 C42.33917725 28.57667969 41.36585449 28.59085938 40.36303711 28.60546875 C33.75435193 28.51566921 28.8023988 27.15863294 23 24 C23 23.67 23 23.34 23 23 C24.48886719 22.77957031 24.48886719 22.77957031 26.0078125 22.5546875 C35.77780667 20.98399165 44.07763246 18.30783058 53 14 C52.22140625 14.15984375 51.4428125 14.3196875 50.640625 14.484375 C45.99186709 15.14278277 41.43950113 15.22331721 36.75 15.25 C35.41388672 15.2809375 35.41388672 15.2809375 34.05078125 15.3125 C25.0326852 15.36485469 17.406483 13.23547652 9.625 8.625 C8.64789063 8.06039062 7.67078125 7.49578125 6.6640625 6.9140625 C3.85404987 4.89513847 2.02303295 2.79005966 0 0 Z " fill="#F4F4F4" transform="translate(39,138)"/>
<path d="M0 0 C-1.45044271 4.10958767 -3.51110752 7.43258745 -6 11 C-0.80177328 9.63855967 2.09543873 7.53269829 6 4 C5.34 7.3 4.68 10.6 4 14 C4.78375 13.21625 5.5675 12.4325 6.375 11.625 C7.91666667 10.08333333 9.45833333 8.54166667 11 7 C11.495 10.465 11.495 10.465 12 14 C12.66 12.68 13.32 11.36 14 10 C14.66 10 15.32 10 16 10 C15.42676569 13.86933162 13.61046448 16.15222057 11 19 C10.34 19 9.68 19 9 19 C8.67 17.35 8.34 15.7 8 14 C6.87043002 14.76412087 5.74651022 15.53659803 4.625 16.3125 C3.99851563 16.74175781 3.37203125 17.17101562 2.7265625 17.61328125 C0.73621155 19.06920339 0.73621155 19.06920339 -1 22 C-6.29067851 26.65728742 -12.80379744 31.65031645 -20 32.25 C-20.66 32.1675 -21.32 32.085 -22 32 C-21.34 31.01 -20.68 30.02 -20 29 C-19.34 29 -18.68 29 -18 29 C-17.7525 28.46375 -17.505 27.9275 -17.25 27.375 C-15.70303025 24.43575748 -13.86985631 21.74245592 -12 19 C-13.97272716 19.96890582 -15.90795032 20.94517041 -17.796875 22.0703125 C-25.21838483 26.07792781 -32.81854345 25.36138949 -41 25 C-38.64742192 22.40908885 -36.15330936 20.79756479 -33.125 19.0625 C-29.5045062 16.93995904 -26.18196361 14.7577018 -23 12 C-23.57344937 9.13275314 -23.8614515 8.1385485 -26 6 C-24.35 5.01 -22.7 4.02 -21 3 C-23.97 2.505 -23.97 2.505 -27 2 C-27 1.67 -27 1.34 -27 1 C-24.03 1 -21.06 1 -18 1 C-17.67 1.99 -17.34 2.98 -17 4 C-17.33 4.33 -17.66 4.66 -18 5 C-11.81242837 5.55246175 -8.71508772 4.71599916 -3.6640625 1.09375 C-2 0 -2 0 0 0 Z " fill="#333333" transform="translate(128,151)"/>
<path d="M0 0 C13.81985697 0.93921358 13.81985697 0.93921358 17.75 5.25 C18.25660156 5.86746094 18.76320312 6.48492187 19.28515625 7.12109375 C23.41487066 11.64590612 29.55059543 14.33167086 35 17 C35 17.33 35 17.66 35 18 C16.6985138 18.95541401 16.6985138 18.95541401 8 13 C7.01 12.34 6.02 11.68 5 11 C8.2127686 16.16692682 11.03765048 20.35121359 16 24 C16 24.66 16 25.32 16 26 C6.09398948 23.9145241 0.03884434 20.15801662 -6 12 C-8.07113317 8.42679901 -8.07113317 8.42679901 -7.625 5.75 C-7.41875 5.1725 -7.2125 4.595 -7 4 C-5.700625 4.7425 -5.700625 4.7425 -4.375 5.5 C-0.89250377 7.0477761 1.24759458 7.26802896 5 7 C3.35 4.69 1.7 2.38 0 0 Z " fill="#EFEFEF" transform="translate(211,158)"/>
<path d="M0 0 C6.07857885 2.65146343 11.8045752 4.66543392 18.375 5.6875 C19.43460937 5.85507813 20.49421875 6.02265625 21.5859375 6.1953125 C22.38257813 6.31648437 23.17921875 6.43765625 24 6.5625 C23 8.5625 23 8.5625 20.515625 9.6328125 C7.88901375 13.71078503 -2.72850184 13.95834993 -15 8.5625 C-16.68456287 7.59295077 -18.35716019 6.60117952 -20 5.5625 C-19.01 4.5725 -18.02 3.5825 -17 2.5625 C-17.825 2.088125 -18.65 1.61375 -19.5 1.125 C-20.325 0.609375 -21.15 0.09375 -22 -0.4375 C-22 -0.7675 -22 -1.0975 -22 -1.4375 C-20.46155045 -1.80539011 -18.91899612 -2.15613066 -17.375 -2.5 C-16.51648438 -2.69722656 -15.65796875 -2.89445313 -14.7734375 -3.09765625 C-9.31279191 -3.76677761 -4.95179992 -2.17286012 0 0 Z " fill="#EFEFEF" transform="translate(246,154.4375)"/>
<path d="M0 0 C3.375 0.6875 3.375 0.6875 7 2 C7.72904086 3.64034193 8.38655243 5.31301918 9 7 C16.30098862 15.42258977 26.51628639 16.49219009 37 18 C33.89914429 20.06723714 33.27068319 20.24497423 29.76953125 20.1953125 C28.96708984 20.18886719 28.16464844 20.18242187 27.33789062 20.17578125 C26.50451172 20.15902344 25.67113281 20.14226562 24.8125 20.125 C23.96751953 20.11597656 23.12253906 20.10695312 22.25195312 20.09765625 C20.16784757 20.07410703 18.08388783 20.03823647 16 20 C16 20.66 16 21.32 16 22 C16.63808594 22.20496094 17.27617188 22.40992188 17.93359375 22.62109375 C18.75988281 22.89050781 19.58617188 23.15992188 20.4375 23.4375 C21.26121094 23.70433594 22.08492187 23.97117188 22.93359375 24.24609375 C25 25 25 25 26 26 C28.52596259 26.23653523 31.03107207 26.42173692 33.5625 26.5625 C34.62887695 26.62727539 34.62887695 26.62727539 35.71679688 26.69335938 C37.47761912 26.79971777 39.2387832 26.90038846 41 27 C38.13559145 29.3979567 35.91205724 30.48740082 32.25 31.1875 C31.05117187 31.42533203 31.05117187 31.42533203 29.828125 31.66796875 C29.22484375 31.77753906 28.6215625 31.88710937 28 32 C29.88673057 34.31489649 29.88673057 34.31489649 33.01171875 34.265625 C42.19460599 34.25505876 42.19460599 34.25505876 51 32 C48.66666667 34.33333333 46.33333333 36.66666667 44 39 C43.01 39 42.02 39 41 39 C41 38.34 41 37.68 41 37 C40.2265625 37.04640625 39.453125 37.0928125 38.65625 37.140625 C31.5321865 37.38749849 27.03577124 36.87200419 21 33 C20.67 32.34 20.34 31.68 20 31 C21.32 30.34 22.64 29.68 24 29 C22.824375 28.46375 21.64875 27.9275 20.4375 27.375 C16.11973982 25.21996818 12.27099965 22.57765587 9 19 C9 18.34 9 17.68 9 17 C11.64 17 14.28 17 17 17 C16.443125 16.75507813 15.88625 16.51015625 15.3125 16.2578125 C8.48461334 12.91307072 4.1339894 8.3643161 0 2 C0 1.34 0 0.68 0 0 Z " fill="#121212" transform="translate(69,115)"/>
<path d="M0 0 C0.52207031 0.3609375 1.04414063 0.721875 1.58203125 1.09375 C7.84066314 5.03964752 12.6899803 5.61486147 20 5 C20 5.66 20 6.32 20 7 C13.565 7.495 13.565 7.495 7 8 C8.65 10.31 10.3 12.62 12 15 C6.73946963 15.31563182 3.55426184 14.66590937 -1 12 C-0.67702486 13.66870487 -0.33986667 15.33465333 0 17 C0.11085937 17.66644531 0.22171875 18.33289063 0.3359375 19.01953125 C1.45870207 25.06763094 3.77213353 29.78859726 7 35 C-0.00104793 33.4631846 -4.14797837 28.77803245 -8 23 C-8.66 23.33 -9.32 23.66 -10 24 C-10.37125 22.63875 -10.37125 22.63875 -10.75 21.25 C-12.03981342 17.89648511 -13.31971042 16.32291764 -16 14 C-15.67 13.01 -15.34 12.02 -15 11 C-14.34 11.66 -13.68 12.32 -13 13 C-12.67 11.02 -12.34 9.04 -12 7 C-11.34 7 -10.68 7 -10 7 C-8.64721885 8.98689731 -7.31431695 10.98745218 -6 13 C-5.34 13.33 -4.68 13.66 -4 14 C-4.66 11.03 -5.32 8.06 -6 5 C-5.38511719 5.42152344 -4.77023438 5.84304687 -4.13671875 6.27734375 C-3.32847656 6.82519531 -2.52023438 7.37304688 -1.6875 7.9375 C-0.88699219 8.48277344 -0.08648437 9.02804688 0.73828125 9.58984375 C3.0258143 11.13837326 3.0258143 11.13837326 6 12 C5.566875 11.30132812 5.13375 10.60265625 4.6875 9.8828125 C4.130625 8.97273437 3.57375 8.06265625 3 7.125 C2.443125 6.22007812 1.88625 5.31515625 1.3125 4.3828125 C0 2 0 2 0 0 Z " fill="#262626" transform="translate(205,151)"/>
<path d="M0 0 C-1.01266212 2.02532424 -2.02549552 4.04949131 -3.0625 6.0625 C-4.11611949 8.13410175 -4.11611949 8.13410175 -5 11 C-7.1796875 12.5703125 -7.1796875 12.5703125 -9.875 14.125 C-10.75929688 14.64320313 -11.64359375 15.16140625 -12.5546875 15.6953125 C-17.13355634 18.13835115 -21.12678803 18.11995787 -26.1875 18.0625 C-26.93708984 18.05798828 -27.68667969 18.05347656 -28.45898438 18.04882812 C-30.30602383 18.03706354 -32.15302213 18.01912865 -34 18 C-31.69133812 15.45972479 -29.30016438 13.9197151 -26.3125 12.25 C-22.77642011 10.20602318 -19.95793228 8.12150309 -17.0625 5.25 C-12.2590522 0.80018026 -6.40199553 0 0 0 Z " fill="#F4F4F4" transform="translate(121,158)"/>
<path d="M0 0 C0.66 0.33 1.32 0.66 2 1 C2 1.66 2 2.32 2 3 C0.35 3.66 -1.3 4.32 -3 5 C-1.35 5.66 0.3 6.32 2 7 C0.68 8.65 -0.64 10.3 -2 12 C-1.34 12.33 -0.68 12.66 0 13 C-2 14 -2 14 -4.5625 13.4375 C-9.03814965 12.86787186 -12.68707447 13.84030225 -17 15 C-15.35 15.99 -13.7 16.98 -12 18 C-13.14453125 20.015625 -13.14453125 20.015625 -15 22 C-17.69921875 22.171875 -17.69921875 22.171875 -20.6875 21.75 C-21.68136719 21.62109375 -22.67523438 21.4921875 -23.69921875 21.359375 C-24.45847656 21.24078125 -25.21773437 21.1221875 -26 21 C-26 20.34 -26 19.68 -26 19 C-23.03 19 -20.06 19 -17 19 C-17 18.34 -17 17.68 -17 17 C-17.70125 16.773125 -18.4025 16.54625 -19.125 16.3125 C-22.69343613 14.68343133 -25.06514511 12.59359269 -28 10 C-27.34 9.67 -26.68 9.34 -26 9 C-25.34 9.33 -24.68 9.66 -24 10 C-21.4884113 10.09792892 -19.01090234 10.13907983 -16.5 10.125 C-15.81035156 10.12886719 -15.12070313 10.13273438 -14.41015625 10.13671875 C-10.57833786 10.19040866 -10.57833786 10.19040866 -7 9 C-7.56847656 8.81824219 -8.13695312 8.63648438 -8.72265625 8.44921875 C-13.60701003 6.85915366 -18.31029027 5.09540222 -23 3 C-18.47111637 1.57505857 -13.98167872 2.02278458 -9.2890625 2.16015625 C-5.85408935 1.99289509 -3.2307513 1.11260744 0 0 Z " fill="#313131" transform="translate(242,139)"/>
<path d="M0 0 C-1.96908049 7.61723242 -4.63948375 13.23973731 -11.4375 17.54296875 C-15.81544845 19.86875387 -18.97220395 21.29575271 -24 21 C-23.01 19.515 -23.01 19.515 -22 18 C-21.34 18 -20.68 18 -20 18 C-19.73316406 17.443125 -19.46632813 16.88625 -19.19140625 16.3125 C-15.42035284 8.99294715 -11.81553556 3.48672419 -3.91796875 0.5234375 C-2 0 -2 0 0 0 Z " fill="#EDEDED" transform="translate(130,162)"/>
<path d="M0 0 C0.515625 0.165 1.03125 0.33 1.5625 0.5 C6.7818216 1.57063007 11.81517458 1.01167325 17 0 C21 5.5 21 5.5 21 10 C20.34 10 19.68 10 19 10 C19 9.34 19 8.68 19 8 C16.36095629 6.58622659 13.92879371 5.62759865 11 5 C11 5.66 11 6.32 11 7 C12.2065625 7.309375 12.2065625 7.309375 13.4375 7.625 C14.7059375 8.305625 14.7059375 8.305625 16 9 C16.8125 12.125 16.8125 12.125 17 15 C16.01 15.495 16.01 15.495 15 16 C15 15.01 15 14.02 15 13 C14.01 12.67 13.02 12.34 12 12 C11.566875 11.505 11.13375 11.01 10.6875 10.5 C8.31932032 8.39495139 6.08518447 8.34279827 3 8 C2.34 9.98 1.68 11.96 1 14 C0.34 14 -0.32 14 -1 14 C-2.25 7.375 -2.25 7.375 0 4 C-0.66 3.34 -1.32 2.68 -2 2 C-1.34 2 -0.68 2 0 2 C0 1.34 0 0.68 0 0 Z " fill="#ECECEC" transform="translate(199,202)"/>
<path d="M0 0 C0.66 3.3 1.32 6.6 2 10 C2.99 10 3.98 10 5 10 C4.52354792 14.28806873 3.34097516 16.26647487 0 19 C-0.66 19 -1.32 19 -2 19 C-1.67 15.7 -1.34 12.4 -1 9 C-1.825 10.216875 -2.65 11.43375 -3.5 12.6875 C-6.61719073 16.85859807 -10.14019886 19.99697385 -15 22 C-15.66 21.67 -16.32 21.34 -17 21 C-15.88625 19.5459375 -15.88625 19.5459375 -14.75 18.0625 C-12.71571693 15.26109902 -11.36764467 12.60047334 -10.125 9.375 C-8.51652675 5.50274958 -4.82695532 0 0 0 Z " fill="#EBEBEB" transform="translate(137,164)"/>
<path d="M0 0 C0.33 0.66 0.66 1.32 1 2 C-2.66851035 10.63178906 -10.21655408 20.27614274 -19 24 C-18.67447917 21.98177083 -18.34895833 19.96354167 -18.0234375 17.9453125 C-18.01570312 17.30335938 -18.00796875 16.66140625 -18 16 C-18.66 15.34 -19.32 14.68 -20 14 C-20 13.01 -20 12.02 -20 11 C-18.421924 10.15675328 -16.8372958 9.32576082 -15.25 8.5 C-14.36828125 8.0359375 -13.4865625 7.571875 -12.578125 7.09375 C-10 6 -10 6 -6 6 C-4.23682295 4.7187757 -4.23682295 4.7187757 -2.75 3 C-2.22921875 2.443125 -1.7084375 1.88625 -1.171875 1.3125 C-0.78515625 0.879375 -0.3984375 0.44625 0 0 Z " fill="#0B0B0B" transform="translate(153,194)"/>
<path d="M0 0 C4.95 0 9.9 0 15 0 C11.44525908 2.66605569 10.29786012 3.41364439 6.25 4.1875 C5.05117187 4.42533203 5.05117187 4.42533203 3.828125 4.66796875 C2.92320313 4.83232422 2.92320313 4.83232422 2 5 C3.88673057 7.31489649 3.88673057 7.31489649 7.01171875 7.265625 C16.19460599 7.25505876 16.19460599 7.25505876 25 5 C22.66666667 7.33333333 20.33333333 9.66666667 18 12 C17.01 12 16.02 12 15 12 C15 11.34 15 10.68 15 10 C14.2265625 10.04640625 13.453125 10.0928125 12.65625 10.140625 C5.5321865 10.38749849 1.03577124 9.87200419 -5 6 C-5.33 5.34 -5.66 4.68 -6 4 C-4.02 3.34 -2.04 2.68 0 2 C0 1.34 0 0.68 0 0 Z " fill="#171717" transform="translate(95,142)"/>
<path d="M0 0 C6.09276413 2.87672883 8.52299051 5.59767631 11.375 11.625 C11.88740234 12.6459375 11.88740234 12.6459375 12.41015625 13.6875 C13.29119033 15.44956815 14.14736205 17.22401753 15 19 C15.33 19.66 15.66 20.32 16 21 C10.04493297 19.69279016 6.78190667 16.55547849 3 12 C0.35446104 7.81834165 -0.35214055 4.92996768 0 0 Z " fill="#F4F4F4" transform="translate(196,165)"/>
<path d="M0 0 C0.66 0.33 1.32 0.66 2 1 C2 1.66 2 2.32 2 3 C0.35 3.66 -1.3 4.32 -3 5 C-1.35 5.66 0.3 6.32 2 7 C0.68 8.65 -0.64 10.3 -2 12 C-1.34 12.33 -0.68 12.66 0 13 C-0.99 13.495 -0.99 13.495 -2 14 C-3.32 13.01 -4.64 12.02 -6 11 C-5.34 11 -4.68 11 -4 11 C-4.92591865 8.56537857 -4.92591865 8.56537857 -8.52734375 7.78125 C-9.99518535 7.34663023 -11.46537437 6.91988026 -12.9375 6.5 C-20.73584044 4.26415956 -20.73584044 4.26415956 -23 2 C-21.84242188 2.02320313 -20.68484375 2.04640625 -19.4921875 2.0703125 C-17.95313149 2.08908148 -16.41406845 2.10728046 -14.875 2.125 C-14.11445313 2.14175781 -13.35390625 2.15851563 -12.5703125 2.17578125 C-7.9234475 2.21584043 -4.41716662 1.59769856 0 0 Z " fill="#262626" transform="translate(242,139)"/>
<path d="M0 0 C0.66 0 1.32 0 2 0 C3.35278115 1.98689731 4.68568305 3.98745218 6 6 C6.66 6.33 7.32 6.66 8 7 C8.33 5.68 8.66 4.36 9 3 C10.32 6.3 11.64 9.6 13 13 C12.01 13.495 12.01 13.495 11 14 C10.21625 13.195625 9.4325 12.39125 8.625 11.5625 C6.28017144 9.01309583 6.28017144 9.01309583 4 8 C3.67 10.97 3.34 13.94 3 17 C2.67 17 2.34 17 2 17 C1.62875 15.63875 1.62875 15.63875 1.25 14.25 C-0.03981342 10.89648511 -1.31971042 9.32291764 -4 7 C-3.67 6.01 -3.34 5.02 -3 4 C-2.34 4.66 -1.68 5.32 -1 6 C-0.67 4.02 -0.34 2.04 0 0 Z " fill="#4E4E4E" transform="translate(193,158)"/>
<path d="M0 0 C1.33332095 2.6666419 0.67102033 4.16680303 0 7 C0.78375 6.21625 1.5675 5.4325 2.375 4.625 C3.91666667 3.08333333 5.45833333 1.54166667 7 0 C7.33 2.31 7.66 4.62 8 7 C8.66 5.68 9.32 4.36 10 3 C10.66 3 11.32 3 12 3 C11.42676569 6.86933162 9.61046448 9.15222057 7 12 C6.34 12 5.68 12 5 12 C4.67 10.35 4.34 8.7 4 7 C2.87043002 7.76412087 1.74651022 8.53659803 0.625 9.3125 C-0.00148437 9.74175781 -0.62796875 10.17101562 -1.2734375 10.61328125 C-3.26378845 12.06920339 -3.26378845 12.06920339 -5 15 C-6 13 -6 13 -5.29296875 10.72265625 C-4.74576172 9.40587891 -4.74576172 9.40587891 -4.1875 8.0625 C-3.83042969 7.18722656 -3.47335938 6.31195313 -3.10546875 5.41015625 C-2 3 -2 3 0 0 Z " fill="#2B2B2B" transform="translate(132,158)"/>
<path d="M0 0 C0.33 0.66 0.66 1.32 1 2 C-0.05416134 4.54117663 -1.1608793 6.97450324 -2.375 9.4375 C-5.23786752 15.3477558 -7.10457101 20.08023885 -7.5625 26.6875 C-7.64628906 27.86699219 -7.73007813 29.04648438 -7.81640625 30.26171875 C-7.87699219 31.16535156 -7.93757812 32.06898438 -8 33 C-8.33 33 -8.66 33 -9 33 C-9.33 29.7 -9.66 26.4 -10 23 C-10.99 23.66 -11.98 24.32 -13 25 C-12.75121094 24.50371094 -12.50242188 24.00742188 -12.24609375 23.49609375 C-11.21350687 21.42768305 -10.18599796 19.35691384 -9.16015625 17.28515625 C-8.46099242 15.87757689 -7.76177206 14.4700256 -7.0625 13.0625 C-6.54139648 12.00772461 -6.54139648 12.00772461 -6.00976562 10.93164062 C-4.14689583 7.18835989 -2.21678887 3.5510317 0 0 Z " fill="#313131" transform="translate(153,215)"/>
<path d="M0 0 C2.97 0 5.94 0 9 0 C9.33 0.99 9.66 1.98 10 3 C9.67 3.33 9.34 3.66 9 4 C11.97 4.495 11.97 4.495 15 5 C15 5.99 15 6.98 15 8 C7.375 9 7.375 9 4 9 C2.3125 7 2.3125 7 1 5 C2.65 4.01 4.3 3.02 6 2 C3.03 1.505 3.03 1.505 0 1 C0 0.67 0 0.34 0 0 Z " fill="#373737" transform="translate(101,152)"/>
<path d="M0 0 C0.33 0 0.66 0 1 0 C1.66 3.3 2.32 6.6 3 10 C3.99 10 4.98 10 6 10 C5.52354792 14.28806873 4.34097516 16.26647487 1 19 C0.34 19 -0.32 19 -1 19 C-0.90460938 18.31292969 -0.80921875 17.62585938 -0.7109375 16.91796875 C-0.60007813 16.01691406 -0.48921875 15.11585938 -0.375 14.1875 C-0.25898438 13.29417969 -0.14296875 12.40085938 -0.0234375 11.48046875 C0.23500743 8.74309609 0.23500743 8.74309609 -2 6 C-1.125 2.8125 -1.125 2.8125 0 0 Z " fill="#DEDEDE" transform="translate(136,164)"/>
<path d="M0 0 C-1.3697164 3.99500618 -3.25722422 6.80009492 -6 10 C-6.66 9.67 -7.32 9.34 -8 9 C-7.67 8.34 -7.34 7.68 -7 7 C-7.99 7.495 -7.99 7.495 -9 8 C-10.87379605 8.07033769 -12.75001102 8.0843022 -14.625 8.0625 C-15.62789063 8.05347656 -16.63078125 8.04445312 -17.6640625 8.03515625 C-18.43492188 8.02355469 -19.20578125 8.01195312 -20 8 C-20 7.67 -20 7.34 -20 7 C-19.3709375 6.91363281 -18.741875 6.82726562 -18.09375 6.73828125 C-12.40189607 5.80392571 -8.30817951 4.36604531 -3.59375 1.0234375 C-2 0 -2 0 0 0 Z " fill="#1D1D1D" transform="translate(128,151)"/>
<path d="M0 0 C0.66 4.29 1.32 8.58 2 13 C-3.62126246 8.69435216 -3.62126246 8.69435216 -5.125 5.9375 C-5 4 -5 4 -3.125 1.75 C-1 0 -1 0 0 0 Z " fill="#EAEAEA" transform="translate(195,170)"/>
<path d="M0 0 C3.59634744 3.49359465 6.83451967 7.11098131 10 11 C7.26298813 9.98339559 4.86436009 8.91603244 2.375 7.375 C0.02467224 5.74948186 0.02467224 5.74948186 -3 6 C-2 4 -1 2 0 0 Z " fill="#D6D6D6" transform="translate(64,89)"/>
<path d="M0 0 C0.44730469 0.40992187 0.89460937 0.81984375 1.35546875 1.2421875 C4.73744485 4.25640074 7.579668 6.66050545 12 8 C10.35 9.32 8.7 10.64 7 12 C0.29612756 4.88610478 0.29612756 4.88610478 0 0 Z " fill="#DFDFDF" transform="translate(149,82)"/>
<path d="M0 0 C0.33 0 0.66 0 1 0 C0.59060025 6.76215448 -0.56953809 12.67162748 -3 19 C-3.33 19 -3.66 19 -4 19 C-3.59060025 12.23784552 -2.43046191 6.32837252 0 0 Z " fill="#292929" transform="translate(159,223)"/>
<path d="M0 0 C1.98 0.99 3.96 1.98 6 3 C4.85546875 5.015625 4.85546875 5.015625 3 7 C0.30078125 7.171875 0.30078125 7.171875 -2.6875 6.75 C-3.68136719 6.62109375 -4.67523438 6.4921875 -5.69921875 6.359375 C-6.45847656 6.24078125 -7.21773437 6.1221875 -8 6 C-8 5.34 -8 4.68 -8 4 C-5.03 4 -2.06 4 1 4 C0.67 2.68 0.34 1.36 0 0 Z " fill="#151515" transform="translate(224,154)"/>
<path d="M0 0 C1.7936743 1.1217963 3.5848773 2.24754483 5.375 3.375 C6.37273437 4.00148437 7.37046875 4.62796875 8.3984375 5.2734375 C11 7 11 7 13 9 C9.28400809 9.20086443 8.22791555 9.1519437 5 7 C4.01 7.495 4.01 7.495 3 8 C0.4345406 5.4345406 0.45953913 3.52313332 0 0 Z " fill="#151515" transform="translate(199,156)"/>
<path d="M0 0 C1.67542976 0.28604898 3.34385343 0.61781233 5 1 C3.68 2.65 2.36 4.3 1 6 C1.66 6.33 2.32 6.66 3 7 C2.01 7.495 2.01 7.495 1 8 C-0.32 7.01 -1.64 6.02 -3 5 C-2.34 5 -1.68 5 -1 5 C-2.25541557 2.48916886 -3.50063488 2.12874554 -6 1 C-4.7934375 1.0309375 -4.7934375 1.0309375 -3.5625 1.0625 C-1.06645115 1.29633621 -1.06645115 1.29633621 0 0 Z " fill="#505050" transform="translate(239,145)"/>
<path d="M0 0 C1.32 0 2.64 0 4 0 C1.82926829 6.51219512 1.82926829 6.51219512 -1.125 8.25 C-1.74375 8.4975 -2.3625 8.745 -3 9 C-2.66666667 7.66666667 -2.33333333 6.33333333 -2 5 C-1.7525 3.9171875 -1.7525 3.9171875 -1.5 2.8125 C-1 1 -1 1 0 0 Z " fill="#D6D6D5" transform="translate(116,202)"/>
<path d="M0 0 C2.17854707 3.2678206 3.49760034 6.38058265 5 10 C4.01 10.495 4.01 10.495 3 11 C2.21625 10.195625 1.4325 9.39125 0.625 8.5625 C-1.71982856 6.01309583 -1.71982856 6.01309583 -4 5 C-4 4.34 -4 3.68 -4 3 C-2.68 3.33 -1.36 3.66 0 4 C0 2.68 0 1.36 0 0 Z " fill="#262626" transform="translate(201,161)"/>
<path d="M0 0 C0.66 0.33 1.32 0.66 2 1 C2 4.59857954 1.04169485 6.09451118 -1 9 C-1.66 9 -2.32 9 -3 9 C-3.36923077 3.46153846 -3.36923077 3.46153846 -1.5 1.125 C-1.005 0.75375 -0.51 0.3825 0 0 Z " fill="#E1E1E0" transform="translate(120,209)"/>
<path d="M0 0 C1.32 0 2.64 0 4 0 C5.76462683 3.08809695 6 4.23312136 6 8 C5.34 8 4.68 8 4 8 C4 7.34 4 6.68 4 6 C3.01 5.67 2.02 5.34 1 5 C0.67 3.35 0.34 1.7 0 0 Z " fill="#B3B3B3" transform="translate(214,204)"/>
<path d="M0 0 C2.40072955 2.88087546 4.47291037 5.56404834 6 9 C0.33846154 7.52307692 0.33846154 7.52307692 -1.375 4.875 C-1.58125 4.25625 -1.7875 3.6375 -2 3 C-1.34 3 -0.68 3 0 3 C0 2.01 0 1.02 0 0 Z " fill="#DBDBDB" transform="translate(206,177)"/>
<path d="M0 0 C0.66 0 1.32 0 2 0 C1.42676569 3.86933162 -0.38953552 6.15222057 -3 9 C-3.66 9 -4.32 9 -5 9 C-5 7.02 -5 5.04 -5 3 C-4.67 3.66 -4.34 4.32 -4 5 C-2.29159719 3.36587557 -1.06546953 2.13093906 0 0 Z " fill="#2C2C2C" transform="translate(142,161)"/>
<path d="M0 0 C2.97 0 5.94 0 9 0 C9.33 0.99 9.66 1.98 10 3 C9.67 3.33 9.34 3.66 9 4 C11.97 4.495 11.97 4.495 15 5 C15 5.33 15 5.66 15 6 C12.03 6 9.06 6 6 6 C6 4.68 6 3.36 6 2 C3.03 1.505 3.03 1.505 0 1 C0 0.67 0 0.34 0 0 Z " fill="#575757" transform="translate(101,152)"/>
<path d="M0 0 C0 0.66 0 1.32 0 2 C-3.4766338 4.14336161 -6.21229195 4.21277626 -10.25 4.125 C-11.32765625 4.10695312 -12.4053125 4.08890625 -13.515625 4.0703125 C-14.33546875 4.04710937 -15.1553125 4.02390625 -16 4 C-16 3.67 -16 3.34 -16 3 C-15.22914063 2.86722656 -14.45828125 2.73445312 -13.6640625 2.59765625 C-12.66117188 2.42105469 -11.65828125 2.24445313 -10.625 2.0625 C-9.62726563 1.88847656 -8.62953125 1.71445313 -7.6015625 1.53515625 C-0.13868613 0 -0.13868613 0 0 0 Z " fill="#090909" transform="translate(238,148)"/>
<path d="M0 0 C0.66 0.33 1.32 0.66 2 1 C0.90398831 2.00893131 -0.20213918 3.00688225 -1.3125 4 C-2.23482422 4.8353125 -2.23482422 4.8353125 -3.17578125 5.6875 C-5 7 -5 7 -8 7 C-6.89300099 3.78970286 -5.98396175 2.99031023 -3 1.1875 C-1.515 0.5996875 -1.515 0.5996875 0 0 Z " fill="#252525" transform="translate(118,147)"/>
<path d="M0 0 C0 0.66 0 1.32 0 2 C-6.435 2.495 -6.435 2.495 -13 3 C-10.85642985 0.85642985 -9.92072889 0.52040399 -7.0625 -0.1875 C-6.37285156 -0.36667969 -5.68320312 -0.54585938 -4.97265625 -0.73046875 C-3 -1 -3 -1 0 0 Z " fill="#343434" transform="translate(276,121)"/>
<path d="M0 0 C3.87294449 1.15141593 7.40877243 3.16262776 11 5 C7.22134307 6.25955231 5.96588214 5.48087189 2.3125 4.0625 C1.31863281 3.68222656 0.32476562 3.30195312 -0.69921875 2.91015625 C-1.45847656 2.60980469 -2.21773437 2.30945313 -3 2 C-2.01 1.34 -1.02 0.68 0 0 Z " fill="#333333" transform="translate(53,99)"/>
<path d="M0 0 C2 1 2 1 3 3 C1.23358317 3.6987693 -0.53832664 4.38366583 -2.3125 5.0625 C-3.79169922 5.63677734 -3.79169922 5.63677734 -5.30078125 6.22265625 C-8 7 -8 7 -11 6 C-9.21385682 4.96953278 -7.42089982 3.95086764 -5.625 2.9375 C-4.62726563 2.36902344 -3.62953125 1.80054687 -2.6015625 1.21484375 C-1.74304688 0.81394531 -0.88453125 0.41304688 0 0 Z " fill="#272727" transform="translate(279,98)"/>
<path d="M0 0 C0.99 0 1.98 0 3 0 C4.6875 2.5 4.6875 2.5 6 5 C3.69 5 1.38 5 -1 5 C-0.67 3.35 -0.34 1.7 0 0 Z " fill="#2C2C2C" transform="translate(211,161)"/>
<path d="M0 0 C2 1 2 1 3.125 4.0625 C3.41375 5.031875 3.7025 6.00125 4 7 C3.01 7.495 3.01 7.495 2 8 C1.34 8.99 0.68 9.98 0 11 C0 7.37 0 3.74 0 0 Z " fill="#E4E4E4" transform="translate(18,44)"/>
<path d="M0 0 C1.485 0.99 1.485 0.99 3 2 C3 2.66 3 3.32 3 4 C3.66 4 4.32 4 5 4 C5.33 3.34 5.66 2.68 6 2 C6 3.98 6 5.96 6 8 C1.3125 4.38671875 1.3125 4.38671875 0 3 C0 2.01 0 1.02 0 0 Z " fill="#0D0D0D" transform="translate(189,162)"/>
<path d="M0 0 C0.33 0.66 0.66 1.32 1 2 C0.06421005 4.35981813 -0.93347808 6.69631264 -2 9 C-2.99 7.68 -3.98 6.36 -5 5 C-3.35 3.35 -1.7 1.7 0 0 Z " fill="#C5C5C5" transform="translate(270,75)"/>
<path d="M0 0 C0.33 0 0.66 0 1 0 C1 2.64 1 5.28 1 8 C0.67 7.34 0.34 6.68 0 6 C-1.32 6.33 -2.64 6.66 -4 7 C-2.68 4.69 -1.36 2.38 0 0 Z " fill="#151515" transform="translate(138,158)"/>
<path d="M0 0 C0.33 0 0.66 0 1 0 C1.33 3.63 1.66 7.26 2 11 C0.68 9.68 -0.64 8.36 -2 7 C-1.34 4.69 -0.68 2.38 0 0 Z " fill="#C9C9C9" transform="translate(136,164)"/>
<path d="M0 0 C0 0.66 0 1.32 0 2 C-3.3 2 -6.6 2 -10 2 C-3.6 -1.2 -3.6 -1.2 0 0 Z " fill="#343433" transform="translate(240,122)"/>
<path d="M0 0 C0.33 0.66 0.66 1.32 1 2 C1.66 2.33 2.32 2.66 3 3 C3 3.66 3 4.32 3 5 C1.824375 5.4640625 1.824375 5.4640625 0.625 5.9375 C-1.92330128 6.92875038 -1.92330128 6.92875038 -4 8 C-2.66666667 5.33333333 -1.33333333 2.66666667 0 0 Z " fill="#D8D8D8" transform="translate(267,101)"/>
<path d="M0 0 C0.33 0 0.66 0 1 0 C0.67 3.3 0.34 6.6 0 10 C-0.66 9.34 -1.32 8.68 -2 8 C-1.69347955 5.0574037 -1.32728846 2.65457692 0 0 Z " fill="#727271" transform="translate(159,223)"/>
</svg>
