<?xml version="1.0" encoding="UTF-8"?>
<svg version="1.1" xmlns="http://www.w3.org/2000/svg" width="325" height="316">
<path d="M0 0 C0.70962891 0.54527344 0.70962891 0.54527344 1.43359375 1.1015625 C3.60791651 2.75455641 5.80170672 4.37903627 8 6 C8.99386719 6.75410156 8.99386719 6.75410156 10.0078125 7.5234375 C15.73514711 11.63927872 21.90564668 14.11307781 28.4453125 16.609375 C32.45346425 18.1773992 36.20193004 19.98469757 40 22 C40 19.69 40 17.38 40 15 C40.928125 15.825 41.85625 16.65 42.8125 17.5 C45.94409729 20.21064938 49.22367537 22.57636396 52.625 24.9375 C60.77387886 30.86497215 63.07583544 35.41818911 65.26171875 45.1875 C66.5012063 49.90935733 68.45441769 52.67521516 72.1875 55.875 C76.17256263 57.46902505 79.77376685 57.85594596 84 57 C87.06724457 54.68743996 87.06724457 54.68743996 89 52 C87.515 51.01 87.515 51.01 86 50 C86.61875 49.2575 87.2375 48.515 87.875 47.75 C89.60437281 45.51198812 90.86106661 43.56260013 92 41 C90.35 41.33 88.7 41.66 87 42 C87.40992188 41.45730469 87.81984375 40.91460937 88.2421875 40.35546875 C88.78101563 39.64003906 89.31984375 38.92460938 89.875 38.1875 C90.40867187 37.47980469 90.94234375 36.77210937 91.4921875 36.04296875 C92.70814781 34.39543703 93.86416141 32.70375789 95 31 C92.69 30.67 90.38 30.34 88 30 C88.33 29.34 88.66 28.68 89 28 C91.3140622 27.26924352 93.64828869 26.59861742 96 26 C95.07767578 25.61908203 95.07767578 25.61908203 94.13671875 25.23046875 C93.32847656 24.88628906 92.52023438 24.54210937 91.6875 24.1875 C90.88699219 23.85105469 90.08648437 23.51460937 89.26171875 23.16796875 C87.03484255 22.01799296 85.65012233 20.86373039 84 19 C84.33 18.34 84.66 17.68 85 17 C85.680625 17.309375 86.36125 17.61875 87.0625 17.9375 C90.36965912 19.13370649 93.51545878 19.59005397 97 20 C96.0925 19.505 95.185 19.01 94.25 18.5 C90.32587455 15.91491262 88.59411369 12.33223838 87 8 C87 7.34 87 6.68 87 6 C87.66 6 88.32 6 89 6 C89.70125 6.928125 90.4025 7.85625 91.125 8.8125 C94.1522848 12.65796988 97.39116747 13.5939155 102 15 C101.505 14.236875 101.01 13.47375 100.5 12.6875 C99 10 99 10 99 7 C99.66 7 100.32 7 101 7 C101.67804688 7.77214844 102.35609375 8.54429688 103.0546875 9.33984375 C106.85524001 12.77243826 110.22112023 13.47231164 115.125 14.5625 C123.50930723 16.44863589 123.50930723 16.44863589 125.80078125 19.0234375 C126.19652344 19.67570312 126.59226562 20.32796875 127 21 C128.94950732 22.20128909 128.94950732 22.20128909 131.0625 23.0625 C134.29412908 24.46467798 134.9309138 24.8963707 137 28 C137.125 31.1875 137.125 31.1875 137 34 C136.01 33.67 135.02 33.34 134 33 C129.72571011 32.58377701 126.07145734 32.56685767 122.0625 34.1875 C119.540881 36.40346821 118.74502737 37.72187957 118 41 C118.11213935 47.16766402 120.04227216 49.63635136 124 54 C124 54.66 124 55.32 124 56 C127.48546176 57.74273088 131.1892296 57.44282275 135 57 C138.92286933 55.68737642 141.47848724 53.90524314 143.58203125 50.25390625 C144.98101099 47.04357534 145.9230811 43.94554083 146.8125 40.5625 C149.71560109 30.98335371 154.5014048 27.13931337 162.65625 21.7109375 C165.71924122 19.47495391 167.72372531 17.01055684 170 14 C170.33 14 170.66 14 171 14 C170.67 16.64 170.34 19.28 170 22 C191.15318747 13.65476006 191.15318747 13.65476006 209 0 C210 3 210 3 209.1015625 5.34765625 C202.29641563 17.85976491 193.69632447 25.34336993 182 33 C180.65697067 33.98693972 179.31901902 34.98119354 178 36 C181.06517128 34.7355438 184.12662119 33.46230802 187.1875 32.1875 C188.05181641 31.83107422 188.91613281 31.47464844 189.80664062 31.10742188 C193.35930422 29.62374244 196.69589049 28.18564594 199.98828125 26.17578125 C200.65214844 25.78777344 201.31601562 25.39976563 202 25 C202.66 25.33 203.32 25.66 204 26 C196.96575234 36.25827783 189.30853005 41.85461883 178 47 C184.43974581 46.37679879 190.67572401 45.35991738 197 44 C190.06912618 53.10989855 183.04271779 56.37735453 172 59 C177.28 59.33 182.56 59.66 188 60 C181.71342733 66.28657267 175.51440519 67.543814 167 69 C168.06541016 69.18175781 168.06541016 69.18175781 169.15234375 69.3671875 C170.07144531 69.53476563 170.99054688 69.70234375 171.9375 69.875 C172.85402344 70.03742188 173.77054688 70.19984375 174.71484375 70.3671875 C175.46894531 70.57601562 176.22304687 70.78484375 177 71 C177.33 71.66 177.66 72.32 178 73 C170.896944 75.82107189 164.38431479 77.43161299 156.9375 75 C156.298125 74.67 155.65875 74.34 155 74 C157.27436911 76.27436911 160.36074072 77.80939387 163.06640625 79.52734375 C164.02353516 80.25630859 164.02353516 80.25630859 165 81 C165 81.66 165 82.32 165 83 C158.76295258 83.38186005 154.59591252 82.79795626 149 80 C148.01 79.67 147.02 79.34 146 79 C147.98 82.3 149.96 85.6 152 89 C147.09793319 88.01958664 144.966275 86.82046222 141 84 C140.34 83.67 139.68 83.34 139 83 C141.23563473 86.3534521 142.29405873 86.81616408 145.9375 88.25 C146.81277344 88.60578125 147.68804687 88.9615625 148.58984375 89.328125 C151.11207933 90.27339724 151.11207933 90.27339724 154 89 C151.525 86.03 151.525 86.03 149 83 C153.30362948 80.84818526 158.63431106 82.56949513 163 84 C165.72767576 86.02932504 168.00603127 88.25608038 170.3984375 90.66796875 C174.68901931 94.51403083 179.76007509 96.70415661 185 99 C185 99.66 185 100.32 185 101 C177.31648601 103.14102412 170.2365926 102.24492614 163 99 C160.89456826 97.76852106 158.97852303 96.4344292 157 95 C156.67 95 156.34 95 156 95 C159.28157862 100.17609824 162.45924219 104.85989729 167 109 C159.20273264 108.71121232 152.90625902 105.69349981 147.20703125 100.3046875 C146.60955078 99.65886719 146.60955078 99.65886719 146 99 C147.16763633 102.95199987 148.46414855 105.7725527 151 109 C151 109.66 151 110.32 151 111 C145.54814227 109.6702786 141.7737453 107.06552973 138 103 C137.34 101.68 136.68 100.36 136 99 C136.33 101.97 136.66 104.94 137 108 C132.44475412 106.86118853 132.16581032 106.34352558 129.8125 102.5625 C129.04873047 101.35787109 129.04873047 101.35787109 128.26953125 100.12890625 C127 98 127 98 126 96 C124.57748415 98.25928988 123.95518363 99.54223277 124.21875 102.234375 C125.52644123 106.86360194 128.1194593 110.79141306 130.50390625 114.94140625 C132 118 132 118 132 122 C140.37471952 127.12283375 146.28612657 128.89454978 156 127 C158.15305957 130.85756507 159.39253254 133.55129785 159 138 C157.35 136.68 155.7 135.36 154 134 C153.67 134.33 153.34 134.66 153 135 C153.804375 136.11375 153.804375 136.11375 154.625 137.25 C155.07875 138.1575 155.5325 139.065 156 140 C155.1875 142.3125 155.1875 142.3125 154 144 C153.195625 142.88625 153.195625 142.88625 152.375 141.75 C149.81184947 138.7821415 147.42670823 136.89562583 144 135 C143.01 135.33 142.02 135.66 141 136 C140.67 137.98 140.34 139.96 140 142 C138.0625 141.3125 138.0625 141.3125 136 140 C135.0625 137.6875 135.0625 137.6875 135 135 C136.4375 132.1875 136.4375 132.1875 138 130 C137.0925 129.71125 136.185 129.4225 135.25 129.125 C132.67797092 128.23468224 130.38653234 127.28505587 128 126 C127.34 126.66 126.68 127.32 126 128 C123.69 125.69 121.38 123.38 119 121 C124.14287908 130.50653405 130.15360605 136.8254658 138.6875 143.375 C143.86245086 147.53652298 146.99780122 151.63817483 149 158 C149.3125 161.625 149.3125 161.625 149 164 C148.34 164 147.68 164 147 164 C145.78247619 162.5192278 144.56736628 161.03626023 143.375 159.53515625 C141.5313915 157.47680926 139.44163138 156.25569614 137 155 C137.350625 156.134375 137.70125 157.26875 138.0625 158.4375 C139.20152943 163.00988956 139.33802109 167.44713628 138 172 C136.44921875 173.76171875 136.44921875 173.76171875 135 175 C134.84144531 174.41992188 134.68289062 173.83984375 134.51953125 173.2421875 C132.86533265 167.70382093 130.73623108 164.46525178 127 160 C125.80069357 157.39419799 124.77954855 154.76851631 123.796875 152.07421875 C123.17733923 150.04184442 123.17733923 150.04184442 122 149 C122.3609375 149.70382813 122.721875 150.40765625 123.09375 151.1328125 C126.85865563 159.14369504 128.33415857 166.17402794 127 175 C125.68971365 178.59651012 124.07308191 181.78672305 122 185 C119.60549427 182.60549427 119.54571545 181.40903764 119 178.125 C118.42672428 174.69558272 117.63948229 172.06122084 116 169 C115.67 168.01 115.34 167.02 115 166 C115.0928125 167.670625 115.0928125 167.670625 115.1875 169.375 C115.13768185 178.80723727 111.07450858 186.28149181 106 194 C99.98208288 189.01372582 96.68293674 182.31695778 95.46484375 174.6171875 C95.22333701 171.73951567 95.05541815 168.88678157 95 166 C94.18309823 168.22763988 93.37138128 170.4569486 92.5625 172.6875 C92.21735352 173.62625977 92.21735352 173.62625977 91.86523438 174.58398438 C90.61946333 178.03242308 89.60195551 181.3813479 89 185 C83.69701251 178.93944287 82.55583428 172.41307813 82.76171875 164.6328125 C83.07366716 161.18603831 83.84245935 158.25558307 85 155 C84.75765625 155.50789062 84.5153125 156.01578125 84.265625 156.5390625 C82.61511536 159.92895537 80.9823397 163.02522899 78.8125 166.125 C76.88182668 169.18744733 76.34026283 171.42724029 76 175 C75.01 174.67 74.02 174.34 73 174 C71.57926189 171.15852379 71.90575325 168.72659252 71.9375 165.5625 C71.94652344 164.40878906 71.95554687 163.25507813 71.96484375 162.06640625 C71.97644531 161.05449219 71.98804688 160.04257813 72 159 C72 158.01 72 157.02 72 156 C70.89326166 156.76713644 69.78972306 157.53889003 68.6875 158.3125 C67.76517578 158.95638672 67.76517578 158.95638672 66.82421875 159.61328125 C65.05354669 160.95929534 63.53261991 162.39192803 62 164 C61.56677181 157.82649826 62.29822047 154.12929458 66 149 C68.17630996 146.60959886 70.52204885 144.45815366 72.9375 142.3125 C73.54529297 141.75755859 74.15308594 141.20261719 74.77929688 140.63085938 C77.37953305 138.27185331 79.9818291 136.01398748 82.765625 133.87109375 C85.03167366 131.97347608 86.33159091 130.2887013 87.8125 127.75 C88.23144531 127.04359375 88.65039062 126.3371875 89.08203125 125.609375 C89.38496094 125.07828125 89.68789062 124.5471875 90 124 C88.01508358 124.26676204 88.01508358 124.26676204 86 125 C85.505 126.485 85.505 126.485 85 128 C83.515 127.01 83.515 127.01 82 126 C80.51719804 126.78483659 79.0388502 127.57809334 77.5625 128.375 C76.73878906 128.81585938 75.91507812 129.25671875 75.06640625 129.7109375 C72.86533422 130.83418559 72.86533422 130.83418559 72 133 C72.99 133.33 73.98 133.66 75 134 C75.9375 135.8125 75.9375 135.8125 76 138 C74.0625 140.25 74.0625 140.25 72 142 C71.34 141.67 70.68 141.34 70 141 C70 139.35 70 137.7 70 136 C67.33438378 135.01273473 66.09873015 134.9724474 63.3125 135.75 C60.67489954 136.83498273 60.67489954 136.83498273 60 140 C59.34 140 58.68 140 58 140 C57.67 141.32 57.34 142.64 57 144 C56.01 143.01 56.01 143.01 55 142 C55.375 138.9375 55.375 138.9375 56 136 C56 135.67 56 135.34 56 135 C53.525 135.99 53.525 135.99 51 137 C51.56874876 133.01875869 52.87654754 130.38727672 55 127 C55.75023437 127.13019531 56.50046875 127.26039063 57.2734375 127.39453125 C66.87499091 128.68844336 72.146761 126.23549267 80 121 C79.34 120.34 78.68 119.68 78 119 C78.86625 117.44539063 78.86625 117.44539063 79.75 115.859375 C80.50043901 114.4898238 81.25041488 113.12001875 82 111.75 C82.57234375 110.72712891 82.57234375 110.72712891 83.15625 109.68359375 C83.5171875 109.01972656 83.878125 108.35585937 84.25 107.671875 C84.58515625 107.0644043 84.9203125 106.45693359 85.265625 105.83105469 C86.24816265 103.7100488 86.24816265 103.7100488 86 100 C85.34 99.01 84.68 98.02 84 97 C83.69707031 97.62648438 83.39414063 98.25296875 83.08203125 98.8984375 C79.61749571 105.65694683 79.61749571 105.65694683 76.1875 107.5625 C75.1046875 107.7790625 75.1046875 107.7790625 74 108 C74.33 104.7 74.66 101.4 75 98 C74.484375 98.86625 73.96875 99.7325 73.4375 100.625 C69.628882 106.31091552 65.7462937 109.65074126 59 111 C60.98 107.04 62.96 103.08 65 99 C63.35 100.32 61.7 101.64 60 103 C54.75995799 106.79066869 50.54251959 109 44 109 C44 108.34 44 107.68 44 107 C45.22795623 105.86829687 46.50851257 104.79318994 47.8125 103.75 C51.27826068 100.82403921 53.32374125 98.29541305 55 94 C54.43152344 94.40992188 53.86304688 94.81984375 53.27734375 95.2421875 C44.9930554 101.02321009 38.06812258 102.68937782 28 102 C26.515 101.505 26.515 101.505 25 101 C25 100.34 25 99.68 25 99 C25.556875 98.78085938 26.11375 98.56171875 26.6875 98.3359375 C33.53097692 95.4921954 39.36386696 92.01078894 44.28125 86.39453125 C47.6432122 83.4334927 49.83888761 83.11409824 54.25 82.625 C55.49265625 82.47289062 56.7353125 82.32078125 58.015625 82.1640625 C59.00046875 82.10992187 59.9853125 82.05578125 61 82 C61.33 82.33 61.66 82.66 62 83 C62.99 81.35 63.98 79.7 65 78 C64.38253906 78.3609375 63.76507813 78.721875 63.12890625 79.09375 C57.03113909 82.43499228 52.93730602 83.55946016 46 83 C46 82.34 46 81.68 46 81 C47.96875 79.4921875 47.96875 79.4921875 50.5 77.875 C51.3353125 77.33617187 52.170625 76.79734375 53.03125 76.2421875 C53.6809375 75.83226562 54.330625 75.42234375 55 75 C53.74896484 75.16048828 53.74896484 75.16048828 52.47265625 75.32421875 C45.20462768 76.09847609 39.69441796 76.06178806 33 73 C33.33 72.34 33.66 71.68 34 71 C36.28515625 70.3671875 36.28515625 70.3671875 39.0625 69.875 C39.98160156 69.70742187 40.90070313 69.53984375 41.84765625 69.3671875 C42.55792969 69.24601562 43.26820312 69.12484375 44 69 C42.7315625 68.76216797 42.7315625 68.76216797 41.4375 68.51953125 C34.26952465 67.04520905 28.88824774 65.38732184 23 61 C23 60.67 23 60.34 23 60 C31.415 59.505 31.415 59.505 40 59 C38.22625 58.62875 36.4525 58.2575 34.625 57.875 C26.37770484 55.80830192 18.75837561 52.35385321 14 45 C16.8947296 43.5526352 18.54185159 44.52420715 21.625 45.375 C26.44226003 46.64606018 31.04609245 47.52366274 36 48 C35.40574219 47.79246094 34.81148437 47.58492187 34.19921875 47.37109375 C24.00506656 43.58197653 14.11349047 38.3240342 8 29 C7.63844437 27.67404132 7.30101574 26.34099903 7 25 C8.11117187 25.54269531 9.22234375 26.08539063 10.3671875 26.64453125 C21.84827496 32.1969162 21.84827496 32.1969162 34 36 C33.26136719 35.59910156 32.52273437 35.19820312 31.76171875 34.78515625 C17.22901628 26.6416724 6.5208302 17.52303826 0 2 C0 1.34 0 0.68 0 0 Z M115 22 C115.99 23.485 115.99 23.485 117 25 C118.32 25 119.64 25 121 25 C121 24.34 121 23.68 121 23 C118.03 22.505 118.03 22.505 115 22 Z M71 82 C69.9739266 83.31337396 68.97272675 84.64664105 68 86 C68.33 86.33 68.66 86.66 69 87 C68.71269945 89.33944736 68.38063221 91.6739143 68 94 C69.32 93.34 70.64 92.68 72 92 C71.34 91.67 70.68 91.34 70 91 C70.66 88.03 71.32 85.06 72 82 C71.67 82 71.34 82 71 82 Z M60 84 C56.999467 87.07449747 56.999467 87.07449747 56 91 C57.44010481 90.74337755 58.8770687 90.46909179 60.3125 90.1875 C61.11300781 90.03667969 61.91351563 89.88585937 62.73828125 89.73046875 C65.39277984 89.06278164 65.39277984 89.06278164 68 86 C63.545 87.485 63.545 87.485 59 89 C59.66 87.35 60.32 85.7 61 84 C60.67 84 60.34 84 60 84 Z M77 84 C76.34 85.32 75.68 86.64 75 88 C75.99 88.33 76.98 88.66 78 89 C78 87.35 78 85.7 78 84 C77.67 84 77.34 84 77 84 Z M133 84 C132.67 86.31 132.34 88.62 132 91 C130.68 89.68 129.36 88.36 128 87 C129.26941497 90.91402949 130.51167694 92.79072873 134 95 C134 93.02 134 91.04 134 89 C134.66 89 135.32 89 136 89 C135.34 87.35 134.68 85.7 134 84 C133.67 84 133.34 84 133 84 Z M81 87 C80.34 88.65 79.68 90.3 79 92 C79.99 91.34 80.98 90.68 82 90 C81.67 89.01 81.34 88.02 81 87 Z M136 89 C137.62339805 90.70884005 139.29319053 92.37446717 141 94 C141.66 94 142.32 94 143 94 C142.67 92.35 142.34 90.7 142 89 C141.34 89.66 140.68 90.32 140 91 C138.68 90.34 137.36 89.68 136 89 Z M77 92 C77 92.99 77 93.98 77 95 C77.66 94.01 78.32 93.02 79 92 C78.34 92 77.68 92 77 92 Z M144 96 C145 98 145 98 145 98 Z M89 145 C90 147 90 147 90 147 Z M88 147 C89 149 89 149 89 149 Z M87 149 C88 151 88 151 88 151 Z M113 155 C114 159 114 159 114 159 Z M96 156 C97 159 97 159 97 159 Z " fill="#FCFCFC" transform="translate(61,75)"/>
<path d="M0 0 C0.66 0 1.32 0 2 0 C2.30550781 0.72703125 2.61101563 1.4540625 2.92578125 2.203125 C10.2851695 18.37304847 23.81455654 29.68740723 39.3125 37.875 C45.87592548 41.61144088 49.70372158 47.97767288 54 54 C55.32174852 55.67586885 56.65095068 57.34602857 58 59 C53.69235185 57.43358249 49.93828536 55.31663844 46 53 C49.51513 61.09493879 53.95313378 69.01059203 61.75 73.62890625 C62.4925 74.08136719 63.235 74.53382812 64 75 C64 75.66 64 76.32 64 77 C60.37 76.01 56.74 75.02 53 74 C57.09142388 79.93256463 61.08461837 83.94065916 67 88 C68.33723699 88.99477386 69.67164226 89.99340003 71 91 C68.03 91 65.06 91 62 91 C65.86993394 95.35367568 69.73429681 97.60269179 75 100 C76.33564811 100.66201689 77.66964277 101.32741405 79 102 C77 104 77 104 74 105 C80.63729312 108.52350129 86.513226 109.7201206 94 110 C91.8092961 112.29113732 89.90542812 113.6975667 87 115 C87.99 115.99 88.98 116.98 90 118 C78.87192499 124.74897142 67.96396319 126.97748309 54.94921875 124.39453125 C51.08574809 123.26697018 47.57138554 121.85421822 44 120 C44 119.34 44 118.68 44 118 C44.84820312 117.91363281 45.69640625 117.82726562 46.5703125 117.73828125 C55.70841953 116.64371678 63.46797891 114.39724852 72 111 C71.15824219 111.15984375 70.31648438 111.3196875 69.44921875 111.484375 C54.40697345 113.73304587 40.9598798 110.98947136 28 103 C25.4327975 100.84042763 23.15695084 98.56707529 21 96 C23.8831671 94.55841645 25.42291339 95.56332767 28.5 96.4375 C36.98875275 98.53348833 45.30872742 98.2633719 54 98 C52.92685547 97.87044922 52.92685547 97.87044922 51.83203125 97.73828125 C34.79224465 95.33551703 21.3401198 87.96776052 10 75 C8.5313392 73.04455927 7.26013881 71.10023135 6 69 C6.495 68.01 6.495 68.01 7 67 C7.92039062 67.53109375 8.84078125 68.0621875 9.7890625 68.609375 C20.6798386 74.74422704 31.38269584 78.99061567 44 80 C43.26136719 79.70867187 42.52273437 79.41734375 41.76171875 79.1171875 C22.18835125 71.20825374 8.70631669 61.18270332 -0.0546875 41.54296875 C-0.98749825 39.03363073 -1.5551723 36.63584075 -2 34 C-1.34 34 -0.68 34 0 34 C1.02649277 35.12525155 1.99587696 36.30282645 2.9375 37.5 C12.06884206 48.1532324 25.51537288 55.47483098 39 59 C38.39414062 58.6596875 37.78828125 58.319375 37.1640625 57.96875 C20.52597625 48.34425703 6.74275335 35.34564594 1.5625 16.3125 C0.20594287 10.70154881 -0.40342797 5.74884856 0 0 Z " fill="#FCFCFC" transform="translate(17,42)"/>
<path d="M0 0 C0.66 0 1.32 0 2 0 C1.73578329 9.04942225 0.78735484 16.741123 -3 25 C-3.59941406 26.33804688 -3.59941406 26.33804688 -4.2109375 27.703125 C-10.92585519 41.28821858 -21.71752214 49.74825079 -34 58 C-34.33 58.33 -34.66 58.66 -35 59 C-21.00841869 53.22430332 -9.46259821 47.24729308 1 36 C1.99554572 34.99556548 2.99373059 33.99369104 4 33 C2.41396518 46.25041749 -6.6389272 58.6018617 -16.5 67.125 C-22.11889086 71.44248891 -28.37802184 74.413357 -34.75390625 77.43359375 C-37.78751215 78.67766847 -37.78751215 78.67766847 -39 80 C-27.61758259 77.78139322 -18.1556993 74.64051151 -8 69 C-6.67060606 68.32551207 -5.33911859 67.65496841 -4 67 C-5.52956761 72.43846263 -9.17569496 76.0286063 -13 80 C-13.6496875 80.67546875 -14.299375 81.3509375 -14.96875 82.046875 C-25.28015921 91.97353014 -37.19867241 95.970393 -51 98 C-39.85786387 98.36822237 -29.85471947 97.65442921 -19 95 C-25.6194457 104.00980109 -34.88159819 109.21703982 -45.765625 111.578125 C-51.84705756 112.37135533 -57.88400521 112.20462436 -64 112 C-64.99 112 -65.98 112 -67 112 C-58.78130226 115.45520762 -50.84337605 117.01883711 -42 118 C-42 118.66 -42 119.32 -42 120 C-43.58199631 120.64910154 -45.16565724 121.29414694 -46.75 121.9375 C-48.07257813 122.47697266 -48.07257813 122.47697266 -49.421875 123.02734375 C-60.48805448 127.20231146 -72.34084602 125.58494221 -83 121 C-84.34088237 120.3486501 -85.67736457 119.68764652 -87 119 C-86.67 118.01 -86.34 117.02 -86 116 C-85.01 115.505 -85.01 115.505 -84 115 C-86.31 113.68 -88.62 112.36 -91 111 C-91 110.67 -91 110.34 -91 110 C-90.31035156 109.97421875 -89.62070313 109.9484375 -88.91015625 109.921875 C-82.16219932 109.51459091 -76.96924004 108.16885582 -71 105 C-72.98 104.34 -74.96 103.68 -77 103 C-77 102.34 -77 101.68 -77 101 C-76.443125 100.85304688 -75.88625 100.70609375 -75.3125 100.5546875 C-69.30328311 98.78846497 -64.64887351 96.23085491 -60 92 C-60 91.67 -60 91.34 -60 91 C-62.97 91 -65.94 91 -69 91 C-66.80231371 89.30947208 -64.64129184 87.78803609 -62.25 86.375 C-57.71646272 83.42238854 -54.47913482 79.07898565 -51 75 C-56.445 75.99 -56.445 75.99 -62 77 C-61.319375 76.319375 -60.63875 75.63875 -59.9375 74.9375 C-59.48117188 74.47472656 -59.02484375 74.01195313 -58.5546875 73.53515625 C-57.50201662 72.49570988 -56.42247223 71.48291118 -55.3203125 70.49609375 C-50.13448635 65.71360964 -47.10600863 60.2916585 -44 54 C-46.57236515 54.85745505 -48.78066217 55.8393529 -51.1875 57.0625 C-52.26064453 57.60583984 -52.26064453 57.60583984 -53.35546875 58.16015625 C-53.89816406 58.43730469 -54.44085938 58.71445313 -55 59 C-53.602659 55.88711162 -51.92976075 53.63104989 -49.625 51.125 C-47.51323669 48.82717825 -45.84890757 46.74503152 -44.25 44.046875 C-41.43723077 40.23791667 -38.42872547 38.44783627 -34.375 36.125 C-27.81687182 32.19546033 -21.76263129 28.05437493 -16 23 C-15.37996094 22.48566406 -14.75992188 21.97132812 -14.12109375 21.44140625 C-7.69216378 15.67406639 -3.81843775 7.6368755 0 0 Z " fill="#FCFCFC" transform="translate(313,42)"/>
<path d="M0 0 C2.64 0.33 5.28 0.66 8 1 C9.48389738 5.40525989 10.95207002 9.81239521 12.32421875 14.25390625 C19.17076808 36.11812527 30.01395061 54.59571094 46 71 C47.11375 72.24136719 47.11375 72.24136719 48.25 73.5078125 C58.31891237 84.3808394 71.4412921 92.2849341 84.3125 99.4375 C84.99900635 99.83332275 85.6855127 100.22914551 86.39282227 100.63696289 C89.56914423 102.32410107 91.45999035 103.09912886 95.04296875 102.44140625 C96.01878906 101.96574219 96.99460937 101.49007812 98 101 C99.670625 100.21109375 99.670625 100.21109375 101.375 99.40625 C115.53710794 92.0845162 127.54782241 83.04375471 139 72 C139.79019531 71.27296875 140.58039063 70.5459375 141.39453125 69.796875 C158.64775461 53.48034152 170.8610609 29.96357245 175.625 6.8125 C176.2265625 4.06640625 176.2265625 4.06640625 177 2 C180.366063 0.03646325 182.16777754 0 186 0 C184.70487084 24.1757443 170.6321523 50.05308669 155 68 C154.2678125 68.84175781 153.535625 69.68351562 152.78125 70.55078125 C150.55277484 73.06544757 148.2890756 75.54046132 146 78 C145.37609375 78.67804688 144.7521875 79.35609375 144.109375 80.0546875 C132.37713464 92.32917426 117.47771606 101.80497552 102.5 109.625 C101.84153076 109.98029785 101.18306152 110.3355957 100.50463867 110.70166016 C96.18229045 112.87857298 93.61541301 113.47436804 89 112 C85.91525458 110.66923785 82.95945865 109.15053849 80 107.5625 C79.16130371 107.11511475 78.32260742 106.66772949 77.45849609 106.20678711 C64.80357115 99.31452349 53.73097917 90.56549534 43 81 C42.22269531 80.30777344 41.44539063 79.61554688 40.64453125 78.90234375 C19.97960823 59.3666515 5.55966636 31.79833182 0 4 C0 2.68 0 1.36 0 0 Z " fill="#FBFBFB" transform="translate(73,169)"/>
<path d="M0 0 C2.09863281 0.88867188 2.09863281 0.88867188 4.203125 1.96875 C5.40594116 2.57130615 5.40594116 2.57130615 6.63305664 3.18603516 C7.49664795 3.61964355 8.36023926 4.05325195 9.25 4.5 C35.01946661 17.04723569 63.05364867 24.93164943 91 31 C91 33.97 91 36.94 91 40 C84.25 44 84.25 44 82 44 C82 42.35 82 40.7 82 39 C80.9790625 38.79246094 79.958125 38.58492187 78.90625 38.37109375 C61.88576021 34.80755326 45.19978434 30.00418192 28.8125 24.1875 C27.91192871 23.87143799 27.01135742 23.55537598 26.08349609 23.22973633 C21.3419694 21.48975394 17.01342356 19.52184788 12.66015625 16.953125 C4.08748795 11.56793513 4.08748795 11.56793513 -5.61914062 10.34814453 C-11.07010311 12.04062971 -15.9048979 14.79143875 -20.78369141 17.7109375 C-38.19286947 27.83656651 -67.70749471 39 -88 39 C-88 40.65 -88 42.3 -88 44 C-89.313702 43.3566152 -90.62592898 42.71021785 -91.9375 42.0625 C-92.66839844 41.70285156 -93.39929688 41.34320313 -94.15234375 40.97265625 C-96 40 -96 40 -97 39 C-97.04092937 36.66702567 -97.04241723 34.33294775 -97 32 C-90.6878613 29.78497608 -84.34236227 28.00765216 -77.86279297 26.34985352 C-54.28018465 20.30042816 -29.0565957 13.73485202 -8.26171875 0.67578125 C-4.55860135 -1.22677847 -3.84215094 -1.09278236 0 0 Z " fill="#FCFCFC" transform="translate(169,41)"/>
<path d="M0 0 C0.66 0.33 1.32 0.66 2 1 C0.02 3.97 0.02 3.97 -2 7 C-2.99 6.01 -3.98 5.02 -5 4 C-3.35 2.68 -1.7 1.36 0 0 Z " fill="#F5F7F6" transform="translate(263,100)"/>
</svg>
