<?xml version="1.0" encoding="UTF-8"?>
<svg xmlns="http://www.w3.org/2000/svg" xmlns:xlink="http://www.w3.org/1999/xlink" width="53px" height="40px" viewBox="0 0 52 40" version="1.1">
<g id="surface1">
<path style=" stroke:none;fill-rule:nonzero;fill:rgb(0%,0%,0%);fill-opacity:1;" d="M 0 19.996094 L 0 0 L 52 0 L 52 39.992188 L 0 39.992188 Z M 0 19.996094 "/>
<path style=" stroke:none;fill-rule:nonzero;fill:rgb(100%,100%,100%);fill-opacity:1;" d="M 0 19.996094 L 0 0 L 52 0 L 52 39.992188 L 0 39.992188 Z M 27.648438 34.035156 C 29.253906 33.183594 31.3125 31.890625 32.894531 30.738281 C 34.027344 29.914062 35.664062 28.632812 35.664062 28.570312 C 35.664062 28.550781 35.199219 28.652344 34.636719 28.789062 L 33.609375 29.042969 L 33.066406 29.445312 C 31.730469 30.425781 30.574219 31.21875 29.273438 32.03125 C 28.644531 32.425781 27.59375 33.027344 27.128906 33.261719 L 26.824219 33.410156 L 26.292969 33.121094 C 23.976562 31.882812 21.308594 30.042969 19.390625 28.359375 C 19.246094 28.234375 19.054688 28.109375 18.972656 28.082031 C 18.710938 27.996094 17.796875 27.804688 17.648438 27.804688 L 17.503906 27.804688 L 17.699219 28.011719 C 17.808594 28.125 18.140625 28.441406 18.445312 28.71875 C 20.222656 30.34375 22.222656 31.816406 24.441406 33.140625 C 25.261719 33.632812 26.742188 34.410156 26.851562 34.410156 C 26.902344 34.410156 27.257812 34.242188 27.648438 34.035156 Z M 26.730469 31.746094 L 26.957031 31.59375 L 27.269531 31.828125 C 27.441406 31.953125 27.59375 32.046875 27.609375 32.027344 C 27.625 32.015625 27.59375 31.835938 27.539062 31.636719 L 27.4375 31.269531 L 27.566406 31.152344 C 27.632812 31.089844 27.769531 30.976562 27.863281 30.898438 C 27.957031 30.820312 28.027344 30.742188 28.015625 30.734375 C 28.003906 30.722656 27.820312 30.695312 27.605469 30.675781 L 27.214844 30.640625 L 27.09375 30.292969 C 27.027344 30.097656 26.960938 29.933594 26.945312 29.917969 C 26.917969 29.886719 26.859375 30.019531 26.746094 30.363281 L 26.644531 30.664062 L 26.441406 30.667969 C 26.332031 30.667969 26.144531 30.683594 26.019531 30.699219 L 25.804688 30.730469 L 26.109375 30.972656 C 26.28125 31.105469 26.425781 31.222656 26.433594 31.226562 C 26.441406 31.234375 26.40625 31.394531 26.355469 31.589844 C 26.304688 31.785156 26.261719 31.96875 26.261719 32 C 26.261719 32.0625 26.261719 32.0625 26.726562 31.75 Z M 24.917969 31.132812 C 25.261719 31.386719 25.273438 31.386719 25.210938 31.148438 C 25.132812 30.894531 25.15625 30.828125 25.339844 30.695312 C 25.4375 30.621094 25.515625 30.550781 25.515625 30.527344 C 25.515625 30.507812 25.40625 30.484375 25.269531 30.476562 L 25.027344 30.460938 L 24.9375 30.226562 C 24.890625 30.09375 24.835938 30 24.816406 30.015625 C 24.792969 30.027344 24.746094 30.140625 24.707031 30.261719 L 24.628906 30.484375 L 24.371094 30.484375 C 24.230469 30.484375 24.113281 30.496094 24.113281 30.519531 C 24.113281 30.535156 24.191406 30.609375 24.289062 30.675781 C 24.472656 30.808594 24.484375 30.847656 24.425781 31.117188 C 24.402344 31.207031 24.394531 31.292969 24.40625 31.304688 C 24.421875 31.3125 24.519531 31.265625 24.632812 31.191406 C 24.816406 31.078125 24.84375 31.066406 24.921875 31.128906 Z M 28.875 31.195312 L 29.066406 31.054688 L 29.246094 31.179688 C 29.34375 31.246094 29.433594 31.292969 29.441406 31.28125 C 29.457031 31.273438 29.441406 31.167969 29.417969 31.050781 C 29.394531 30.929688 29.382812 30.832031 29.390625 30.824219 C 29.53125 30.734375 29.730469 30.558594 29.730469 30.527344 C 29.730469 30.507812 29.617188 30.484375 29.480469 30.476562 L 29.230469 30.460938 L 29.175781 30.265625 C 29.09375 29.964844 29.046875 29.957031 28.953125 30.226562 L 28.863281 30.460938 L 28.617188 30.476562 C 28.480469 30.484375 28.371094 30.507812 28.371094 30.523438 C 28.371094 30.546875 28.453125 30.617188 28.550781 30.691406 C 28.742188 30.824219 28.75 30.867188 28.652344 31.234375 C 28.617188 31.363281 28.648438 31.359375 28.878906 31.195312 Z M 30.65625 30.550781 C 31.113281 30.246094 32.472656 29.226562 32.515625 29.148438 C 32.539062 29.113281 32.410156 29.097656 32.09375 29.097656 L 31.644531 29.105469 L 31.378906 29.328125 C 31.019531 29.640625 30.375 30.128906 30.097656 30.300781 L 29.863281 30.449219 L 29.863281 31.019531 L 30.050781 30.925781 C 30.152344 30.871094 30.425781 30.703125 30.652344 30.550781 Z M 24.050781 30.679688 L 24.074219 30.496094 L 23.71875 30.289062 C 23.527344 30.171875 23.074219 29.863281 22.71875 29.601562 C 22.132812 29.175781 22.015625 29.109375 21.542969 28.9375 C 21.25 28.832031 20.984375 28.742188 20.953125 28.742188 C 20.757812 28.738281 22.125 29.886719 22.945312 30.421875 C 23.261719 30.625 23.945312 30.933594 23.988281 30.894531 C 24.003906 30.878906 24.03125 30.78125 24.050781 30.679688 Z M 28.765625 29.167969 C 30.027344 28.96875 31.308594 28.5625 32.894531 27.871094 C 33.4375 27.636719 34.328125 27.292969 34.867188 27.109375 C 35.410156 26.929688 35.871094 26.757812 35.898438 26.730469 C 35.96875 26.652344 35.371094 26.710938 34.898438 26.824219 C 34.34375 26.953125 33.488281 27.242188 32.835938 27.523438 C 30.429688 28.550781 29.398438 28.804688 27.601562 28.800781 C 26.21875 28.800781 25.238281 28.597656 23.222656 27.921875 C 20.777344 27.089844 19.695312 26.828125 18.171875 26.683594 C 17.445312 26.617188 15.695312 26.652344 14.996094 26.75 C 13.417969 26.972656 11.703125 27.429688 10.121094 28.050781 C 9.484375 28.300781 8.6875 28.65625 8.710938 28.683594 C 8.722656 28.695312 9.0625 28.59375 9.46875 28.457031 C 11.066406 27.929688 12.128906 27.632812 13.152344 27.429688 C 15.578125 26.949219 17.890625 27.011719 19.992188 27.605469 C 20.214844 27.671875 21.054688 27.9375 21.847656 28.207031 C 23.710938 28.828125 24.558594 29.042969 25.867188 29.214844 C 26.472656 29.296875 28.128906 29.265625 28.765625 29.167969 Z M 27.976562 28.542969 C 28.277344 28.507812 28.753906 28.421875 29.03125 28.351562 C 29.914062 28.121094 31.152344 27.574219 31.503906 27.257812 C 31.664062 27.109375 31.679688 27.105469 30.964844 27.40625 C 30.03125 27.792969 29.054688 28.054688 28.171875 28.164062 C 26.632812 28.34375 24.707031 27.992188 23.238281 27.269531 C 22.890625 27.097656 22.59375 26.957031 22.582031 26.957031 C 22.570312 26.957031 22.605469 27.011719 22.664062 27.074219 C 22.859375 27.285156 23.8125 27.824219 24.457031 28.089844 C 24.832031 28.242188 25.664062 28.453125 26.152344 28.515625 C 26.371094 28.542969 26.597656 28.574219 26.65625 28.582031 C 26.921875 28.617188 27.464844 28.605469 27.972656 28.542969 Z M 47.558594 28.488281 C 47.449219 28.183594 46.738281 26.898438 44.785156 23.46875 L 43.777344 21.691406 L 42.96875 21.691406 C 42.523438 21.691406 42.160156 21.699219 42.160156 21.714844 C 42.160156 21.722656 42.21875 21.824219 42.289062 21.941406 L 42.417969 22.148438 L 42.089844 22.578125 C 41.914062 22.816406 41.355469 23.554688 40.855469 24.222656 C 40.351562 24.890625 39.929688 25.4375 39.917969 25.4375 C 39.875 25.441406 39.339844 24.738281 39.347656 24.695312 C 39.355469 24.675781 39.464844 24.617188 39.585938 24.574219 C 39.90625 24.453125 40.316406 24.03125 40.4375 23.6875 C 40.640625 23.140625 40.515625 22.558594 40.144531 22.292969 C 39.816406 22.066406 39.679688 22.046875 38.070312 22.046875 L 36.59375 22.046875 L 36.179688 22.589844 C 35.957031 22.882812 35.765625 23.140625 35.757812 23.160156 C 35.753906 23.175781 36.472656 23.195312 37.363281 23.199219 C 39.113281 23.210938 39.128906 23.214844 39.070312 23.449219 C 39.015625 23.667969 38.953125 23.675781 37.335938 23.699219 L 35.824219 23.722656 L 35.761719 23.921875 C 35.621094 24.394531 35.132812 26.101562 35.132812 26.125 C 35.132812 26.140625 35.425781 26.152344 35.789062 26.152344 C 36.257812 26.152344 36.453125 26.140625 36.480469 26.101562 C 36.507812 26.070312 36.601562 25.773438 36.695312 25.453125 L 36.859375 24.859375 L 37.664062 24.859375 L 38.117188 25.460938 C 38.367188 25.792969 38.65625 26.144531 38.757812 26.238281 C 38.996094 26.460938 39.222656 26.511719 39.984375 26.511719 L 40.566406 26.511719 L 41.027344 25.921875 C 41.277344 25.597656 41.839844 24.867188 42.273438 24.3125 C 42.703125 23.753906 43.058594 23.304688 43.066406 23.3125 C 43.105469 23.351562 44.214844 25.328125 44.203125 25.34375 C 44.195312 25.351562 44.050781 25.316406 43.878906 25.261719 C 43.539062 25.160156 43.492188 25.117188 43.191406 24.578125 L 43.019531 24.269531 L 42.886719 24.441406 C 42.816406 24.535156 42.453125 24.929688 42.082031 25.320312 C 41.714844 25.710938 41.414062 26.039062 41.425781 26.046875 C 41.433594 26.050781 41.601562 26.011719 41.792969 25.957031 C 41.988281 25.898438 42.316406 25.804688 42.527344 25.757812 L 42.902344 25.660156 L 43.222656 25.753906 C 43.953125 25.976562 44.988281 26.46875 45.648438 26.921875 C 46.175781 27.285156 46.96875 27.933594 46.929688 27.976562 C 46.921875 27.984375 46.792969 27.929688 46.65625 27.855469 C 45.988281 27.515625 45.292969 27.261719 44.359375 27.023438 C 42.472656 26.542969 40.019531 26.589844 37.597656 27.164062 C 36.8125 27.351562 35.707031 27.699219 35.707031 27.761719 C 35.707031 27.832031 35.863281 27.816406 36.539062 27.667969 C 38.757812 27.195312 39.394531 27.121094 41.238281 27.113281 C 42.785156 27.113281 43.113281 27.140625 44.226562 27.363281 C 45.113281 27.542969 46.066406 27.882812 47.035156 28.359375 C 47.3125 28.492188 47.554688 28.605469 47.574219 28.609375 C 47.589844 28.609375 47.585938 28.554688 47.558594 28.488281 Z M 9.34375 27.867188 C 9.792969 27.660156 10.542969 27.328125 11.019531 27.132812 C 12.140625 26.664062 12.164062 26.640625 11.386719 26.753906 C 11.164062 26.785156 10.980469 26.792969 10.980469 26.773438 C 10.980469 26.753906 11.265625 26.039062 11.613281 25.183594 C 11.964844 24.332031 12.34375 23.382812 12.464844 23.074219 L 12.683594 22.515625 L 13.34375 22.503906 L 14.007812 22.488281 L 13.34375 24.5 C 12.984375 25.609375 12.691406 26.527344 12.707031 26.542969 C 12.71875 26.554688 13.058594 26.503906 13.453125 26.4375 L 14.179688 26.3125 L 14.394531 25.617188 L 14.609375 24.925781 L 15.085938 24.910156 L 15.570312 24.902344 L 16.027344 25.554688 L 16.484375 26.210938 L 16.773438 26.179688 C 16.929688 26.164062 17.285156 26.152344 17.558594 26.152344 L 18.054688 26.152344 L 17.980469 26.007812 C 17.941406 25.929688 17.753906 25.632812 17.558594 25.351562 C 17.21875 24.84375 17.164062 24.722656 17.273438 24.722656 C 17.398438 24.722656 17.875 24.445312 18.046875 24.277344 C 18.394531 23.933594 18.578125 23.371094 18.484375 22.933594 C 18.417969 22.617188 18.222656 22.371094 17.925781 22.234375 L 17.675781 22.113281 L 16.117188 22.089844 L 14.558594 22.070312 L 15.0625 21.796875 C 15.339844 21.644531 15.6875 21.453125 15.828125 21.375 L 16.085938 21.222656 L 12.160156 21.199219 C 10 21.1875 8.226562 21.183594 8.214844 21.1875 C 8.195312 21.199219 8.308594 21.351562 8.785156 21.9375 L 9.242188 22.492188 L 10.046875 22.492188 C 10.484375 22.492188 10.847656 22.503906 10.847656 22.511719 C 10.847656 22.523438 10.160156 24.117188 9.558594 25.503906 C 9.378906 25.925781 9.03125 26.710938 8.785156 27.253906 C 8.542969 27.804688 8.34375 28.257812 8.34375 28.273438 C 8.34375 28.316406 8.496094 28.253906 9.34375 27.867188 Z M 35.011719 28.023438 C 35.199219 27.972656 35.351562 27.914062 35.351562 27.890625 C 35.351562 27.867188 35.335938 27.851562 35.3125 27.851562 C 35.242188 27.851562 34.5625 28.074219 34.5625 28.097656 C 34.5625 28.136719 34.664062 28.117188 35.007812 28.023438 Z M 25.40625 26.109375 C 25.542969 25.65625 25.753906 24.972656 25.867188 24.59375 C 26.136719 23.722656 26.613281 22.105469 26.613281 22.074219 C 26.613281 22.0625 26.3125 22.046875 25.9375 22.046875 C 25.328125 22.046875 25.257812 22.058594 25.234375 22.128906 C 25.222656 22.167969 25.082031 22.648438 24.925781 23.1875 C 24.761719 23.726562 24.621094 24.179688 24.609375 24.191406 C 24.59375 24.207031 24.53125 24.152344 24.472656 24.074219 C 24.195312 23.746094 22.863281 22.242188 22.777344 22.160156 C 22.691406 22.082031 22.628906 22.074219 22.136719 22.085938 L 21.585938 22.097656 L 21.003906 24.050781 C 20.683594 25.121094 20.417969 26.015625 20.421875 26.035156 C 20.421875 26.054688 20.726562 26.066406 21.097656 26.066406 L 21.769531 26.066406 L 22.070312 25.039062 C 22.234375 24.476562 22.378906 24.015625 22.398438 24.015625 C 22.414062 24.015625 22.558594 24.160156 22.710938 24.339844 C 24.242188 26.105469 25.082031 27.015625 25.125 26.96875 C 25.144531 26.949219 25.265625 26.566406 25.40625 26.109375 Z M 37.035156 26.515625 C 37.089844 26.464844 36.71875 26.507812 36.628906 26.566406 C 36.582031 26.59375 36.636719 26.597656 36.78125 26.582031 C 36.898438 26.566406 37.015625 26.539062 37.035156 26.515625 Z M 19.699219 25.902344 C 19.738281 25.757812 20.015625 24.847656 20.316406 23.878906 C 20.609375 22.910156 20.84375 22.105469 20.824219 22.09375 C 20.808594 22.078125 20.496094 22.074219 20.125 22.085938 L 19.457031 22.097656 L 19.28125 22.644531 C 19.054688 23.363281 18.28125 25.878906 18.246094 26.035156 L 18.214844 26.15625 L 19.625 26.15625 Z M 33.644531 24.671875 L 34.0625 23.230469 L 34.726562 23.1875 L 35.390625 23.140625 L 35.722656 22.726562 C 35.902344 22.5 36.089844 22.253906 36.144531 22.183594 L 36.234375 22.046875 L 31.804688 22.046875 L 31.402344 22.585938 C 31.183594 22.878906 31.003906 23.140625 31.003906 23.164062 C 31.003906 23.191406 31.347656 23.214844 31.832031 23.21875 L 32.664062 23.230469 L 32.519531 23.722656 C 32.152344 24.953125 31.835938 26.050781 31.835938 26.078125 C 31.835938 26.097656 32.148438 26.109375 32.53125 26.109375 L 33.226562 26.109375 Z M 30.273438 25.453125 L 30.734375 24.882812 L 29.234375 24.859375 C 27.765625 24.839844 27.734375 24.839844 27.746094 24.75 C 27.777344 24.542969 27.75 24.546875 28.785156 24.546875 L 29.773438 24.546875 L 30.167969 24.003906 L 30.5625 23.453125 L 29.335938 23.441406 L 28.117188 23.429688 L 28.148438 23.304688 L 28.179688 23.1875 L 29.378906 23.164062 L 30.570312 23.140625 L 30.960938 22.628906 C 31.175781 22.347656 31.359375 22.101562 31.359375 22.085938 C 31.359375 22.0625 30.414062 22.046875 29.253906 22.046875 C 27.289062 22.046875 27.152344 22.054688 27.128906 22.128906 C 27.121094 22.167969 26.859375 23.042969 26.554688 24.070312 C 26.25 25.101562 26 25.957031 26 25.980469 C 26 26.003906 26.789062 26.019531 27.90625 26.019531 L 29.808594 26.019531 Z M 9.453125 22.894531 C 9.734375 22.839844 9.980469 22.78125 9.996094 22.757812 C 10.007812 22.738281 9.769531 22.71875 9.449219 22.71875 L 8.878906 22.71875 L 8.550781 22.308594 C 8.214844 21.894531 7.773438 21.417969 7.773438 21.480469 C 7.773438 21.601562 8.421875 22.699219 8.636719 22.949219 C 8.683594 23 8.746094 23.015625 8.820312 23.007812 C 8.882812 22.996094 9.167969 22.945312 9.453125 22.894531 Z M 23.78125 21.515625 C 24.917969 21.492188 27.695312 21.445312 29.953125 21.425781 C 34.542969 21.371094 37.691406 21.308594 38.253906 21.257812 C 38.808594 21.207031 34.6875 21.171875 30.039062 21.183594 C 27.851562 21.191406 23.980469 21.199219 21.433594 21.207031 C 18.722656 21.210938 16.890625 21.226562 17.019531 21.25 C 17.214844 21.285156 18.878906 21.453125 20.027344 21.554688 C 20.28125 21.582031 20.765625 21.589844 21.101562 21.582031 C 21.441406 21.566406 22.648438 21.539062 23.78125 21.515625 Z M 22.25 20.175781 C 22.277344 20.0625 22.34375 19.808594 22.398438 19.609375 L 22.492188 19.238281 L 22.765625 19.238281 C 22.910156 19.238281 23.054688 19.21875 23.082031 19.203125 C 23.109375 19.183594 23.195312 19.054688 23.277344 18.917969 L 23.417969 18.65625 L 21.253906 18.65625 L 21.125 18.921875 C 20.96875 19.234375 20.976562 19.238281 21.433594 19.238281 C 21.601562 19.238281 21.738281 19.253906 21.738281 19.277344 C 21.738281 19.296875 21.679688 19.546875 21.605469 19.824219 C 21.535156 20.105469 21.472656 20.347656 21.472656 20.367188 C 21.472656 20.386719 21.636719 20.398438 21.828125 20.390625 L 22.191406 20.375 L 22.246094 20.175781 Z M 25.152344 20.300781 C 25.199219 20.242188 25.28125 20.128906 25.339844 20.046875 C 25.421875 19.925781 25.425781 19.890625 25.378906 19.859375 C 25.34375 19.835938 25.054688 19.816406 24.738281 19.816406 C 24.378906 19.816406 24.15625 19.800781 24.15625 19.773438 C 24.15625 19.746094 24.335938 19.726562 24.613281 19.726562 L 25.0625 19.726562 L 25.183594 19.460938 C 25.246094 19.3125 25.320312 19.191406 25.335938 19.191406 C 25.367188 19.191406 25.628906 18.8125 25.683594 18.691406 C 25.691406 18.671875 25.242188 18.65625 24.691406 18.65625 L 23.679688 18.65625 L 23.476562 19.484375 C 23.367188 19.933594 23.277344 20.324219 23.277344 20.351562 C 23.277344 20.378906 23.589844 20.398438 24.167969 20.398438 C 25.035156 20.398438 25.0625 20.394531 25.152344 20.300781 Z M 26.363281 20.257812 C 26.4375 20.171875 26.507812 20.128906 26.550781 20.148438 C 26.59375 20.160156 26.808594 20.175781 27.03125 20.175781 C 27.421875 20.175781 27.445312 20.179688 27.457031 20.277344 C 27.46875 20.371094 27.492188 20.375 27.855469 20.390625 C 28.148438 20.398438 28.238281 20.390625 28.238281 20.34375 C 28.234375 20.3125 28.09375 19.925781 27.917969 19.484375 L 27.597656 18.679688 L 27.230469 18.664062 L 26.855469 18.652344 L 26.203125 19.453125 C 25.847656 19.898438 25.546875 20.289062 25.535156 20.332031 C 25.511719 20.386719 25.558594 20.398438 25.875 20.398438 C 26.230469 20.398438 26.246094 20.394531 26.363281 20.257812 Z M 29.292969 20.210938 C 29.320312 20.101562 29.363281 19.941406 29.386719 19.851562 C 29.40625 19.757812 29.433594 19.683594 29.441406 19.683594 C 29.453125 19.683594 29.542969 19.8125 29.644531 19.972656 C 29.746094 20.132812 29.847656 20.261719 29.867188 20.261719 C 29.890625 20.261719 30.042969 20.144531 30.214844 19.996094 C 30.382812 19.84375 30.523438 19.75 30.523438 19.78125 C 30.519531 19.8125 30.492188 19.953125 30.457031 20.097656 C 30.386719 20.40625 30.386719 20.40625 30.808594 20.386719 L 31.101562 20.375 L 31.285156 19.613281 C 31.390625 19.199219 31.488281 18.8125 31.507812 18.757812 C 31.535156 18.65625 31.53125 18.65625 31.128906 18.65625 L 30.71875 18.65625 L 30.386719 18.996094 L 30.046875 19.332031 L 29.898438 19.09375 C 29.816406 18.964844 29.722656 18.808594 29.691406 18.753906 C 29.644531 18.664062 29.609375 18.65625 29.296875 18.65625 L 28.949219 18.65625 L 28.789062 19.355469 C 28.695312 19.738281 28.613281 20.132812 28.597656 20.226562 L 28.578125 20.394531 L 29.246094 20.394531 Z M 20.0625 19.785156 L 20.046875 19.527344 L 19.761719 19.542969 L 19.476562 19.554688 L 19.269531 19.273438 C 18.96875 18.863281 18.335938 18.042969 18.15625 17.824219 C 18.054688 17.695312 17.890625 17.578125 17.679688 17.476562 C 17.320312 17.300781 17.304688 17.296875 17.304688 17.382812 C 17.304688 17.582031 17.820312 18.292969 18.554688 19.097656 C 18.765625 19.328125 18.929688 19.519531 18.917969 19.535156 C 18.910156 19.542969 18.132812 19.578125 17.195312 19.617188 C 15.367188 19.691406 13.914062 19.765625 13.890625 19.792969 C 13.871094 19.816406 14.636719 19.855469 16.140625 19.914062 C 16.84375 19.9375 17.800781 19.976562 18.269531 19.992188 C 18.738281 20.015625 19.339844 20.035156 19.601562 20.035156 L 20.074219 20.042969 L 20.0625 19.789062 Z M 34.195312 19.996094 C 34.816406 19.972656 35.875 19.933594 36.539062 19.90625 C 38.496094 19.835938 39.089844 19.808594 39.074219 19.792969 C 39.039062 19.75 33.679688 19.550781 32.71875 19.550781 L 32.367188 19.550781 L 32.367188 20.042969 L 32.710938 20.042969 C 32.898438 20.042969 33.566406 20.023438 34.195312 19.996094 Z M 17.496094 19.371094 L 17.75 19.371094 L 17.476562 19.054688 C 17.023438 18.542969 16.566406 17.953125 16.273438 17.496094 C 15.921875 16.957031 15.445312 16.105469 15.34375 15.847656 C 15.304688 15.734375 15.261719 15.636719 15.257812 15.628906 C 15.242188 15.605469 14.476562 15.492188 14.457031 15.511719 C 14.433594 15.539062 14.894531 16.515625 15.136719 16.949219 C 15.578125 17.730469 16.253906 18.6875 16.730469 19.207031 C 16.914062 19.410156 16.941406 19.421875 17.085938 19.398438 C 17.167969 19.386719 17.351562 19.371094 17.496094 19.371094 Z M 35.300781 18.980469 C 35.738281 18.410156 36.136719 17.8125 36.46875 17.214844 C 36.777344 16.664062 37.300781 15.53125 37.265625 15.496094 C 37.253906 15.484375 37.078125 15.507812 36.871094 15.539062 L 36.492188 15.601562 L 36.355469 15.910156 C 35.980469 16.773438 35.316406 17.859375 34.613281 18.746094 C 34.371094 19.054688 34.171875 19.316406 34.167969 19.339844 C 34.167969 19.359375 34.351562 19.371094 34.582031 19.371094 L 34.996094 19.371094 Z M 33.570312 18.847656 C 33.917969 18.398438 34.589844 17.332031 34.550781 17.292969 C 34.523438 17.261719 34.257812 17.367188 33.996094 17.515625 C 33.769531 17.644531 33.707031 17.71875 33.21875 18.457031 L 32.6875 19.257812 L 32.890625 19.285156 C 33 19.300781 33.113281 19.316406 33.144531 19.316406 C 33.171875 19.320312 33.363281 19.113281 33.570312 18.847656 Z M 21.074219 18.105469 C 21.066406 18.09375 20.703125 17.929688 20.265625 17.742188 C 19.398438 17.363281 18.332031 16.828125 18.171875 16.695312 L 18.070312 16.605469 L 18.289062 16.628906 C 18.414062 16.636719 18.707031 16.660156 18.949219 16.671875 C 19.191406 16.6875 19.503906 16.707031 19.644531 16.726562 C 19.800781 16.738281 19.894531 16.734375 19.894531 16.703125 C 19.894531 16.640625 18.519531 16.1875 17.917969 16.050781 C 17.054688 15.859375 15.941406 15.738281 15.941406 15.84375 C 15.941406 15.859375 16.074219 16.015625 16.234375 16.175781 C 17.046875 17.003906 18.402344 17.648438 20.070312 18.007812 C 20.5 18.101562 21.132812 18.164062 21.074219 18.105469 Z M 25.640625 18.105469 C 25.632812 18.09375 25.363281 17.976562 25.035156 17.839844 C 24.164062 17.46875 23.429688 17.023438 22.242188 16.140625 C 22.085938 16.023438 21.941406 15.9375 21.925781 15.953125 C 21.886719 15.992188 22.515625 16.632812 22.96875 17.007812 C 23.175781 17.179688 23.585938 17.496094 23.890625 17.714844 L 24.441406 18.113281 L 25.050781 18.117188 C 25.390625 18.121094 25.652344 18.113281 25.644531 18.105469 Z M 31.523438 17.890625 C 31.765625 17.738281 31.609375 17.742188 31.324219 17.898438 C 31.101562 18.019531 31.089844 18.03125 31.21875 18.011719 C 31.300781 17.996094 31.4375 17.945312 31.523438 17.890625 Z M 32.675781 17.742188 C 33.785156 17.402344 34.734375 16.867188 35.433594 16.183594 C 35.605469 16.015625 35.75 15.859375 35.75 15.835938 C 35.75 15.738281 34.644531 15.847656 33.859375 16.023438 C 33.632812 16.074219 33.441406 16.113281 33.4375 16.113281 C 33.429688 16.113281 33.347656 16.226562 33.246094 16.371094 L 33.066406 16.625 L 33.335938 16.648438 L 33.613281 16.667969 L 33.203125 17.007812 C 32.972656 17.195312 32.613281 17.464844 32.402344 17.601562 C 32.1875 17.742188 32.015625 17.867188 32.015625 17.878906 C 32.015625 17.914062 32.300781 17.851562 32.675781 17.742188 Z M 30.574219 17.566406 C 31.269531 17.429688 32.21875 17.082031 32.410156 16.890625 C 32.511719 16.792969 32.402344 16.808594 31.953125 16.960938 C 31.304688 17.1875 30.875 17.242188 29.996094 17.214844 C 28.757812 17.175781 27.78125 16.90625 26.398438 16.21875 C 25.738281 15.898438 24.433594 15.082031 24.351562 14.949219 C 24.339844 14.929688 24.441406 14.960938 24.582031 15.03125 C 24.980469 15.207031 26.027344 15.597656 26.460938 15.726562 C 27.019531 15.894531 27.992188 16.097656 28.613281 16.175781 C 29.402344 16.277344 30.15625 16.316406 30.1875 16.253906 C 30.207031 16.226562 30.210938 16.203125 30.199219 16.203125 C 30.183594 16.203125 29.824219 16.152344 29.394531 16.089844 C 26.433594 15.664062 23.898438 14.449219 22.71875 12.886719 C 22.375 12.429688 22.058594 11.609375 22.042969 11.105469 C 22.042969 11.023438 22.015625 11.046875 21.945312 11.203125 C 21.871094 11.367188 21.855469 11.492188 21.855469 11.894531 C 21.847656 12.167969 21.863281 12.515625 21.878906 12.675781 L 21.914062 12.964844 L 21.742188 12.617188 C 21.535156 12.191406 21.476562 11.921875 21.476562 11.476562 C 21.476562 10.78125 21.757812 10.09375 22.273438 9.527344 C 22.570312 9.210938 22.582031 9.183594 22.464844 9.210938 C 22.238281 9.265625 21.691406 9.605469 21.425781 9.855469 C 21.289062 9.980469 21.167969 10.089844 21.148438 10.089844 C 21.058594 10.089844 21.464844 9.480469 21.746094 9.210938 C 22.296875 8.671875 23.359375 8.078125 24.136719 7.875 C 24.476562 7.785156 24.710938 7.753906 25.207031 7.742188 C 25.558594 7.726562 25.894531 7.710938 25.953125 7.695312 L 26.066406 7.667969 L 25.953125 7.609375 C 25.542969 7.394531 23.75 7.289062 22.792969 7.429688 C 21.835938 7.570312 21.066406 7.792969 20.445312 8.109375 C 20.074219 8.304688 19.792969 8.480469 19.820312 8.507812 C 19.828125 8.515625 20.019531 8.5 20.25 8.457031 C 20.917969 8.351562 20.929688 8.363281 20.453125 8.632812 C 19.648438 9.082031 19.015625 9.644531 18.617188 10.261719 C 18.402344 10.59375 18.28125 10.875 18.328125 10.921875 C 18.34375 10.9375 18.441406 10.871094 18.550781 10.765625 C 18.914062 10.425781 19.730469 9.863281 19.785156 9.917969 C 19.796875 9.929688 19.695312 10.066406 19.558594 10.226562 C 19.09375 10.777344 18.875 11.261719 18.796875 11.886719 C 18.742188 12.324219 18.796875 12.804688 18.921875 13.097656 C 19 13.273438 19.007812 13.277344 19.027344 13.167969 C 19.160156 12.554688 19.25 12.25 19.371094 11.984375 L 19.519531 11.671875 L 19.542969 12.242188 C 19.578125 13.164062 19.648438 13.042969 19.71875 11.917969 C 19.742188 11.539062 19.773438 11.160156 19.789062 11.085938 C 19.800781 11.003906 19.804688 10.9375 19.789062 10.9375 C 19.738281 10.9375 19.390625 11.441406 19.230469 11.753906 C 19.058594 12.078125 19.023438 12.0625 19.105469 11.695312 C 19.242188 11.066406 19.59375 10.445312 20.132812 9.875 C 20.3125 9.679688 20.464844 9.507812 20.464844 9.496094 C 20.464844 9.453125 20.035156 9.589844 19.765625 9.710938 C 19.632812 9.773438 19.402344 9.90625 19.246094 10.003906 C 19.09375 10.097656 18.972656 10.160156 18.972656 10.136719 C 18.972656 10.050781 19.773438 9.324219 20.144531 9.074219 C 20.355469 8.929688 20.847656 8.652344 21.234375 8.445312 L 21.933594 8.074219 L 21.421875 8.089844 C 21.136719 8.101562 20.902344 8.101562 20.902344 8.097656 C 20.902344 8.074219 21.527344 7.894531 21.808594 7.835938 C 22.207031 7.757812 22.964844 7.703125 22.878906 7.765625 C 22.84375 7.792969 22.632812 7.917969 22.410156 8.046875 C 21.441406 8.605469 20.707031 9.476562 20.550781 10.25 C 20.523438 10.378906 20.507812 10.53125 20.515625 10.585938 C 20.527344 10.671875 20.546875 10.652344 20.632812 10.472656 C 20.730469 10.289062 20.941406 10.03125 20.898438 10.15625 C 20.808594 10.410156 20.34375 11.46875 20.324219 11.46875 C 20.300781 11.46875 20.289062 11.296875 20.289062 11.082031 C 20.289062 10.644531 20.261719 10.640625 20.089844 11.066406 C 19.605469 12.277344 19.734375 13.546875 20.457031 14.660156 C 20.726562 15.078125 20.976562 15.378906 21.019531 15.339844 C 21.035156 15.324219 20.980469 15.121094 20.902344 14.886719 C 20.777344 14.5 20.644531 13.898438 20.640625 13.6875 C 20.640625 13.640625 20.777344 13.8125 20.941406 14.066406 C 21.3125 14.625 21.765625 15.148438 22.265625 15.601562 C 22.839844 16.128906 23.722656 16.726562 23.855469 16.683594 C 23.878906 16.671875 23.742188 16.484375 23.554688 16.269531 C 23.179688 15.835938 22.984375 15.585938 22.851562 15.375 C 22.777344 15.261719 22.808594 15.273438 23.066406 15.476562 C 24.472656 16.570312 26.785156 17.429688 28.917969 17.648438 C 29.246094 17.683594 30.234375 17.632812 30.574219 17.566406 Z M 22.089844 16.765625 C 22.089844 16.753906 21.808594 16.519531 21.464844 16.242188 C 20.753906 15.664062 20.515625 15.433594 19.960938 14.75 C 19.648438 14.371094 19.488281 14.21875 19.273438 14.089844 C 19.011719 13.933594 18.976562 13.898438 18.730469 13.453125 C 18.585938 13.195312 18.316406 12.796875 18.132812 12.570312 C 17.710938 12.050781 17.402344 11.628906 17.296875 11.417969 C 17.25 11.324219 17.183594 11.246094 17.148438 11.246094 C 17.042969 11.246094 16.042969 10.855469 15.484375 10.589844 C 14.859375 10.300781 14.375 10.03125 13.933594 9.726562 C 13.757812 9.605469 13.613281 9.519531 13.613281 9.535156 C 13.613281 9.585938 13.878906 10.046875 14.105469 10.390625 C 14.796875 11.429688 15.800781 12.277344 17.257812 13.054688 C 17.609375 13.238281 17.839844 13.378906 17.765625 13.363281 C 17.4375 13.292969 16.113281 12.882812 15.421875 12.636719 C 15 12.484375 14.644531 12.363281 14.632812 12.363281 C 14.574219 12.363281 15.058594 12.832031 15.390625 13.101562 C 16.480469 13.964844 17.503906 14.488281 18.90625 14.886719 C 19.195312 14.96875 19.394531 15.035156 19.34375 15.042969 C 19.085938 15.066406 18.324219 15.027344 17.949219 14.96875 C 17.710938 14.929688 17.503906 14.910156 17.492188 14.925781 C 17.457031 14.960938 18.101562 15.371094 18.621094 15.636719 C 19.152344 15.917969 20.011719 16.273438 20.5625 16.441406 C 21.257812 16.660156 22.089844 16.835938 22.089844 16.761719 Z M 32.753906 16.492188 C 33.066406 16.394531 33.296875 16.242188 33.238281 16.179688 C 33.183594 16.125 32.148438 16.507812 32.148438 16.582031 C 32.148438 16.632812 32.4375 16.59375 32.753906 16.492188 Z M 32.140625 15.839844 C 32.363281 15.777344 32.324219 15.734375 31.992188 15.683594 C 31.613281 15.636719 30.910156 15.398438 30.515625 15.1875 C 29.960938 14.898438 29.5625 14.515625 29.335938 14.046875 C 29.160156 13.679688 29.058594 13.234375 29.09375 13 C 29.105469 12.929688 29.125 12.789062 29.140625 12.675781 L 29.164062 12.480469 L 29.050781 12.589844 C 28.867188 12.761719 28.726562 13.039062 28.664062 13.351562 L 28.605469 13.636719 L 28.570312 13.46875 C 28.484375 13.039062 28.648438 12.484375 28.972656 12.089844 C 29.066406 11.976562 29.105469 11.890625 29.074219 11.882812 C 28.996094 11.855469 28.503906 12.121094 28.265625 12.320312 C 28.148438 12.417969 28.042969 12.496094 28.03125 12.480469 C 27.988281 12.4375 28.246094 12.015625 28.425781 11.847656 C 28.667969 11.609375 28.789062 11.539062 29.113281 11.425781 C 29.53125 11.285156 29.90625 11.316406 30.398438 11.535156 C 30.449219 11.558594 30.480469 11.542969 30.496094 11.480469 C 30.535156 11.363281 30.734375 11.332031 31 11.402344 C 31.238281 11.464844 31.300781 11.449219 31.214844 11.351562 C 31.148438 11.269531 31.210938 11.21875 31.304688 11.273438 C 31.445312 11.359375 31.535156 11.613281 31.519531 11.84375 C 31.507812 11.957031 31.515625 12.050781 31.53125 12.050781 C 31.582031 12.050781 31.828125 11.757812 31.902344 11.613281 C 31.992188 11.433594 32.0625 10.972656 32.035156 10.761719 C 32 10.542969 31.910156 10.46875 31.421875 10.242188 C 31.191406 10.128906 31.078125 10.054688 31.050781 9.976562 C 30.996094 9.828125 30.660156 9.464844 30.582031 9.464844 C 30.546875 9.464844 30.523438 9.503906 30.523438 9.546875 C 30.523438 9.625 30.503906 9.625 30.285156 9.503906 C 30.152344 9.433594 29.941406 9.332031 29.8125 9.289062 C 29.417969 9.152344 28.890625 8.859375 28.503906 8.570312 C 28.304688 8.417969 28.132812 8.308594 28.125 8.316406 C 28.113281 8.324219 28.140625 8.460938 28.1875 8.609375 C 28.234375 8.757812 28.265625 8.882812 28.25 8.882812 C 28.238281 8.882812 28.113281 8.855469 27.976562 8.820312 C 27.839844 8.785156 27.5 8.738281 27.214844 8.707031 C 26.929688 8.679688 26.554688 8.617188 26.382812 8.566406 C 26.214844 8.515625 26.070312 8.484375 26.058594 8.496094 C 26.050781 8.503906 26.105469 8.59375 26.171875 8.691406 C 26.3125 8.882812 26.492188 9.027344 26.871094 9.238281 C 27.152344 9.394531 27.171875 9.382812 26.414062 9.460938 C 25.839844 9.515625 25.347656 9.515625 25.074219 9.464844 C 24.964844 9.445312 24.867188 9.4375 24.855469 9.449219 C 24.820312 9.484375 25.125 9.71875 25.359375 9.839844 C 25.59375 9.953125 26.09375 10.089844 26.296875 10.089844 C 26.484375 10.089844 26.351562 10.15625 25.960938 10.257812 C 25.765625 10.3125 25.339844 10.472656 25.019531 10.609375 C 24.457031 10.859375 24.425781 10.863281 24.039062 10.867188 C 23.667969 10.867188 23.621094 10.855469 23.328125 10.707031 C 22.980469 10.535156 22.949219 10.550781 23.097656 10.84375 C 23.28125 11.21875 23.765625 11.460938 24.214844 11.414062 C 24.398438 11.394531 24.921875 11.25 25.246094 11.125 C 25.285156 11.109375 25.195312 11.230469 25.046875 11.390625 C 24.574219 11.910156 24.339844 12.527344 24.386719 13.144531 C 24.402344 13.460938 24.535156 13.875 24.589844 13.804688 C 24.609375 13.789062 24.65625 13.636719 24.699219 13.476562 C 24.792969 13.101562 25.132812 12.410156 25.195312 12.46875 C 25.203125 12.476562 25.1875 12.542969 25.160156 12.617188 C 25.007812 13.015625 25.027344 13.527344 25.207031 13.90625 C 25.289062 14.078125 25.589844 14.445312 25.625 14.414062 C 25.632812 14.40625 25.625 14.265625 25.605469 14.105469 C 25.566406 13.792969 25.613281 13.347656 25.699219 13.140625 C 25.75 13.023438 25.75 13.042969 25.777344 13.390625 C 25.808594 13.890625 25.976562 14.261719 26.324219 14.609375 C 26.546875 14.832031 26.996094 15.121094 27.042969 15.070312 C 27.050781 15.054688 26.980469 14.898438 26.882812 14.722656 C 26.582031 14.167969 26.503906 13.636719 26.632812 13.101562 L 26.6875 12.878906 L 26.71875 13.191406 C 26.804688 14.042969 27.207031 14.660156 27.957031 15.117188 C 28.414062 15.386719 28.441406 15.394531 28.304688 15.164062 C 28.136719 14.898438 27.824219 14.242188 27.851562 14.21875 C 27.863281 14.207031 27.9375 14.304688 28.019531 14.433594 C 28.429688 15.078125 29.265625 15.652344 30.125 15.875 C 30.421875 15.953125 31.847656 15.929688 32.136719 15.84375 Z M 33.363281 15.347656 C 33.566406 15.226562 33.789062 15.074219 33.851562 15.011719 L 33.96875 14.898438 L 33.816406 14.929688 C 33.535156 14.980469 32.480469 15.027344 32.214844 15 L 31.949219 14.96875 L 32.367188 14.894531 C 33.53125 14.671875 34.859375 14.046875 35.910156 13.234375 C 36.410156 12.847656 36.875 12.425781 36.847656 12.394531 C 36.832031 12.378906 36.445312 12.5 35.988281 12.65625 C 35.085938 12.972656 33.839844 13.363281 33.597656 13.40625 C 33.5 13.421875 33.707031 13.292969 34.144531 13.0625 C 35.640625 12.277344 36.664062 11.398438 37.457031 10.21875 C 37.699219 9.863281 37.898438 9.5 37.898438 9.433594 C 37.898438 9.417969 37.855469 9.441406 37.804688 9.492188 C 37.316406 9.945312 35.371094 10.914062 34.339844 11.214844 C 34.113281 11.28125 34.085938 11.304688 33.871094 11.632812 C 33.457031 12.269531 32.753906 12.917969 32.03125 13.34375 C 31.421875 13.695312 30.320312 14.011719 29.894531 13.953125 L 29.722656 13.933594 L 29.816406 14.035156 C 30.003906 14.234375 30.292969 14.292969 30.910156 14.261719 C 31.214844 14.25 31.542969 14.226562 31.640625 14.210938 L 31.816406 14.1875 L 31.695312 14.257812 C 31.515625 14.359375 30.765625 14.546875 30.527344 14.546875 C 30.214844 14.546875 30.183594 14.601562 30.402344 14.761719 C 30.988281 15.1875 31.730469 15.421875 32.953125 15.570312 C 32.972656 15.574219 33.15625 15.472656 33.363281 15.347656 Z M 16.886719 15.347656 C 17.066406 15.324219 17.214844 15.28125 17.214844 15.265625 C 17.214844 15.230469 16.671875 15.054688 16.085938 14.902344 C 15.863281 14.847656 15.679688 14.785156 15.679688 14.769531 C 15.679688 14.757812 15.769531 14.730469 15.878906 14.710938 C 16.1875 14.671875 16.570312 14.546875 16.527344 14.5 C 16.503906 14.480469 15.828125 14.332031 15.019531 14.171875 C 13.488281 13.863281 12.824219 13.707031 12.121094 13.484375 C 11.890625 13.410156 11.699219 13.355469 11.695312 13.363281 C 11.6875 13.375 11.777344 13.5 11.898438 13.644531 C 12.339844 14.183594 13.160156 14.773438 13.828125 15.039062 C 14.121094 15.148438 14.804688 15.308594 15.261719 15.367188 C 15.566406 15.410156 16.578125 15.394531 16.886719 15.351562 Z M 36.523438 15.347656 C 36.972656 15.289062 37.609375 15.117188 37.925781 14.972656 C 38.300781 14.804688 38.972656 14.335938 39.359375 13.96875 C 39.683594 13.667969 39.90625 13.402344 39.871094 13.367188 C 39.859375 13.359375 39.628906 13.421875 39.351562 13.503906 C 38.648438 13.722656 37.730469 13.9375 36.507812 14.171875 C 35.082031 14.441406 34.957031 14.46875 34.933594 14.511719 C 34.90625 14.558594 35.296875 14.671875 35.617188 14.710938 C 35.898438 14.742188 35.925781 14.792969 35.691406 14.839844 C 35.558594 14.867188 35.410156 14.910156 34.65625 15.128906 C 34.285156 15.242188 34.285156 15.296875 34.65625 15.351562 C 35.015625 15.40625 36.140625 15.402344 36.523438 15.347656 Z M 15.585938 13.714844 C 15.585938 13.695312 15.355469 13.511719 15.078125 13.300781 C 14.519531 12.886719 13.847656 12.261719 13.59375 11.925781 C 13.441406 11.726562 13.402344 11.703125 13.074219 11.605469 C 12.042969 11.3125 10.355469 10.546875 9.578125 10.019531 C 9.375 9.882812 9.199219 9.785156 9.1875 9.792969 C 9.121094 9.863281 9.480469 10.527344 9.878906 11.058594 C 10.207031 11.5 10.824219 12.105469 11.222656 12.375 C 12.078125 12.949219 12.96875 13.273438 14.558594 13.585938 C 14.875 13.648438 15.167969 13.707031 15.21875 13.714844 C 15.371094 13.753906 15.59375 13.746094 15.585938 13.714844 Z M 37.207031 13.542969 C 39.574219 13.046875 40.703125 12.40625 41.785156 10.949219 C 42.042969 10.601562 42.453125 9.835938 42.410156 9.792969 C 42.402344 9.785156 42.167969 9.914062 41.898438 10.089844 C 40.996094 10.671875 39.8125 11.203125 38.667969 11.542969 L 38.140625 11.699219 L 37.738281 12.136719 C 37.324219 12.582031 36.957031 12.910156 36.289062 13.425781 C 36.085938 13.582031 35.925781 13.714844 35.925781 13.726562 C 35.925781 13.78125 36.324219 13.730469 37.207031 13.542969 Z M 24.074219 13.269531 C 24.058594 13.046875 24.078125 12.894531 24.15625 12.644531 C 24.210938 12.464844 24.242188 12.304688 24.226562 12.289062 C 24.175781 12.234375 23.914062 12.402344 23.835938 12.542969 C 23.746094 12.683594 23.734375 13.078125 23.808594 13.222656 C 23.847656 13.300781 24.0625 13.566406 24.089844 13.566406 C 24.089844 13.566406 24.085938 13.433594 24.074219 13.269531 Z M 23.953125 12.140625 C 24.074219 12.09375 24.417969 11.765625 24.417969 11.695312 C 24.417969 11.621094 24.25 11.640625 23.839844 11.746094 C 23.519531 11.832031 23.421875 11.839844 23.238281 11.800781 C 22.992188 11.746094 22.976562 11.757812 23.085938 11.910156 C 23.234375 12.125 23.683594 12.246094 23.953125 12.140625 Z M 15.125 11.988281 C 15.113281 11.957031 14.90625 11.742188 14.664062 11.515625 C 14.164062 11.042969 13.789062 10.578125 13.386719 9.910156 C 13.203125 9.609375 13.054688 9.417969 12.972656 9.371094 C 11.523438 8.605469 10.421875 7.820312 9.300781 6.757812 C 9.015625 6.488281 8.65625 6.117188 8.492188 5.9375 C 8.332031 5.753906 8.183594 5.597656 8.164062 5.589844 C 8.082031 5.550781 8.269531 6.363281 8.460938 6.894531 C 8.832031 7.902344 9.550781 8.960938 10.386719 9.730469 C 11.066406 10.347656 11.800781 10.789062 12.988281 11.273438 C 13.699219 11.566406 15.019531 12.050781 15.117188 12.050781 C 15.132812 12.050781 15.136719 12.023438 15.125 11.988281 Z M 36.804688 11.941406 C 37.207031 11.8125 38.414062 11.347656 39.046875 11.082031 C 40.589844 10.429688 41.808594 9.347656 42.617188 7.917969 C 42.996094 7.253906 43.328125 6.355469 43.417969 5.78125 L 43.449219 5.558594 L 42.773438 6.253906 C 41.558594 7.492188 40.320312 8.4375 38.925781 9.171875 L 38.414062 9.441406 L 38.167969 9.855469 C 37.78125 10.507812 37.4375 10.953125 36.90625 11.492188 C 36.632812 11.769531 36.40625 12.003906 36.40625 12.023438 C 36.40625 12.0625 36.449219 12.054688 36.804688 11.941406 Z M 34.894531 9.902344 L 34.894531 9.082031 L 34.257812 8.824219 C 32.4375 8.082031 30.492188 7.40625 28.601562 6.851562 C 27.152344 6.433594 25.386719 5.980469 25.183594 5.980469 C 24.71875 5.980469 20.675781 7.136719 18.886719 7.789062 C 18.4375 7.949219 17.546875 8.296875 16.898438 8.5625 L 15.722656 9.039062 L 15.722656 10.429688 L 16.0625 10.570312 L 16.402344 10.707031 L 16.425781 10.121094 L 16.445312 9.53125 L 17.039062 9.28125 C 17.363281 9.140625 18.058594 8.867188 18.578125 8.660156 C 19.230469 8.40625 19.601562 8.230469 19.785156 8.101562 C 20.582031 7.53125 21.738281 7.183594 23.28125 7.054688 C 23.605469 7.027344 23.929688 6.988281 24 6.964844 C 24.078125 6.941406 24.367188 6.882812 24.652344 6.832031 C 25.253906 6.71875 25.167969 6.710938 26.636719 7.085938 C 28.925781 7.664062 31.117188 8.367188 33.179688 9.167969 L 34.148438 9.546875 L 34.160156 10.210938 C 34.164062 10.570312 34.175781 10.898438 34.191406 10.925781 C 34.203125 10.96875 34.300781 10.945312 34.550781 10.855469 L 34.894531 10.726562 Z M 26.964844 7.90625 C 26.964844 7.855469 26.730469 7.765625 26.605469 7.765625 C 26.484375 7.765625 26.554688 7.847656 26.714844 7.894531 C 26.90625 7.949219 26.964844 7.953125 26.964844 7.90625 Z M 26.964844 7.90625 "/>
<path style=" stroke:none;fill-rule:nonzero;fill:rgb(100%,100%,100%);fill-opacity:1;" d="M 26.492188 31.503906 C 26.539062 31.324219 26.5625 31.175781 26.539062 31.15625 C 26.519531 31.144531 26.40625 31.058594 26.289062 30.976562 L 26.078125 30.820312 L 26.710938 30.773438 L 26.800781 30.53125 C 26.847656 30.394531 26.90625 30.265625 26.921875 30.25 C 26.9375 30.226562 26.992188 30.316406 27.03125 30.449219 C 27.140625 30.785156 27.15625 30.796875 27.488281 30.796875 L 27.777344 30.800781 L 27.546875 31.015625 L 27.308594 31.226562 L 27.382812 31.480469 C 27.421875 31.625 27.449219 31.757812 27.441406 31.78125 C 27.429688 31.800781 27.320312 31.742188 27.191406 31.640625 L 26.957031 31.460938 L 26.792969 31.570312 C 26.707031 31.628906 26.582031 31.707031 26.519531 31.753906 L 26.398438 31.832031 L 26.492188 31.507812 Z M 26.492188 31.503906 "/>
<path style=" stroke:none;fill-rule:nonzero;fill:rgb(100%,100%,100%);fill-opacity:1;" d="M 24.5625 30.972656 C 24.589844 30.847656 24.578125 30.804688 24.476562 30.695312 L 24.359375 30.574219 L 24.523438 30.574219 C 24.671875 30.574219 24.695312 30.554688 24.757812 30.40625 C 24.828125 30.238281 24.828125 30.238281 24.867188 30.347656 C 24.957031 30.574219 24.976562 30.59375 25.117188 30.582031 C 25.285156 30.566406 25.289062 30.597656 25.144531 30.714844 C 25.046875 30.792969 25.035156 30.828125 25.0625 30.964844 L 25.09375 31.121094 L 24.960938 31.027344 L 24.832031 30.933594 L 24.683594 31.03125 L 24.539062 31.125 L 24.566406 30.972656 Z M 24.5625 30.972656 "/>
<path style=" stroke:none;fill-rule:nonzero;fill:rgb(100%,100%,100%);fill-opacity:1;" d="M 28.816406 30.964844 C 28.851562 30.835938 28.839844 30.804688 28.746094 30.71875 C 28.597656 30.589844 28.605469 30.558594 28.765625 30.59375 C 28.894531 30.621094 28.90625 30.613281 28.972656 30.441406 C 29.050781 30.242188 29.09375 30.238281 29.128906 30.4375 C 29.15625 30.5625 29.175781 30.574219 29.34375 30.574219 L 29.535156 30.578125 L 29.398438 30.6875 C 29.269531 30.789062 29.261719 30.8125 29.292969 30.953125 C 29.328125 31.117188 29.304688 31.121094 29.148438 30.984375 C 29.078125 30.921875 29.058594 30.925781 28.941406 31.011719 C 28.773438 31.140625 28.765625 31.136719 28.8125 30.964844 Z M 28.816406 30.964844 "/>
<path style=" stroke:none;fill-rule:nonzero;fill:rgb(100%,100%,100%);fill-opacity:1;" d="M 26.109375 29.054688 C 25.261719 28.964844 24.257812 28.769531 23.453125 28.53125 C 23.246094 28.476562 22.449219 28.214844 21.675781 27.960938 C 20.902344 27.707031 20.039062 27.433594 19.765625 27.363281 C 18.652344 27.0625 17.03125 26.882812 15.878906 26.921875 C 15.402344 26.9375 15.316406 26.933594 15.484375 26.898438 C 15.605469 26.878906 16.265625 26.855469 16.953125 26.855469 C 17.921875 26.847656 18.328125 26.867188 18.753906 26.925781 C 19.992188 27.105469 21.042969 27.375 22.863281 27.988281 C 24.171875 28.433594 25.070312 28.679688 25.9375 28.839844 C 26.445312 28.933594 26.636719 28.941406 27.757812 28.941406 C 28.921875 28.941406 28.984375 28.949219 28.636719 28.996094 C 28.140625 29.074219 26.609375 29.105469 26.113281 29.054688 Z M 26.109375 29.054688 "/>
<path style=" stroke:none;fill-rule:nonzero;fill:rgb(100%,100%,100%);fill-opacity:1;" d="M 26.1875 28.386719 C 25.863281 28.335938 25.074219 28.152344 25.09375 28.132812 C 25.105469 28.117188 25.269531 28.140625 25.460938 28.183594 C 25.9375 28.28125 26.457031 28.34375 27.097656 28.382812 L 27.648438 28.417969 L 27.03125 28.417969 C 26.695312 28.417969 26.3125 28.40625 26.191406 28.386719 Z M 26.1875 28.386719 "/>
<path style=" stroke:none;fill-rule:nonzero;fill:rgb(100%,100%,100%);fill-opacity:1;" d="M 46.445312 27.199219 C 46.203125 26.980469 45.460938 26.476562 45.011719 26.230469 C 44.574219 25.988281 43.773438 25.652344 43.277344 25.507812 C 42.933594 25.402344 42.902344 25.402344 42.640625 25.464844 C 42.488281 25.5 42.320312 25.542969 42.273438 25.558594 C 42.222656 25.574219 42.371094 25.398438 42.601562 25.175781 C 42.953125 24.828125 43.027344 24.773438 43.0625 24.835938 C 43.371094 25.347656 43.3125 25.304688 44.019531 25.542969 C 44.378906 25.664062 44.683594 25.753906 44.691406 25.738281 C 44.730469 25.699219 43.128906 22.84375 43.074219 22.859375 C 43.058594 22.867188 42.765625 23.234375 42.425781 23.675781 C 42.082031 24.117188 41.496094 24.878906 41.117188 25.363281 L 40.433594 26.242188 L 39.882812 26.242188 C 39.3125 26.238281 39.070312 26.1875 38.90625 26.035156 C 38.824219 25.960938 38.214844 25.167969 37.933594 24.765625 L 37.808594 24.585938 L 37.234375 24.601562 L 36.660156 24.613281 L 36.484375 25.214844 C 36.386719 25.546875 36.285156 25.832031 36.261719 25.851562 C 36.199219 25.890625 35.488281 25.894531 35.488281 25.855469 C 35.488281 25.839844 35.605469 25.417969 35.75 24.917969 C 35.894531 24.417969 36.015625 24.003906 36.015625 23.988281 C 36.015625 23.976562 36.632812 23.96875 37.390625 23.96875 C 38.183594 23.96875 38.824219 23.949219 38.921875 23.921875 C 39.152344 23.855469 39.351562 23.609375 39.351562 23.386719 C 39.351562 22.945312 39.335938 22.941406 37.683594 22.941406 C 36.9375 22.941406 36.324219 22.921875 36.324219 22.898438 C 36.324219 22.882812 36.414062 22.738281 36.535156 22.585938 L 36.742188 22.304688 L 38.152344 22.3125 C 38.929688 22.316406 39.625 22.335938 39.703125 22.359375 C 40.363281 22.550781 40.46875 23.453125 39.902344 24.035156 C 39.710938 24.230469 39.453125 24.363281 39.105469 24.453125 L 38.835938 24.523438 L 39.332031 25.144531 C 39.609375 25.488281 39.859375 25.785156 39.894531 25.800781 C 39.964844 25.839844 40.171875 25.585938 41.703125 23.542969 C 42.183594 22.902344 42.613281 22.335938 42.660156 22.285156 C 42.746094 22.191406 42.746094 22.175781 42.675781 22.070312 L 42.605469 21.957031 L 43.640625 21.957031 L 44.230469 22.996094 C 45.007812 24.367188 46.597656 27.179688 46.648438 27.28125 C 46.714844 27.402344 46.640625 27.371094 46.449219 27.195312 Z M 46.445312 27.199219 "/>
<path style=" stroke:none;fill-rule:nonzero;fill:rgb(100%,100%,100%);fill-opacity:1;" d="M 8.871094 27.785156 C 8.871094 27.777344 8.972656 27.542969 9.09375 27.265625 C 9.90625 25.417969 11.242188 22.304688 11.242188 22.25 C 11.242188 22.234375 10.832031 22.226562 10.324219 22.226562 L 9.40625 22.226562 L 9.074219 21.863281 C 8.890625 21.660156 8.738281 21.480469 8.738281 21.460938 C 8.738281 21.441406 10.175781 21.425781 11.933594 21.425781 C 13.78125 21.425781 15.105469 21.441406 15.085938 21.464844 C 15.058594 21.484375 14.738281 21.664062 14.371094 21.867188 L 13.703125 22.226562 L 12.496094 22.226562 L 12.300781 22.730469 C 12.117188 23.214844 11.207031 25.464844 10.777344 26.503906 C 10.617188 26.90625 10.546875 27.019531 10.457031 27.0625 C 10.394531 27.089844 10.015625 27.261719 9.609375 27.453125 C 9.203125 27.640625 8.871094 27.792969 8.871094 27.785156 Z M 8.871094 27.785156 "/>
<path style=" stroke:none;fill-rule:nonzero;fill:rgb(100%,100%,100%);fill-opacity:1;" d="M 13.683594 24.316406 L 14.316406 22.382812 L 15.90625 22.371094 C 17.609375 22.355469 17.726562 22.371094 17.964844 22.566406 C 18.152344 22.730469 18.226562 22.902344 18.226562 23.167969 C 18.226562 23.691406 17.984375 24.074219 17.488281 24.332031 C 17.3125 24.425781 17.074219 24.511719 16.953125 24.53125 C 16.832031 24.546875 16.734375 24.566406 16.734375 24.574219 C 16.734375 24.585938 16.921875 24.878906 17.152344 25.222656 C 17.378906 25.570312 17.566406 25.859375 17.566406 25.867188 C 17.566406 25.878906 17.34375 25.886719 17.074219 25.886719 L 16.578125 25.882812 L 16.140625 25.261719 L 15.707031 24.636719 L 14.417969 24.636719 L 14.210938 25.320312 C 14.09375 25.691406 13.988281 26.011719 13.96875 26.03125 C 13.949219 26.054688 13.144531 26.242188 13.066406 26.242188 C 13.058594 26.242188 13.339844 25.375 13.683594 24.316406 Z M 16.839844 23.972656 C 17.050781 23.917969 17.246094 23.730469 17.308594 23.519531 C 17.371094 23.320312 17.273438 23.09375 17.101562 23.03125 C 17.039062 23.003906 16.53125 22.984375 15.96875 22.984375 L 14.945312 22.984375 L 14.804688 23.445312 C 14.730469 23.695312 14.667969 23.925781 14.667969 23.957031 C 14.667969 24 14.898438 24.011719 15.667969 24.011719 C 16.21875 24.011719 16.742188 23.988281 16.835938 23.96875 Z M 16.839844 23.972656 "/>
<path style=" stroke:none;fill-rule:nonzero;fill:rgb(100%,100%,100%);fill-opacity:1;" d="M 15.019531 23.703125 C 15.019531 23.675781 15.042969 23.566406 15.074219 23.453125 L 15.125 23.253906 L 16.03125 23.253906 C 16.675781 23.253906 16.949219 23.265625 16.988281 23.304688 C 17.078125 23.398438 17.050781 23.554688 16.921875 23.640625 C 16.820312 23.707031 16.671875 23.722656 15.910156 23.734375 C 15.28125 23.75 15.019531 23.738281 15.019531 23.703125 Z M 15.019531 23.703125 "/>
<path style=" stroke:none;fill-rule:nonzero;fill:rgb(100%,100%,100%);fill-opacity:1;" d="M 24.351562 25.792969 C 23.992188 25.390625 23.382812 24.703125 22.996094 24.265625 C 22.609375 23.832031 22.28125 23.488281 22.261719 23.507812 C 22.25 23.53125 22.09375 24.035156 21.917969 24.636719 C 21.738281 25.238281 21.582031 25.742188 21.570312 25.757812 C 21.554688 25.773438 21.371094 25.796875 21.160156 25.804688 C 20.867188 25.820312 20.777344 25.8125 20.777344 25.769531 C 20.777344 25.703125 21.71875 22.570312 21.785156 22.414062 C 21.824219 22.316406 21.851562 22.3125 22.210938 22.324219 L 22.597656 22.339844 L 23.628906 23.511719 C 24.195312 24.15625 24.679688 24.6875 24.707031 24.695312 C 24.726562 24.699219 24.910156 24.171875 25.101562 23.523438 L 25.453125 22.339844 L 25.859375 22.324219 C 26.238281 22.3125 26.269531 22.320312 26.25 22.394531 C 26.226562 22.472656 25.101562 26.222656 25.042969 26.417969 C 25.007812 26.515625 24.960938 26.472656 24.355469 25.792969 Z M 24.351562 25.792969 "/>
<path style=" stroke:none;fill-rule:nonzero;fill:rgb(100%,100%,100%);fill-opacity:1;" d="M 18.578125 25.859375 C 18.578125 25.847656 18.789062 25.160156 19.042969 24.332031 C 19.296875 23.503906 19.542969 22.71875 19.582031 22.582031 L 19.65625 22.335938 L 20.042969 22.324219 C 20.257812 22.316406 20.449219 22.328125 20.464844 22.347656 C 20.484375 22.363281 20.285156 23.0625 20.03125 23.898438 C 19.773438 24.734375 19.535156 25.519531 19.496094 25.640625 L 19.429688 25.863281 L 19.003906 25.875 C 18.769531 25.878906 18.578125 25.875 18.578125 25.859375 Z M 18.578125 25.859375 "/>
<path style=" stroke:none;fill-rule:nonzero;fill:rgb(100%,100%,100%);fill-opacity:1;" d="M 32.21875 25.722656 C 32.238281 25.652344 32.292969 25.445312 32.351562 25.261719 C 32.402344 25.078125 32.5625 24.535156 32.699219 24.054688 C 32.835938 23.578125 32.960938 23.132812 32.984375 23.066406 L 33.023438 22.941406 L 32.277344 22.941406 C 31.773438 22.941406 31.535156 22.921875 31.535156 22.890625 C 31.535156 22.863281 31.625 22.726562 31.734375 22.578125 L 31.933594 22.316406 L 35.714844 22.316406 L 35.527344 22.550781 C 35.203125 22.957031 35.25 22.9375 34.527344 22.9375 L 33.886719 22.9375 L 33.464844 24.378906 L 33.042969 25.816406 L 32.617188 25.832031 L 32.1875 25.84375 L 32.21875 25.71875 Z M 32.21875 25.722656 "/>
<path style=" stroke:none;fill-rule:nonzero;fill:rgb(100%,100%,100%);fill-opacity:1;" d="M 26.351562 25.722656 C 26.351562 25.699219 26.574219 24.929688 26.847656 24.011719 L 27.347656 22.339844 L 29.113281 22.324219 L 30.878906 22.316406 L 30.652344 22.59375 L 30.421875 22.875 L 29.210938 22.894531 L 28 22.917969 L 27.902344 23.207031 C 27.851562 23.367188 27.804688 23.542969 27.804688 23.601562 L 27.800781 23.699219 L 28.921875 23.699219 C 29.535156 23.699219 30.042969 23.707031 30.042969 23.71875 C 30.042969 23.734375 29.949219 23.863281 29.839844 24.011719 L 29.632812 24.277344 L 28.617188 24.289062 L 27.609375 24.300781 L 27.488281 24.679688 C 27.429688 24.890625 27.382812 25.074219 27.394531 25.09375 C 27.402344 25.113281 28.035156 25.125 28.796875 25.125 L 30.183594 25.125 L 29.96875 25.386719 C 29.855469 25.523438 29.734375 25.667969 29.695312 25.699219 C 29.644531 25.738281 29.238281 25.75 27.988281 25.75 C 27.089844 25.75 26.351562 25.738281 26.351562 25.71875 Z M 26.351562 25.722656 "/>
<path style=" stroke:none;fill-rule:nonzero;fill:rgb(100%,100%,100%);fill-opacity:1;" d="M 21.714844 20.203125 C 21.699219 20.164062 21.75 19.902344 21.824219 19.609375 C 21.898438 19.324219 21.960938 19.078125 21.960938 19.074219 C 21.960938 19.066406 21.800781 19.058594 21.609375 19.058594 C 21.414062 19.058594 21.257812 19.042969 21.257812 19.023438 C 21.257812 19.003906 21.289062 18.941406 21.328125 18.886719 C 21.394531 18.792969 21.414062 18.789062 22.273438 18.789062 C 22.75 18.789062 23.144531 18.804688 23.144531 18.824219 C 23.140625 18.84375 23.105469 18.902344 23.0625 18.960938 C 22.988281 19.042969 22.9375 19.058594 22.671875 19.058594 L 22.367188 19.058594 L 22.214844 19.652344 L 22.066406 20.242188 L 21.902344 20.253906 C 21.789062 20.261719 21.734375 20.25 21.714844 20.203125 Z M 21.714844 20.203125 "/>
<path style=" stroke:none;fill-rule:nonzero;fill:rgb(100%,100%,100%);fill-opacity:1;" d="M 23.636719 19.503906 L 23.8125 18.789062 L 25.433594 18.789062 L 25.34375 18.925781 L 25.25 19.054688 L 24.691406 19.066406 L 24.132812 19.082031 L 24.121094 19.207031 L 24.105469 19.324219 L 25.082031 19.324219 L 25.011719 19.460938 L 24.941406 19.59375 L 24.460938 19.59375 C 24.082031 19.59375 23.980469 19.605469 23.980469 19.65625 C 23.980469 19.6875 23.964844 19.78125 23.953125 19.855469 L 23.925781 19.996094 L 25.164062 19.996094 L 25.09375 20.105469 L 25.023438 20.21875 L 23.460938 20.21875 Z M 23.636719 19.503906 "/>
<path style=" stroke:none;fill-rule:nonzero;fill:rgb(100%,100%,100%);fill-opacity:1;" d="M 25.957031 20.03125 C 26.03125 19.925781 26.285156 19.605469 26.519531 19.324219 L 26.945312 18.8125 L 27.183594 18.800781 C 27.3125 18.789062 27.4375 18.804688 27.457031 18.824219 C 27.492188 18.863281 27.941406 19.933594 28.007812 20.140625 C 28.027344 20.210938 27.996094 20.21875 27.808594 20.21875 C 27.613281 20.21875 27.585938 20.203125 27.570312 20.121094 C 27.558594 20.023438 27.542969 20.015625 26.960938 20.003906 C 26.378906 19.992188 26.367188 19.996094 26.261719 20.105469 C 26.1875 20.1875 26.113281 20.21875 25.988281 20.21875 L 25.820312 20.21875 L 25.953125 20.03125 Z M 27.40625 19.71875 C 27.40625 19.597656 27.167969 19.097656 27.121094 19.109375 C 27.058594 19.125 26.613281 19.679688 26.613281 19.734375 C 26.613281 19.753906 26.792969 19.773438 27.011719 19.773438 C 27.296875 19.773438 27.40625 19.757812 27.40625 19.71875 Z M 27.40625 19.71875 "/>
<path style=" stroke:none;fill-rule:nonzero;fill:rgb(100%,100%,100%);fill-opacity:1;" d="M 26.921875 19.597656 C 26.921875 19.574219 26.960938 19.515625 27.011719 19.453125 C 27.085938 19.363281 27.101562 19.355469 27.140625 19.414062 C 27.230469 19.546875 27.195312 19.636719 27.054688 19.636719 C 26.984375 19.636719 26.921875 19.621094 26.921875 19.597656 Z M 26.921875 19.597656 "/>
<path style=" stroke:none;fill-rule:nonzero;fill:rgb(100%,100%,100%);fill-opacity:1;" d="M 28.765625 20.214844 C 28.765625 20.179688 28.835938 19.84375 28.929688 19.472656 L 29.09375 18.789062 L 29.535156 18.789062 L 29.726562 19.136719 C 29.835938 19.324219 29.941406 19.507812 29.964844 19.539062 C 30 19.585938 30.105469 19.5 30.414062 19.191406 L 30.816406 18.789062 L 31.074219 18.789062 C 31.316406 18.789062 31.324219 18.792969 31.296875 18.894531 C 31.28125 18.945312 31.210938 19.261719 31.128906 19.601562 L 30.984375 20.210938 L 30.8125 20.238281 C 30.71875 20.253906 30.632812 20.253906 30.621094 20.242188 C 30.601562 20.226562 30.644531 20 30.707031 19.738281 C 30.773438 19.472656 30.816406 19.253906 30.808594 19.246094 C 30.800781 19.238281 30.601562 19.410156 30.371094 19.632812 C 30.136719 19.855469 29.929688 20.039062 29.90625 20.039062 C 29.886719 20.039062 29.765625 19.871094 29.636719 19.660156 C 29.507812 19.449219 29.390625 19.28125 29.371094 19.28125 C 29.34375 19.28125 29.160156 20.035156 29.160156 20.15625 C 29.160156 20.191406 29.132812 20.21875 29.097656 20.21875 C 29.070312 20.21875 28.976562 20.230469 28.902344 20.246094 C 28.800781 20.265625 28.765625 20.257812 28.765625 20.214844 Z M 28.765625 20.214844 "/>
<path style=" stroke:none;fill-rule:nonzero;fill:rgb(100%,100%,100%);fill-opacity:1;" d="M 19.15625 17.558594 C 18.152344 17.257812 17.105469 16.714844 16.554688 16.199219 C 16.394531 16.058594 16.378906 16.027344 16.449219 16.023438 C 16.628906 16.023438 17.691406 16.195312 18.09375 16.300781 L 18.511719 16.402344 L 18.128906 16.425781 C 17.738281 16.449219 17.667969 16.472656 17.722656 16.558594 C 17.800781 16.6875 18.316406 17.015625 18.929688 17.324219 C 19.304688 17.515625 19.59375 17.667969 19.566406 17.667969 C 19.542969 17.667969 19.359375 17.621094 19.15625 17.558594 Z M 19.15625 17.558594 "/>
<path style=" stroke:none;fill-rule:nonzero;fill:rgb(100%,100%,100%);fill-opacity:1;" d="M 33.226562 17.261719 C 33.46875 17.074219 33.90625 16.632812 33.90625 16.570312 C 33.90625 16.53125 33.835938 16.515625 33.667969 16.515625 C 33.175781 16.515625 33.375 16.332031 34.003906 16.199219 C 34.519531 16.09375 35.3125 15.984375 35.3125 16.019531 C 35.308594 16.0625 34.855469 16.425781 34.511719 16.65625 C 34.191406 16.875 33.414062 17.28125 33.203125 17.335938 C 33.097656 17.367188 33.097656 17.363281 33.226562 17.261719 Z M 33.226562 17.261719 "/>
<path style=" stroke:none;fill-rule:nonzero;fill:rgb(100%,100%,100%);fill-opacity:1;" d="M 28.304688 17.378906 C 27.613281 17.273438 27.050781 17.132812 26.382812 16.910156 C 24.769531 16.371094 23.703125 15.789062 22.609375 14.875 C 22.40625 14.710938 22.265625 14.617188 22.265625 14.65625 C 22.265625 14.789062 22.628906 15.425781 22.863281 15.730469 C 23.125 16.050781 23.113281 16.058594 22.792969 15.804688 C 21.957031 15.132812 21.25 14.277344 20.617188 13.191406 L 20.488281 12.96875 L 20.476562 13.367188 C 20.464844 13.585938 20.484375 13.910156 20.511719 14.078125 C 20.535156 14.25 20.550781 14.390625 20.539062 14.40625 C 20.5 14.441406 20.164062 13.613281 20.089844 13.300781 C 20 12.941406 19.976562 12.257812 20.039062 11.816406 C 20.085938 11.519531 20.136719 11.515625 20.171875 11.804688 C 20.234375 12.25 20.691406 13.175781 21.054688 13.589844 L 21.207031 13.769531 L 21.082031 13.410156 C 20.636719 12.152344 20.773438 11.007812 21.453125 10.242188 L 21.652344 10.023438 L 21.546875 10.269531 C 21.3125 10.824219 21.234375 11.546875 21.347656 12.105469 C 21.449219 12.597656 21.875 13.347656 22.261719 13.722656 C 22.414062 13.875 22.425781 13.859375 22.332031 13.628906 C 22.21875 13.351562 22.09375 12.796875 22.070312 12.449219 L 22.042969 12.121094 L 22.234375 12.484375 C 22.796875 13.554688 24.140625 14.617188 25.746094 15.273438 C 26.003906 15.375 26.210938 15.46875 26.203125 15.476562 C 26.152344 15.527344 24.898438 15 24.074219 14.578125 C 23.757812 14.425781 23.496094 14.308594 23.496094 14.324219 C 23.496094 14.367188 24.085938 14.945312 24.355469 15.164062 C 24.753906 15.496094 25.578125 16.015625 26.160156 16.3125 C 27.316406 16.894531 28.421875 17.253906 29.40625 17.359375 C 29.671875 17.390625 29.925781 17.421875 29.976562 17.425781 C 30.023438 17.4375 29.753906 17.441406 29.382812 17.445312 C 29.007812 17.445312 28.523438 17.417969 28.304688 17.382812 Z M 28.304688 17.378906 "/>
<path style=" stroke:none;fill-rule:nonzero;fill:rgb(100%,100%,100%);fill-opacity:1;" d="M 30.414062 15.558594 C 29.527344 15.320312 28.75 14.867188 28.199219 14.253906 C 27.960938 13.996094 27.757812 13.636719 27.757812 13.488281 C 27.757812 13.328125 28.351562 12.453125 28.457031 12.453125 C 28.476562 12.453125 28.464844 12.535156 28.425781 12.644531 C 28.386719 12.753906 28.355469 12.984375 28.355469 13.210938 C 28.355469 13.53125 28.371094 13.628906 28.46875 13.84375 C 28.582031 14.09375 28.878906 14.503906 28.953125 14.503906 C 28.96875 14.503906 28.957031 14.410156 28.921875 14.292969 C 28.851562 14.0625 28.828125 13.367188 28.894531 13.40625 C 28.910156 13.421875 28.941406 13.519531 28.960938 13.621094 C 29.007812 13.929688 29.238281 14.351562 29.523438 14.660156 C 29.855469 15.027344 30.132812 15.234375 30.609375 15.472656 C 31.035156 15.6875 30.984375 15.707031 30.414062 15.558594 Z M 30.414062 15.558594 "/>
<path style=" stroke:none;fill-rule:nonzero;fill:rgb(100%,100%,100%);fill-opacity:1;" d="M 26.285156 14.148438 C 26.085938 13.875 25.957031 13.46875 25.957031 13.144531 C 25.957031 12.925781 26.042969 12.367188 26.109375 12.164062 C 26.125 12.113281 26.046875 12.171875 25.933594 12.296875 C 25.71875 12.539062 25.449219 13.03125 25.402344 13.28125 C 25.347656 13.566406 25.28125 13.449219 25.304688 13.113281 C 25.335938 12.695312 25.503906 12.242188 25.800781 11.78125 C 25.929688 11.585938 26.019531 11.425781 26.003906 11.425781 C 25.988281 11.425781 25.875 11.488281 25.753906 11.5625 C 25.429688 11.773438 24.941406 12.304688 24.757812 12.65625 C 24.628906 12.902344 24.597656 12.941406 24.59375 12.847656 C 24.59375 12.621094 24.769531 12.148438 24.980469 11.824219 C 25.203125 11.480469 25.441406 11.230469 25.820312 10.953125 C 25.945312 10.863281 26.039062 10.78125 26.03125 10.769531 C 25.996094 10.738281 25.359375 10.890625 24.964844 11.027344 C 24.453125 11.203125 24.066406 11.238281 23.769531 11.140625 C 23.640625 11.09375 23.527344 11.042969 23.511719 11.015625 C 23.492188 10.980469 23.511719 10.976562 23.566406 11 C 23.714844 11.066406 24.265625 11.082031 24.503906 11.03125 C 24.628906 11.003906 24.960938 10.878906 25.234375 10.753906 C 25.722656 10.535156 26.394531 10.332031 27.039062 10.222656 C 27.519531 10.136719 27.515625 10.132812 26.246094 9.886719 C 25.703125 9.785156 25.535156 9.730469 25.71875 9.730469 C 25.761719 9.730469 26.019531 9.699219 26.285156 9.664062 C 26.550781 9.628906 27.023438 9.597656 27.339844 9.597656 C 28.015625 9.597656 28.015625 9.585938 27.292969 9.226562 C 27.03125 9.085938 26.773438 8.945312 26.722656 8.90625 C 26.640625 8.832031 26.640625 8.832031 26.789062 8.855469 C 26.871094 8.867188 27.128906 8.898438 27.355469 8.925781 C 27.839844 8.980469 28.078125 9.03125 28.449219 9.152344 C 28.605469 9.207031 28.734375 9.238281 28.746094 9.230469 C 28.757812 9.222656 28.714844 9.136719 28.648438 9.046875 C 28.585938 8.957031 28.542969 8.875 28.550781 8.863281 C 28.558594 8.851562 28.695312 8.933594 28.855469 9.039062 C 29.128906 9.230469 29.332031 9.324219 29.984375 9.570312 C 30.15625 9.636719 30.378906 9.75 30.476562 9.824219 C 30.691406 9.980469 30.699219 9.980469 30.699219 9.855469 C 30.703125 9.765625 30.714844 9.773438 30.785156 9.910156 C 30.878906 10.078125 30.898438 10.3125 30.832031 10.3125 C 30.804688 10.3125 30.703125 10.257812 30.601562 10.195312 C 30.316406 10.007812 30.15625 9.953125 29.675781 9.882812 C 29.34375 9.832031 29.136719 9.769531 28.859375 9.636719 C 28.65625 9.542969 28.480469 9.472656 28.472656 9.480469 C 28.449219 9.503906 28.871094 9.859375 29.050781 9.976562 C 29.128906 10.019531 29.324219 10.171875 29.496094 10.3125 C 29.925781 10.660156 30.03125 10.699219 30.34375 10.628906 C 30.480469 10.597656 30.691406 10.550781 30.8125 10.523438 C 30.96875 10.5 31.050781 10.453125 31.078125 10.394531 C 31.117188 10.316406 31.128906 10.316406 31.402344 10.449219 C 31.820312 10.648438 31.839844 10.675781 31.839844 11.011719 C 31.839844 11.191406 31.816406 11.351562 31.765625 11.4375 L 31.695312 11.582031 L 31.632812 11.402344 C 31.542969 11.121094 31.445312 11.070312 31.046875 11.070312 C 30.839844 11.070312 30.632812 11.09375 30.542969 11.132812 C 30.394531 11.195312 30.390625 11.195312 30.292969 11.0625 C 30.113281 10.835938 29.746094 10.589844 29.367188 10.453125 C 28.980469 10.308594 28.390625 10.203125 28.175781 10.230469 L 28.042969 10.246094 L 28.21875 10.332031 L 28.394531 10.414062 L 27.976562 10.492188 C 27.554688 10.570312 27.300781 10.648438 27.074219 10.769531 C 26.902344 10.859375 26.382812 11.25 26.40625 11.269531 C 26.414062 11.28125 26.542969 11.253906 26.6875 11.207031 C 26.828125 11.160156 27.0625 11.109375 27.207031 11.09375 L 27.472656 11.0625 L 27.296875 11.210938 C 27.015625 11.445312 26.824219 11.671875 26.625 12.019531 C 26.394531 12.414062 26.117188 12.984375 26.136719 13.011719 C 26.152344 13.019531 26.253906 12.910156 26.375 12.765625 C 26.492188 12.617188 26.59375 12.507812 26.601562 12.515625 C 26.613281 12.527344 26.566406 12.691406 26.5 12.882812 C 26.410156 13.164062 26.386719 13.316406 26.386719 13.636719 C 26.386719 13.859375 26.410156 14.105469 26.4375 14.191406 C 26.464844 14.273438 26.476562 14.351562 26.46875 14.359375 C 26.457031 14.367188 26.378906 14.273438 26.289062 14.148438 Z M 31.566406 10.746094 C 31.539062 10.660156 31.15625 10.597656 31.070312 10.667969 C 30.949219 10.769531 31 10.800781 31.296875 10.800781 C 31.507812 10.800781 31.582031 10.789062 31.566406 10.746094 Z M 31.566406 10.746094 "/>
<path style=" stroke:none;fill-rule:nonzero;fill:rgb(100%,100%,100%);fill-opacity:1;" d="M 27.507812 14.226562 C 27.425781 14.128906 27.246094 13.734375 27.160156 13.480469 C 26.992188 12.972656 27.082031 12.136719 27.34375 11.730469 C 27.402344 11.636719 27.433594 11.558594 27.410156 11.558594 C 27.386719 11.558594 27.234375 11.652344 27.066406 11.765625 C 26.90625 11.878906 26.753906 11.980469 26.730469 11.992188 C 26.710938 12.007812 26.730469 11.960938 26.773438 11.894531 C 26.957031 11.605469 27.9375 10.933594 28.164062 10.933594 C 28.207031 10.933594 28.25 10.914062 28.265625 10.882812 C 28.289062 10.847656 28.175781 10.835938 27.800781 10.859375 C 27.527344 10.878906 27.3125 10.882812 27.328125 10.867188 C 27.339844 10.855469 27.492188 10.792969 27.671875 10.730469 C 27.984375 10.617188 28.566406 10.53125 28.917969 10.535156 C 29.25 10.542969 29.875 10.847656 30.105469 11.117188 L 30.195312 11.214844 L 30.105469 11.183594 C 30.058594 11.167969 29.871094 11.140625 29.691406 11.128906 C 28.699219 11.054688 27.824219 11.714844 27.558594 12.742188 C 27.488281 13.027344 27.476562 13.671875 27.539062 14.039062 C 27.578125 14.285156 27.574219 14.316406 27.507812 14.230469 Z M 27.507812 14.226562 "/>
<path style=" stroke:none;fill-rule:nonzero;fill:rgb(100%,100%,100%);fill-opacity:1;" d="M 29.746094 10.308594 C 29.621094 10.207031 29.511719 10.105469 29.511719 10.082031 C 29.511719 10.054688 29.589844 10.042969 29.679688 10.050781 C 29.820312 10.066406 29.84375 10.082031 29.855469 10.191406 C 29.875 10.355469 30.046875 10.46875 30.167969 10.398438 C 30.21875 10.375 30.261719 10.324219 30.261719 10.285156 C 30.261719 10.226562 30.277344 10.230469 30.398438 10.292969 C 30.578125 10.386719 30.511719 10.453125 30.207031 10.480469 C 29.988281 10.5 29.960938 10.488281 29.746094 10.3125 Z M 29.746094 10.308594 "/>
<path style=" stroke:none;fill-rule:nonzero;fill:rgb(100%,100%,100%);fill-opacity:1;" d="M 30.027344 10.238281 C 29.964844 10.175781 29.996094 10.125 30.085938 10.140625 C 30.136719 10.148438 30.175781 10.175781 30.175781 10.199219 C 30.175781 10.25 30.070312 10.277344 30.027344 10.238281 Z M 30.027344 10.238281 "/>
<path style=" stroke:none;fill-rule:nonzero;fill:rgb(100%,100%,100%);fill-opacity:1;" d="M 14.910156 15.109375 C 13.941406 14.925781 13.15625 14.550781 12.515625 13.964844 C 12.351562 13.816406 12.335938 13.789062 12.429688 13.816406 C 12.90625 13.9375 14.347656 14.253906 14.984375 14.371094 C 15.414062 14.457031 15.757812 14.527344 15.75 14.542969 C 15.734375 14.550781 15.574219 14.582031 15.382812 14.613281 L 15.042969 14.667969 L 15.167969 14.757812 C 15.238281 14.800781 15.515625 14.917969 15.785156 15.003906 L 16.273438 15.171875 L 15.746094 15.171875 C 15.453125 15.167969 15.082031 15.140625 14.910156 15.109375 Z M 14.910156 15.109375 "/>
<path style=" stroke:none;fill-rule:nonzero;fill:rgb(100%,100%,100%);fill-opacity:1;" d="M 35.273438 15.203125 C 35.289062 15.183594 35.550781 15.082031 35.859375 14.972656 C 36.167969 14.867188 36.441406 14.757812 36.464844 14.734375 C 36.523438 14.675781 36.484375 14.660156 36.058594 14.589844 L 35.726562 14.53125 L 35.949219 14.492188 C 36.75 14.34375 38.398438 13.996094 38.800781 13.882812 L 39.285156 13.753906 L 39.035156 13.988281 C 38.445312 14.523438 37.667969 14.90625 36.824219 15.082031 C 36.394531 15.167969 35.21875 15.257812 35.273438 15.199219 Z M 35.273438 15.203125 "/>
<path style=" stroke:none;fill-rule:nonzero;fill:rgb(100%,100%,100%);fill-opacity:1;" d="M 14.121094 13.28125 C 13.226562 13.085938 12.859375 12.972656 12.382812 12.769531 C 11.570312 12.414062 10.800781 11.855469 10.3125 11.269531 C 10.027344 10.921875 9.660156 10.390625 9.683594 10.363281 C 9.695312 10.355469 9.914062 10.46875 10.175781 10.617188 C 10.828125 10.988281 11.648438 11.34375 12.554688 11.648438 L 13.308594 11.898438 L 13.546875 12.1875 C 13.835938 12.539062 14.058594 12.757812 14.53125 13.136719 C 14.726562 13.300781 14.867188 13.433594 14.839844 13.429688 C 14.808594 13.429688 14.488281 13.363281 14.121094 13.28125 Z M 14.121094 13.28125 "/>
<path style=" stroke:none;fill-rule:nonzero;fill:rgb(100%,100%,100%);fill-opacity:1;" d="M 36.761719 13.34375 C 36.820312 13.292969 37.046875 13.097656 37.257812 12.917969 C 37.46875 12.734375 37.769531 12.425781 37.929688 12.234375 L 38.21875 11.886719 L 38.796875 11.722656 C 39.769531 11.4375 40.859375 10.972656 41.601562 10.519531 L 41.9375 10.316406 L 41.824219 10.5 C 41.492188 11.03125 41.015625 11.578125 40.582031 11.929688 C 39.730469 12.621094 38.890625 12.984375 37.441406 13.277344 C 37.128906 13.339844 36.824219 13.402344 36.761719 13.417969 L 36.652344 13.4375 Z M 36.761719 13.34375 "/>
<path style=" stroke:none;fill-rule:nonzero;fill:rgb(100%,100%,100%);fill-opacity:1;" d="M 23.71875 11.988281 C 23.730469 11.980469 23.800781 11.960938 23.871094 11.941406 C 23.964844 11.921875 23.984375 11.925781 23.933594 11.960938 C 23.875 12 23.675781 12.027344 23.71875 11.988281 Z M 23.71875 11.988281 "/>
<path style=" stroke:none;fill-rule:nonzero;fill:rgb(100%,100%,100%);fill-opacity:1;" d="M 13.769531 11.363281 C 11.949219 10.671875 11.117188 10.179688 10.25 9.292969 C 9.515625 8.542969 8.980469 7.6875 8.667969 6.765625 C 8.613281 6.597656 8.5625 6.4375 8.5625 6.414062 C 8.5625 6.390625 8.796875 6.59375 9.082031 6.859375 C 10.234375 7.945312 11.136719 8.617188 12.378906 9.304688 C 12.972656 9.636719 12.980469 9.640625 13.148438 9.933594 C 13.402344 10.371094 13.757812 10.867188 14.105469 11.261719 C 14.273438 11.449219 14.40625 11.605469 14.398438 11.601562 C 14.386719 11.59375 14.105469 11.488281 13.769531 11.363281 Z M 13.769531 11.363281 "/>
<path style=" stroke:none;fill-rule:nonzero;fill:rgb(100%,100%,100%);fill-opacity:1;" d="M 37.378906 11.304688 C 37.714844 10.949219 38.023438 10.523438 38.335938 10 L 38.5625 9.625 L 39.058594 9.359375 C 40.386719 8.648438 41.5625 7.789062 42.566406 6.789062 C 42.777344 6.578125 42.960938 6.421875 42.980469 6.441406 C 42.996094 6.457031 42.957031 6.621094 42.886719 6.792969 C 42.34375 8.214844 41.449219 9.367188 40.253906 10.183594 C 39.621094 10.617188 38.90625 10.949219 37.59375 11.425781 L 37.09375 11.605469 Z M 37.378906 11.304688 "/>
</g>
</svg>
